<svg
   xmlns:svg="http://www.w3.org/2000/svg"
   xmlns="http://www.w3.org/2000/svg"
   xmlns:xlink="http://www.w3.org/1999/xlink"
   version="1.0"
   width="115.603"
   height="220.003"
   id="svg2403"
   xml:space="preserve">
<text x="0" y="8.616" id="text1000">
  <tspan x="0" y="8.616" fill="#000000"  font-variant="normal" font-weight="normal" font-style="normal" font-family="Bitstream Vera Sans" font-size="12" id="tspan1001">input</tspan>
</text>
<path
 fill="none" stroke="#000000" stroke-width="1.44" stroke-linecap="butt" stroke-linejoin="miter"
 d="M 24.1242 140.565 L 28.0122 140.565 "/>
<path
 fill="#d7efc5" stroke="none"
 d="M 17.0307 130.313 L 17.0307,130.313L 35.1057,130.313L 35.1057,135.698L 17.0307,135.698Z"/>
<path
 fill="none" stroke="#000000" stroke-width="1.44" stroke-linecap="butt" stroke-linejoin="miter"
 d="M 24.1242 133.005 L 28.0122 133.005 "/>
<path
 fill="#d7efc5" stroke="none"
 d="M 17.0307 122.753 L 17.0307,122.753L 35.1057,122.753L 35.1057,128.138L 17.0307,128.138Z"/>
<path
 fill="none" stroke="#000000" stroke-width="1.44" stroke-linecap="butt" stroke-linejoin="miter"
 d="M 24.1242 125.445 L 28.0122 125.445 "/>
<path
 fill="#d7efc5" stroke="none"
 d="M 17.0307 115.193 L 17.0307,115.193L 35.1057,115.193L 35.1057,120.578L 17.0307,120.578Z"/>
<path
 fill="none" stroke="#000000" stroke-width="1.44" stroke-linecap="butt" stroke-linejoin="miter"
 d="M 24.1242 117.885 L 28.0122 117.885 "/>
<path
 fill="none" stroke="#000000" stroke-width="1.44" stroke-linecap="butt" stroke-linejoin="miter"
 d="M 92.4157 140.565 L 96.3037 140.565 "/>
<path
 fill="#d7efc5" stroke="none"
 d="M 85.3222 130.313 L 85.3222,130.313L 103.397,130.313L 103.397,135.698L 85.3222,135.698Z"/>
<path
 fill="none" stroke="#000000" stroke-width="1.44" stroke-linecap="butt" stroke-linejoin="miter"
 d="M 92.4157 133.005 L 96.3037 133.005 "/>
<path
 fill="#d7efc5" stroke="none"
 d="M 85.3222 122.753 L 85.3222,122.753L 103.397,122.753L 103.397,128.138L 85.3222,128.138Z"/>
<path
 fill="none" stroke="#000000" stroke-width="1.44" stroke-linecap="butt" stroke-linejoin="miter"
 d="M 92.4157 125.445 L 96.3037 125.445 "/>
<path
 fill="#d7efc5" stroke="none"
 d="M 85.3222 115.193 L 85.3222,115.193L 103.397,115.193L 103.397,120.578L 85.3222,120.578Z"/>
<path
 fill="none" stroke="#000000" stroke-width="1.44" stroke-linecap="butt" stroke-linejoin="miter"
 d="M 92.4157 117.885 L 96.3037 117.885 "/>
<path
 fill="none" stroke="#000000" stroke-width="1.44" stroke-linecap="butt" stroke-linejoin="miter"
 d="M 92.4157 98.4912 L 96.3037 98.4912 "/>
<path
 fill="#d7efc5" stroke="none"
 d="M 85.3222 88.2387 L 85.3222,88.2387L 103.397,88.2387L 103.397,93.6237L 85.3222,93.6237Z"/>
<path
 fill="none" stroke="#000000" stroke-width="1.44" stroke-linecap="butt" stroke-linejoin="miter"
 d="M 92.4157 90.9312 L 96.3037 90.9312 "/>
<path
 fill="#d7efc5" stroke="none"
 d="M 85.3222 80.6787 L 85.3222,80.6787L 103.397,80.6787L 103.397,86.0637L 85.3222,86.0637Z"/>
<path
 fill="none" stroke="#000000" stroke-width="1.44" stroke-linecap="butt" stroke-linejoin="miter"
 d="M 92.4157 83.3712 L 96.3037 83.3712 "/>
<path
 fill="#d7efc5" stroke="none"
 d="M 85.3222 73.1187 L 85.3222,73.1187L 103.397,73.1187L 103.397,78.5037L 85.3222,78.5037Z"/>
<path
 fill="none" stroke="#000000" stroke-width="1.44" stroke-linecap="butt" stroke-linejoin="miter"
 d="M 92.4157 75.8112 L 96.3037 75.8112 "/>
<path
 fill="#d7efc5" stroke="none"
 d="M 85.3222 65.5587 L 85.3222,65.5587L 103.397,65.5587L 103.397,70.9437L 85.3222,70.9437Z"/>
<path
 fill="none" stroke="#000000" stroke-width="1.44" stroke-linecap="butt" stroke-linejoin="miter"
 d="M 92.4157 68.2512 L 96.3037 68.2512 "/>
<path
 fill="#d7efc5" stroke="none"
 d="M 85.3222 57.9987 L 85.3222,57.9987L 103.397,57.9987L 103.397,63.3837L 85.3222,63.3837Z"/>
<path
 fill="none" stroke="#000000" stroke-width="1.44" stroke-linecap="butt" stroke-linejoin="miter"
 d="M 92.4157 60.6912 L 96.3037 60.6912 "/>
<path
 fill="#d7efc5" stroke="none"
 d="M 85.3222 50.4387 L 85.3222,50.4387L 103.397,50.4387L 103.397,55.8237L 85.3222,55.8237Z"/>
<path
 fill="none" stroke="#000000" stroke-width="1.44" stroke-linecap="butt" stroke-linejoin="miter"
 d="M 92.4157 53.1312 L 96.3037 53.1312 "/>
<path
 fill="none" stroke="#000000" stroke-width="1.44" stroke-linecap="butt" stroke-linejoin="miter"
 d="M 92.4157 45.5712 L 96.3037 45.5712 "/>
<path
 fill="none" stroke="#000000" stroke-width="1.44" stroke-linecap="butt" stroke-linejoin="miter"
 d="M 92.4157 38.0112 L 96.3037 38.0112 "/>
<path
 fill="none" stroke="#5c5c5c" stroke-width="0.5" stroke-linecap="butt" stroke-linejoin="miter"
 d=""/>
<path
 fill="none" stroke="#5c5c5c" stroke-width="0.5" stroke-linecap="butt" stroke-linejoin="miter"
 d=""/>
<path
 fill="none" stroke="#5c5c5c" stroke-width="0.5" stroke-linecap="butt" stroke-linejoin="miter"
 d=""/>
<path
 fill="none" stroke="#5c5c5c" stroke-width="0.5" stroke-linecap="butt" stroke-linejoin="miter"
 d=""/>
<path
 fill="none" stroke="#5c5c5c" stroke-width="0.5" stroke-linecap="butt" stroke-linejoin="miter"
 d=""/>
<path
 fill="none" stroke="#5c5c5c" stroke-width="0.5" stroke-linecap="butt" stroke-linejoin="miter"
 d="M 10.5753 99.9918 A 16.7653,16.7653 0 0,1 42.5085,109.684"/>
<path
 fill="none" stroke="#5c5c5c" stroke-width="0.5" stroke-linecap="butt" stroke-linejoin="miter"
 d=""/>
<path
 fill="none" stroke="#5c5c5c" stroke-width="0.5" stroke-linecap="butt" stroke-linejoin="miter"
 d=""/>
<path
 fill="none" stroke="#5c5c5c" stroke-width="0.5" stroke-linecap="butt" stroke-linejoin="miter"
 d=""/>
<path
 fill="none" stroke="#5c5c5c" stroke-width="0.5" stroke-linecap="butt" stroke-linejoin="miter"
 d=""/>
<path
 fill="none" stroke="#5c5c5c" stroke-width="0.5" stroke-linecap="butt" stroke-linejoin="miter"
 d=""/>
<path
 fill="none" stroke="#5c5c5c" stroke-width="0.5" stroke-linecap="butt" stroke-linejoin="miter"
 d=""/>
<path
 fill="none" stroke="#5c5c5c" stroke-width="0.5" stroke-linecap="butt" stroke-linejoin="miter"
 d=""/>
<path
 fill="none" stroke="#5c5c5c" stroke-width="0.5" stroke-linecap="butt" stroke-linejoin="miter"
 d=""/>
<path
 fill="none" stroke="#5c5c5c" stroke-width="0.5" stroke-linecap="butt" stroke-linejoin="miter"
 d=""/>
<path
 fill="none" stroke="#5c5c5c" stroke-width="0.5" stroke-linecap="butt" stroke-linejoin="miter"
 d=""/>
<path
 fill="none" stroke="#5c5c5c" stroke-width="0.5" stroke-linecap="butt" stroke-linejoin="miter"
 d=""/>
<path
 fill="none" stroke="#5c5c5c" stroke-width="0.5" stroke-linecap="butt" stroke-linejoin="miter"
 d=""/>
<path
 fill="none" stroke="#5c5c5c" stroke-width="0.5" stroke-linecap="butt" stroke-linejoin="miter"
 d=""/>
<path
 fill="none" stroke="#5c5c5c" stroke-width="0.5" stroke-linecap="butt" stroke-linejoin="miter"
 d=""/>
<path
 fill="none" stroke="#5c5c5c" stroke-width="0.5" stroke-linecap="butt" stroke-linejoin="miter"
 d=""/>
<path
 fill="none" stroke="#5c5c5c" stroke-width="0.5" stroke-linecap="butt" stroke-linejoin="miter"
 d=""/>
<path
 fill="none" stroke="#5c5c5c" stroke-width="0.5" stroke-linecap="butt" stroke-linejoin="miter"
 d=""/>
<path
 fill="none" stroke="#5c5c5c" stroke-width="0.5" stroke-linecap="butt" stroke-linejoin="miter"
 d=""/>
<path
 fill="none" stroke="#5c5c5c" stroke-width="0.5" stroke-linecap="butt" stroke-linejoin="miter"
 d=""/>
<path
 fill="none" stroke="#5c5c5c" stroke-width="0.5" stroke-linecap="butt" stroke-linejoin="miter"
 d=""/>
<path
 fill="none" stroke="#5c5c5c" stroke-width="0.5" stroke-linecap="butt" stroke-linejoin="miter"
 d="M 50.2211 124.586 A 25.0979,25.0979 0 0,1 57.1278,86.196"/>
<path
 fill="none" stroke="#5c5c5c" stroke-width="0.5" stroke-linecap="butt" stroke-linejoin="miter"
 d=""/>
<path
 fill="none" stroke="#5c5c5c" stroke-width="0.5" stroke-linecap="butt" stroke-linejoin="miter"
 d=""/>
<path
 fill="none" stroke="#5c5c5c" stroke-width="0.5" stroke-linecap="butt" stroke-linejoin="miter"
 d=""/>
<path
 fill="none" stroke="#5c5c5c" stroke-width="0.5" stroke-linecap="butt" stroke-linejoin="miter"
 d=""/>
<path
 fill="none" stroke="#5c5c5c" stroke-width="0.5" stroke-linecap="butt" stroke-linejoin="miter"
 d=""/>
<path
 fill="none" stroke="#5c5c5c" stroke-width="0.5" stroke-linecap="butt" stroke-linejoin="miter"
 d=""/>
<path
 fill="none" stroke="#5c5c5c" stroke-width="0.5" stroke-linecap="butt" stroke-linejoin="miter"
 d=""/>
<path
 fill="none" stroke="#5c5c5c" stroke-width="0.5" stroke-linecap="butt" stroke-linejoin="miter"
 d=""/>
<path
 fill="none" stroke="#5c5c5c" stroke-width="0.5" stroke-linecap="butt" stroke-linejoin="miter"
 d=""/>
<path
 fill="none" stroke="#5c5c5c" stroke-width="0.5" stroke-linecap="butt" stroke-linejoin="miter"
 d=""/>
<path
 fill="none" stroke="#5c5c5c" stroke-width="0.5" stroke-linecap="butt" stroke-linejoin="miter"
 d=""/>
<path
 fill="none" stroke="#5c5c5c" stroke-width="0.5" stroke-linecap="butt" stroke-linejoin="miter"
 d=""/>
<path
 fill="none" stroke="#5c5c5c" stroke-width="0.5" stroke-linecap="butt" stroke-linejoin="miter"
 d=""/>
<path
 fill="none" stroke="#5c5c5c" stroke-width="0.5" stroke-linecap="butt" stroke-linejoin="miter"
 d=""/>
<path
 fill="none" stroke="#5c5c5c" stroke-width="0.5" stroke-linecap="butt" stroke-linejoin="miter"
 d=""/>
<path
 fill="none" stroke="#5c5c5c" stroke-width="0.5" stroke-linecap="butt" stroke-linejoin="miter"
 d=""/>
<path
 fill="none" stroke="#5c5c5c" stroke-width="0.5" stroke-linecap="butt" stroke-linejoin="miter"
 d=""/>
<path
 fill="none" stroke="#5c5c5c" stroke-width="0.5" stroke-linecap="butt" stroke-linejoin="miter"
 d=""/>
<path
 fill="none" stroke="#5c5c5c" stroke-width="0.5" stroke-linecap="butt" stroke-linejoin="miter"
 d=""/>
<path
 fill="none" stroke="#5c5c5c" stroke-width="0.5" stroke-linecap="butt" stroke-linejoin="miter"
 d=""/>
<path
 fill="none" stroke="#5c5c5c" stroke-width="0.5" stroke-linecap="butt" stroke-linejoin="miter"
 d=""/>
<path
 fill="none" stroke="#5c5c5c" stroke-width="0.5" stroke-linecap="butt" stroke-linejoin="miter"
 d=""/>
<path
 fill="none" stroke="#5c5c5c" stroke-width="0.5" stroke-linecap="butt" stroke-linejoin="miter"
 d=""/>
<path
 fill="none" stroke="#5c5c5c" stroke-width="0.5" stroke-linecap="butt" stroke-linejoin="miter"
 d=""/>
<path
 fill="none" stroke="#5c5c5c" stroke-width="0.5" stroke-linecap="butt" stroke-linejoin="miter"
 d=""/>
<path
 fill="none" stroke="#5c5c5c" stroke-width="0.5" stroke-linecap="butt" stroke-linejoin="miter"
 d=""/>
<path
 fill="none" stroke="#5c5c5c" stroke-width="0.5" stroke-linecap="butt" stroke-linejoin="miter"
 d=""/>
<path
 fill="none" stroke="#5c5c5c" stroke-width="0.5" stroke-linecap="butt" stroke-linejoin="miter"
 d=""/>
<path
 fill="none" stroke="#5c5c5c" stroke-width="0.5" stroke-linecap="butt" stroke-linejoin="miter"
 d=""/>
<path
 fill="none" stroke="#5c5c5c" stroke-width="0.5" stroke-linecap="butt" stroke-linejoin="miter"
 d=""/>
<path
 fill="none" stroke="#5c5c5c" stroke-width="0.5" stroke-linecap="butt" stroke-linejoin="miter"
 d=""/>
<path
 fill="none" stroke="#5c5c5c" stroke-width="0.5" stroke-linecap="butt" stroke-linejoin="miter"
 d=""/>
<path
 fill="none" stroke="#5c5c5c" stroke-width="0.5" stroke-linecap="butt" stroke-linejoin="miter"
 d=""/>
<path
 fill="none" stroke="#5c5c5c" stroke-width="0.5" stroke-linecap="butt" stroke-linejoin="miter"
 d=""/>
<path
 fill="none" stroke="#5c5c5c" stroke-width="0.5" stroke-linecap="butt" stroke-linejoin="miter"
 d=""/>
<path
 fill="none" stroke="#5c5c5c" stroke-width="0.5" stroke-linecap="butt" stroke-linejoin="miter"
 d=""/>
<path
 fill="none" stroke="#5c5c5c" stroke-width="0.5" stroke-linecap="butt" stroke-linejoin="miter"
 d=""/>
<path
 fill="none" stroke="#5c5c5c" stroke-width="0.5" stroke-linecap="butt" stroke-linejoin="miter"
 d=""/>
<path
 fill="none" stroke="#5c5c5c" stroke-width="0.5" stroke-linecap="butt" stroke-linejoin="miter"
 d=""/>
<path
 fill="none" stroke="#5c5c5c" stroke-width="0.5" stroke-linecap="butt" stroke-linejoin="miter"
 d=""/>
<path
 fill="none" stroke="#5c5c5c" stroke-width="0.5" stroke-linecap="butt" stroke-linejoin="miter"
 d=""/>
<path
 fill="none" stroke="#5c5c5c" stroke-width="0.5" stroke-linecap="butt" stroke-linejoin="miter"
 d=""/>
<path
 fill="none" stroke="#5c5c5c" stroke-width="0.5" stroke-linecap="butt" stroke-linejoin="miter"
 d=""/>
<path
 fill="none" stroke="#5c5c5c" stroke-width="0.5" stroke-linecap="butt" stroke-linejoin="miter"
 d=""/>
<path
 fill="none" stroke="#5c5c5c" stroke-width="0.5" stroke-linecap="butt" stroke-linejoin="miter"
 d=""/>
<path
 fill="none" stroke="#5c5c5c" stroke-width="0.5" stroke-linecap="butt" stroke-linejoin="miter"
 d=""/>
<path
 fill="none" stroke="#5c5c5c" stroke-width="0.5" stroke-linecap="butt" stroke-linejoin="miter"
 d=""/>
<path
 fill="none" stroke="#5c5c5c" stroke-width="0.5" stroke-linecap="butt" stroke-linejoin="miter"
 d=""/>
<path
 fill="none" stroke="#5c5c5c" stroke-width="0.5" stroke-linecap="butt" stroke-linejoin="miter"
 d=""/>
<path
 fill="none" stroke="#5c5c5c" stroke-width="0.5" stroke-linecap="butt" stroke-linejoin="miter"
 d=""/>
<path
 fill="none" stroke="#5c5c5c" stroke-width="0.5" stroke-linecap="butt" stroke-linejoin="miter"
 d=""/>
<path
 fill="none" stroke="#5c5c5c" stroke-width="0.5" stroke-linecap="butt" stroke-linejoin="miter"
 d=""/>
<path
 fill="none" stroke="#5c5c5c" stroke-width="0.5" stroke-linecap="butt" stroke-linejoin="miter"
 d=""/>
<path
 fill="none" stroke="#5c5c5c" stroke-width="0.5" stroke-linecap="butt" stroke-linejoin="miter"
 d=""/>
<path
 fill="none" stroke="#5c5c5c" stroke-width="0.5" stroke-linecap="butt" stroke-linejoin="miter"
 d=""/>
<path
 fill="none" stroke="#5c5c5c" stroke-width="0.5" stroke-linecap="butt" stroke-linejoin="miter"
 d=""/>
<path
 fill="none" stroke="#5c5c5c" stroke-width="0.5" stroke-linecap="butt" stroke-linejoin="miter"
 d=""/>
<path
 fill="none" stroke="#5c5c5c" stroke-width="0.5" stroke-linecap="butt" stroke-linejoin="miter"
 d=""/>
<path
 fill="none" stroke="#5c5c5c" stroke-width="0.5" stroke-linecap="butt" stroke-linejoin="miter"
 d=""/>
<path
 fill="none" stroke="#5c5c5c" stroke-width="0.5" stroke-linecap="butt" stroke-linejoin="miter"
 d=""/>
<path
 fill="none" stroke="#5c5c5c" stroke-width="0.5" stroke-linecap="butt" stroke-linejoin="miter"
 d=""/>
<path
 fill="none" stroke="#5c5c5c" stroke-width="0.5" stroke-linecap="butt" stroke-linejoin="miter"
 d=""/>
<path
 fill="none" stroke="#5c5c5c" stroke-width="0.5" stroke-linecap="butt" stroke-linejoin="miter"
 d=""/>
<path
 fill="none" stroke="#5c5c5c" stroke-width="0.5" stroke-linecap="butt" stroke-linejoin="miter"
 d=""/>
<path
 fill="none" stroke="#5c5c5c" stroke-width="0.5" stroke-linecap="butt" stroke-linejoin="miter"
 d=""/>
<path
 fill="none" stroke="#5c5c5c" stroke-width="0.5" stroke-linecap="butt" stroke-linejoin="miter"
 d=""/>
<path
 fill="none" stroke="#5c5c5c" stroke-width="0.5" stroke-linecap="butt" stroke-linejoin="miter"
 d=""/>
<path
 fill="none" stroke="#5c5c5c" stroke-width="0.5" stroke-linecap="butt" stroke-linejoin="miter"
 d=""/>
<path
 fill="none" stroke="#5c5c5c" stroke-width="0.5" stroke-linecap="butt" stroke-linejoin="miter"
 d=""/>
<path
 fill="none" stroke="#5c5c5c" stroke-width="0.5" stroke-linecap="butt" stroke-linejoin="miter"
 d=""/>
<path
 fill="none" stroke="#5c5c5c" stroke-width="0.5" stroke-linecap="butt" stroke-linejoin="miter"
 d=""/>
<path
 fill="none" stroke="#5c5c5c" stroke-width="0.5" stroke-linecap="butt" stroke-linejoin="miter"
 d=""/>
<path
 fill="none" stroke="#5c5c5c" stroke-width="0.5" stroke-linecap="butt" stroke-linejoin="miter"
 d=""/>
<path
 fill="none" stroke="#5c5c5c" stroke-width="0.5" stroke-linecap="butt" stroke-linejoin="miter"
 d=""/>
<path
 fill="none" stroke="#5c5c5c" stroke-width="0.5" stroke-linecap="butt" stroke-linejoin="miter"
 d=""/>
<path
 fill="none" stroke="#5c5c5c" stroke-width="0.5" stroke-linecap="butt" stroke-linejoin="miter"
 d=""/>
<path
 fill="none" stroke="#5c5c5c" stroke-width="0.5" stroke-linecap="butt" stroke-linejoin="miter"
 d=""/>
<path
 fill="none" stroke="#5c5c5c" stroke-width="0.5" stroke-linecap="butt" stroke-linejoin="miter"
 d=""/>
<path
 fill="none" stroke="#5c5c5c" stroke-width="0.5" stroke-linecap="butt" stroke-linejoin="miter"
 d=""/>
<path
 fill="none" stroke="#5c5c5c" stroke-width="0.5" stroke-linecap="butt" stroke-linejoin="miter"
 d=""/>
<path
 fill="none" stroke="#5c5c5c" stroke-width="0.5" stroke-linecap="butt" stroke-linejoin="miter"
 d=""/>
<path
 fill="none" stroke="#5c5c5c" stroke-width="0.5" stroke-linecap="butt" stroke-linejoin="miter"
 d=""/>
<path
 fill="none" stroke="#5c5c5c" stroke-width="0.5" stroke-linecap="butt" stroke-linejoin="miter"
 d=""/>
<path
 fill="none" stroke="#5c5c5c" stroke-width="0.5" stroke-linecap="butt" stroke-linejoin="miter"
 d=""/>
<path
 fill="none" stroke="#5c5c5c" stroke-width="0.5" stroke-linecap="butt" stroke-linejoin="miter"
 d=""/>
<path
 fill="none" stroke="#5c5c5c" stroke-width="0.5" stroke-linecap="butt" stroke-linejoin="miter"
 d=""/>
<path
 fill="none" stroke="#5c5c5c" stroke-width="0.5" stroke-linecap="butt" stroke-linejoin="miter"
 d=""/>
<path
 fill="none" stroke="#5c5c5c" stroke-width="0.5" stroke-linecap="butt" stroke-linejoin="miter"
 d=""/>
<path
 fill="none" stroke="#5c5c5c" stroke-width="0.5" stroke-linecap="butt" stroke-linejoin="miter"
 d=""/>
<path
 fill="none" stroke="#5c5c5c" stroke-width="0.5" stroke-linecap="butt" stroke-linejoin="miter"
 d=""/>
<path
 fill="none" stroke="#5c5c5c" stroke-width="0.5" stroke-linecap="butt" stroke-linejoin="miter"
 d=""/>
<path
 fill="none" stroke="#5c5c5c" stroke-width="0.5" stroke-linecap="butt" stroke-linejoin="miter"
 d=""/>
<path
 fill="none" stroke="#5c5c5c" stroke-width="0.5" stroke-linecap="butt" stroke-linejoin="miter"
 d=""/>
<path
 fill="none" stroke="#5c5c5c" stroke-width="0.5" stroke-linecap="butt" stroke-linejoin="miter"
 d=""/>
<path
 fill="none" stroke="#5c5c5c" stroke-width="0.5" stroke-linecap="butt" stroke-linejoin="miter"
 d=""/>
<path
 fill="none" stroke="#5c5c5c" stroke-width="0.5" stroke-linecap="butt" stroke-linejoin="miter"
 d=""/>
<path
 fill="none" stroke="#5c5c5c" stroke-width="0.5" stroke-linecap="butt" stroke-linejoin="miter"
 d=""/>
<path
 fill="none" stroke="#5c5c5c" stroke-width="0.5" stroke-linecap="butt" stroke-linejoin="miter"
 d=""/>
<path
 fill="none" stroke="#5c5c5c" stroke-width="0.5" stroke-linecap="butt" stroke-linejoin="miter"
 d=""/>
<path
 fill="none" stroke="#5c5c5c" stroke-width="0.5" stroke-linecap="butt" stroke-linejoin="miter"
 d=""/>
<path
 fill="none" stroke="#5c5c5c" stroke-width="0.5" stroke-linecap="butt" stroke-linejoin="miter"
 d=""/>
<path
 fill="none" stroke="#5c5c5c" stroke-width="0.5" stroke-linecap="butt" stroke-linejoin="miter"
 d=""/>
<path
 fill="none" stroke="#5c5c5c" stroke-width="0.5" stroke-linecap="butt" stroke-linejoin="miter"
 d=""/>
<text x="17.447" y="143.258" id="text1002">
  <tspan x="17.447" y="143.258" fill="#807b88"  font-variant="normal" font-weight="normal" font-style="normal" font-family="Bitstream Vera Sans" font-size="7.5" id="tspan1003">A</tspan>
</text>
<path
 fill="#d90000" stroke="#000000" stroke-width="0.72" stroke-linecap="butt" stroke-linejoin="miter"
 d="M 22.5057 133.005 A 2.5575,2.5575 0 0,1 17.3907,133.005A 2.5575,2.5575 0 0,1 22.5057,133.005Z"/>
<text x="17.2407" y="128.138" id="text1004">
  <tspan x="17.2407" y="128.138" fill="#807b88"  font-variant="normal" font-weight="normal" font-style="normal" font-family="Bitstream Vera Sans" font-size="7.5" id="tspan1005">U</tspan>
</text>
<text x="17.2407" y="120.578" id="text1006">
  <tspan x="17.2407" y="120.578" fill="#807b88"  font-variant="normal" font-weight="normal" font-style="normal" font-family="Bitstream Vera Sans" font-size="7.5" id="tspan1007">C</tspan>
</text>
<text x="11.6786" y="115.238" id="text1008">
  <tspan x="11.6786" y="115.238" fill="#d90000"  font-variant="normal" font-weight="normal" font-style="normal" font-family="Bitstream Vera Sans" font-size="7.5" id="tspan1009">G</tspan>
</text>
<path
 fill="#d90000" stroke="#000000" stroke-width="0.72" stroke-linecap="butt" stroke-linejoin="miter"
 d="M 15.6721 105.132 A 2.5575,2.5575 0 0,1 10.5571,105.132A 2.5575,2.5575 0 0,1 15.6721,105.132Z"/>
<text x="13.5023" y="100.839" id="text1010">
  <tspan x="13.5023" y="100.839" fill="#000000"  font-variant="normal" font-weight="normal" font-style="normal" font-family="Bitstream Vera Sans" font-size="7.5" id="tspan1011">Y</tspan>
</text>
<path
 fill="#d90000" stroke="#000000" stroke-width="0.72" stroke-linecap="butt" stroke-linejoin="miter"
 d="M 24.8457 93.944 A 2.5575,2.5575 0 0,1 19.7307,93.944A 2.5575,2.5575 0 0,1 24.8457,93.944Z"/>
<path
 fill="#d90000" stroke="#000000" stroke-width="0.72" stroke-linecap="butt" stroke-linejoin="miter"
 d="M 32.4057 93.944 A 2.5575,2.5575 0 0,1 27.2907,93.944A 2.5575,2.5575 0 0,1 32.4057,93.944Z"/>
<text x="33.4254" y="100.839" id="text1012">
  <tspan x="33.4254" y="100.839" fill="#000000"  font-variant="normal" font-weight="normal" font-style="normal" font-family="Bitstream Vera Sans" font-size="7.5" id="tspan1013">R</tspan>
</text>
<text x="36.1043" y="107.825" id="text1014">
  <tspan x="36.1043" y="107.825" fill="#807b88"  font-variant="normal" font-weight="normal" font-style="normal" font-family="Bitstream Vera Sans" font-size="7.5" id="tspan1015">G</tspan>
</text>
<text x="34.8328" y="115.238" id="text1016">
  <tspan x="34.8328" y="115.238" fill="#d90000"  font-variant="normal" font-weight="normal" font-style="normal" font-family="Bitstream Vera Sans" font-size="7.5" id="tspan1017">C</tspan>
</text>
<text x="29.2707" y="120.578" id="text1018">
  <tspan x="29.2707" y="120.578" fill="#807b88"  font-variant="normal" font-weight="normal" font-style="normal" font-family="Bitstream Vera Sans" font-size="7.5" id="tspan1019">G</tspan>
</text>
<text x="29.687" y="128.138" id="text1020">
  <tspan x="29.687" y="128.138" fill="#807b88"  font-variant="normal" font-weight="normal" font-style="normal" font-family="Bitstream Vera Sans" font-size="7.5" id="tspan1021">A</tspan>
</text>
<path
 fill="#d90000" stroke="#000000" stroke-width="0.72" stroke-linecap="butt" stroke-linejoin="miter"
 d="M 34.7457 133.005 A 2.5575,2.5575 0 0,1 29.6307,133.005A 2.5575,2.5575 0 0,1 34.7457,133.005Z"/>
<text x="29.4807" y="143.258" id="text1022">
  <tspan x="29.4807" y="143.258" fill="#807b88"  font-variant="normal" font-weight="normal" font-style="normal" font-family="Bitstream Vera Sans" font-size="7.5" id="tspan1023">U</tspan>
</text>
<path
 fill="#d90000" stroke="#000000" stroke-width="0.72" stroke-linecap="butt" stroke-linejoin="miter"
 d="M 40.0915 145.911 A 2.5575,2.5575 0 0,1 34.9765,145.911A 2.5575,2.5575 0 0,1 40.0915,145.911Z"/>
<text x="42.3865" y="148.603" id="text1024">
  <tspan x="42.3865" y="148.603" fill="#807b88"  font-variant="normal" font-weight="normal" font-style="normal" font-family="Bitstream Vera Sans" font-size="7.5" id="tspan1025">U</tspan>
</text>
<text x="50.1527" y="148.603" id="text1026">
  <tspan x="50.1527" y="148.603" fill="#d90000"  font-variant="normal" font-weight="normal" font-style="normal" font-family="Bitstream Vera Sans" font-size="7.5" id="tspan1027">A</tspan>
</text>
<text x="57.7127" y="148.603" id="text1028">
  <tspan x="57.7127" y="148.603" fill="#d90000"  font-variant="normal" font-weight="normal" font-style="normal" font-family="Bitstream Vera Sans" font-size="7.5" id="tspan1029">A</tspan>
</text>
<text x="65.2727" y="148.603" id="text1030">
  <tspan x="65.2727" y="148.603" fill="#000000"  font-variant="normal" font-weight="normal" font-style="normal" font-family="Bitstream Vera Sans" font-size="7.5" id="tspan1031">A</tspan>
</text>
<text x="72.8327" y="148.603" id="text1032">
  <tspan x="72.8327" y="148.603" fill="#807b88"  font-variant="normal" font-weight="normal" font-style="normal" font-family="Bitstream Vera Sans" font-size="7.5" id="tspan1033">Y</tspan>
</text>
<text x="80.3927" y="148.603" id="text1034">
  <tspan x="80.3927" y="148.603" fill="#000000"  font-variant="normal" font-weight="normal" font-style="normal" font-family="Bitstream Vera Sans" font-size="7.5" id="tspan1035">A</tspan>
</text>
<text x="85.3222" y="143.258" id="text1036">
  <tspan x="85.3222" y="143.258" fill="#807b88"  font-variant="normal" font-weight="normal" font-style="normal" font-family="Bitstream Vera Sans" font-size="7.5" id="tspan1037">G</tspan>
</text>
<path
 fill="#d90000" stroke="#000000" stroke-width="0.72" stroke-linecap="butt" stroke-linejoin="miter"
 d="M 90.7972 133.005 A 2.5575,2.5575 0 0,1 85.6822,133.005A 2.5575,2.5575 0 0,1 90.7972,133.005Z"/>
<text x="85.7384" y="128.138" id="text1038">
  <tspan x="85.7384" y="128.138" fill="#807b88"  font-variant="normal" font-weight="normal" font-style="normal" font-family="Bitstream Vera Sans" font-size="7.5" id="tspan1039">Y</tspan>
</text>
<path
 fill="#d90000" stroke="#000000" stroke-width="0.72" stroke-linecap="butt" stroke-linejoin="miter"
 d="M 90.7972 117.885 A 2.5575,2.5575 0 0,1 85.6822,117.885A 2.5575,2.5575 0 0,1 90.7972,117.885Z"/>
<text x="80.9599" y="126.598" id="text1040">
  <tspan x="80.9599" y="126.598" fill="#000000"  font-variant="normal" font-weight="normal" font-style="normal" font-family="Bitstream Vera Sans" font-size="7.5" id="tspan1041">U</tspan>
</text>
<text x="74.5759" y="130.648" id="text1042">
  <tspan x="74.5759" y="130.648" fill="#000000"  font-variant="normal" font-weight="normal" font-style="normal" font-family="Bitstream Vera Sans" font-size="7.5" id="tspan1043">U</tspan>
</text>
<text x="67.387" y="132.218" id="text1044">
  <tspan x="67.387" y="132.218" fill="#d90000"  font-variant="normal" font-weight="normal" font-style="normal" font-family="Bitstream Vera Sans" font-size="7.5" id="tspan1045">A</tspan>
</text>
<text x="59.7021" y="131.113" id="text1046">
  <tspan x="59.7021" y="131.113" fill="#d90000"  font-variant="normal" font-weight="normal" font-style="normal" font-family="Bitstream Vera Sans" font-size="7.5" id="tspan1047">R</tspan>
</text>
<text x="52.8676" y="127.47" id="text1048">
  <tspan x="52.8676" y="127.47" fill="#d90000"  font-variant="normal" font-weight="normal" font-style="normal" font-family="Bitstream Vera Sans" font-size="7.5" id="tspan1049">G</tspan>
</text>
<text x="48.1381" y="121.747" id="text1050">
  <tspan x="48.1381" y="121.747" fill="#000000"  font-variant="normal" font-weight="normal" font-style="normal" font-family="Bitstream Vera Sans" font-size="7.5" id="tspan1051">C</tspan>
</text>
<text x="45.7094" y="114.661" id="text1052">
  <tspan x="45.7094" y="114.661" fill="#000000"  font-variant="normal" font-weight="normal" font-style="normal" font-family="Bitstream Vera Sans" font-size="7.5" id="tspan1053">Y</tspan>
</text>
<path
 fill="#d90000" stroke="#000000" stroke-width="0.72" stroke-linecap="butt" stroke-linejoin="miter"
 d="M 50.7682 104.408 A 2.5575,2.5575 0 0,1 45.6532,104.408A 2.5575,2.5575 0 0,1 50.7682,104.408Z"/>
<path
 fill="#d90000" stroke="#000000" stroke-width="0.72" stroke-linecap="butt" stroke-linejoin="miter"
 d="M 53.4031 97.3222 A 2.5575,2.5575 0 0,1 48.2881,97.3222A 2.5575,2.5575 0 0,1 53.4031,97.3222Z"/>
<text x="53.0776" y="94.2915" id="text1054">
  <tspan x="53.0776" y="94.2915" fill="#000000"  font-variant="normal" font-weight="normal" font-style="normal" font-family="Bitstream Vera Sans" font-size="7.5" id="tspan1055">R</tspan>
</text>
<path
 fill="#d90000" stroke="#000000" stroke-width="0.72" stroke-linecap="butt" stroke-linejoin="miter"
 d="M 64.9671 87.9562 A 2.5575,2.5575 0 0,1 59.8521,87.9562A 2.5575,2.5575 0 0,1 64.9671,87.9562Z"/>
<text x="66.9708" y="89.5432" id="text1056">
  <tspan x="66.9708" y="89.5432" fill="#d90000"  font-variant="normal" font-weight="normal" font-style="normal" font-family="Bitstream Vera Sans" font-size="7.5" id="tspan1057">G</tspan>
</text>
<text x="74.5759" y="91.1137" id="text1058">
  <tspan x="74.5759" y="91.1137" fill="#d90000"  font-variant="normal" font-weight="normal" font-style="normal" font-family="Bitstream Vera Sans" font-size="7.5" id="tspan1059">C</tspan>
</text>
<text x="80.7499" y="95.1631" id="text1060">
  <tspan x="80.7499" y="95.1631" fill="#d90000"  font-variant="normal" font-weight="normal" font-style="normal" font-family="Bitstream Vera Sans" font-size="7.5" id="tspan1061">G</tspan>
</text>
<text x="85.5322" y="101.184" id="text1062">
  <tspan x="85.5322" y="101.184" fill="#807b88"  font-variant="normal" font-weight="normal" font-style="normal" font-family="Bitstream Vera Sans" font-size="7.5" id="tspan1063">U</tspan>
</text>
<text x="85.7384" y="93.6237" id="text1064">
  <tspan x="85.7384" y="93.6237" fill="#000000"  font-variant="normal" font-weight="normal" font-style="normal" font-family="Bitstream Vera Sans" font-size="7.5" id="tspan1065">Y</tspan>
</text>
<path
 fill="#d90000" stroke="#000000" stroke-width="0.72" stroke-linecap="butt" stroke-linejoin="miter"
 d="M 90.7972 83.3712 A 2.5575,2.5575 0 0,1 85.6822,83.3712A 2.5575,2.5575 0 0,1 90.7972,83.3712Z"/>
<text x="85.7384" y="78.5037" id="text1066">
  <tspan x="85.7384" y="78.5037" fill="#807b88"  font-variant="normal" font-weight="normal" font-style="normal" font-family="Bitstream Vera Sans" font-size="7.5" id="tspan1067">Y</tspan>
</text>
<path
 fill="#d90000" stroke="#000000" stroke-width="0.72" stroke-linecap="butt" stroke-linejoin="miter"
 d="M 90.7972 68.2512 A 2.5575,2.5575 0 0,1 85.6822,68.2512A 2.5575,2.5575 0 0,1 90.7972,68.2512Z"/>
<path
 fill="#000000" stroke="#000000" stroke-width="0.72" stroke-linecap="butt" stroke-linejoin="miter"
 d="M 90.7972 60.6912 A 2.5575,2.5575 0 0,1 85.6822,60.6912A 2.5575,2.5575 0 0,1 90.7972,60.6912Z"/>
<path
 fill="#807b88" stroke="#000000" stroke-width="0.72" stroke-linecap="butt" stroke-linejoin="miter"
 d="M 90.7972 53.1312 A 2.5575,2.5575 0 0,1 85.6822,53.1312A 2.5575,2.5575 0 0,1 90.7972,53.1312Z"/>
<path
 fill="#ffffff" stroke="#000000" stroke-width="0.72" stroke-linecap="butt" stroke-linejoin="miter"
 d="M 90.7972 45.5712 A 2.5575,2.5575 0 0,1 85.6822,45.5712A 2.5575,2.5575 0 0,1 90.7972,45.5712Z"/>
<path
 fill="#ffffff" stroke="#666666" stroke-width="0.72" stroke-linecap="butt" stroke-linejoin="miter"
 d="M 90.7972 38.0112 A 2.5575,2.5575 0 0,1 85.6822,38.0112A 2.5575,2.5575 0 0,1 90.7972,38.0112Z"/>
<path
 fill="#ffffff" stroke="#000000" stroke-width="0.72" stroke-linecap="butt" stroke-linejoin="miter"
 d="M 87.3959 31.2596 A 2.5575,2.5575 0 0,1 82.2809,31.2596A 2.5575,2.5575 0 0,1 87.3959,31.2596Z"/>
<path
 fill="#807b88" stroke="#000000" stroke-width="0.72" stroke-linecap="butt" stroke-linejoin="miter"
 d="M 89.9762 24.1536 A 2.5575,2.5575 0 0,1 84.8612,24.1536A 2.5575,2.5575 0 0,1 89.9762,24.1536Z"/>
<path
 fill="#ffffff" stroke="#000000" stroke-width="0.72" stroke-linecap="butt" stroke-linejoin="miter"
 d="M 96.9172 21.1575 A 2.5575,2.5575 0 0,1 91.8022,21.1575A 2.5575,2.5575 0 0,1 96.9172,21.1575Z"/>
<path
 fill="#ffffff" stroke="#000000" stroke-width="0.72" stroke-linecap="butt" stroke-linejoin="miter"
 d="M 103.858 24.1536 A 2.5575,2.5575 0 0,1 98.7431,24.1536A 2.5575,2.5575 0 0,1 103.858,24.1536Z"/>
<path
 fill="#ffffff" stroke="#000000" stroke-width="0.72" stroke-linecap="butt" stroke-linejoin="miter"
 d="M 106.439 31.2596 A 2.5575,2.5575 0 0,1 101.324,31.2596A 2.5575,2.5575 0 0,1 106.439,31.2596Z"/>
<path
 fill="#ffffff" stroke="#666666" stroke-width="0.72" stroke-linecap="butt" stroke-linejoin="miter"
 d="M 103.037 38.0112 A 2.5575,2.5575 0 0,1 97.9222,38.0112A 2.5575,2.5575 0 0,1 103.037,38.0112Z"/>
<path
 fill="#ffffff" stroke="#000000" stroke-width="0.72" stroke-linecap="butt" stroke-linejoin="miter"
 d="M 103.037 45.5712 A 2.5575,2.5575 0 0,1 97.9222,45.5712A 2.5575,2.5575 0 0,1 103.037,45.5712Z"/>
<path
 fill="#807b88" stroke="#000000" stroke-width="0.72" stroke-linecap="butt" stroke-linejoin="miter"
 d="M 103.037 53.1312 A 2.5575,2.5575 0 0,1 97.9222,53.1312A 2.5575,2.5575 0 0,1 103.037,53.1312Z"/>
<path
 fill="#000000" stroke="#000000" stroke-width="0.72" stroke-linecap="butt" stroke-linejoin="miter"
 d="M 103.037 60.6912 A 2.5575,2.5575 0 0,1 97.9222,60.6912A 2.5575,2.5575 0 0,1 103.037,60.6912Z"/>
<path
 fill="#d90000" stroke="#000000" stroke-width="0.72" stroke-linecap="butt" stroke-linejoin="miter"
 d="M 103.037 68.2512 A 2.5575,2.5575 0 0,1 97.9222,68.2512A 2.5575,2.5575 0 0,1 103.037,68.2512Z"/>
<text x="97.7722" y="78.5037" id="text1068">
  <tspan x="97.7722" y="78.5037" fill="#807b88"  font-variant="normal" font-weight="normal" font-style="normal" font-family="Bitstream Vera Sans" font-size="7.5" id="tspan1069">R</tspan>
</text>
<path
 fill="#d90000" stroke="#000000" stroke-width="0.72" stroke-linecap="butt" stroke-linejoin="miter"
 d="M 103.037 83.3712 A 2.5575,2.5575 0 0,1 97.9222,83.3712A 2.5575,2.5575 0 0,1 103.037,83.3712Z"/>
<text x="97.7722" y="93.6237" id="text1070">
  <tspan x="97.7722" y="93.6237" fill="#000000"  font-variant="normal" font-weight="normal" font-style="normal" font-family="Bitstream Vera Sans" font-size="7.5" id="tspan1071">R</tspan>
</text>
<text x="97.5622" y="101.184" id="text1072">
  <tspan x="97.5622" y="101.184" fill="#807b88"  font-variant="normal" font-weight="normal" font-style="normal" font-family="Bitstream Vera Sans" font-size="7.5" id="tspan1073">G</tspan>
</text>
<text x="102.268" y="107.101" id="text1074">
  <tspan x="102.268" y="107.101" fill="#807b88"  font-variant="normal" font-weight="normal" font-style="normal" font-family="Bitstream Vera Sans" font-size="7.5" id="tspan1075">G</tspan>
</text>
<text x="102.478" y="114.661" id="text1076">
  <tspan x="102.478" y="114.661" fill="#807b88"  font-variant="normal" font-weight="normal" font-style="normal" font-family="Bitstream Vera Sans" font-size="7.5" id="tspan1077">U</tspan>
</text>
<path
 fill="#000000" stroke="#000000" stroke-width="0.72" stroke-linecap="butt" stroke-linejoin="miter"
 d="M 103.037 117.885 A 2.5575,2.5575 0 0,1 97.9222,117.885A 2.5575,2.5575 0 0,1 103.037,117.885Z"/>
<text x="97.7722" y="128.138" id="text1078">
  <tspan x="97.7722" y="128.138" fill="#807b88"  font-variant="normal" font-weight="normal" font-style="normal" font-family="Bitstream Vera Sans" font-size="7.5" id="tspan1079">R</tspan>
</text>
<path
 fill="#000000" stroke="#000000" stroke-width="0.72" stroke-linecap="butt" stroke-linejoin="miter"
 d="M 103.037 133.005 A 2.5575,2.5575 0 0,1 97.9222,133.005A 2.5575,2.5575 0 0,1 103.037,133.005Z"/>
<text x="97.7722" y="143.258" id="text1080">
  <tspan x="97.7722" y="143.258" fill="#807b88"  font-variant="normal" font-weight="normal" font-style="normal" font-family="Bitstream Vera Sans" font-size="7.5" id="tspan1081">R</tspan>
</text>
<path
 fill="none" stroke="#000000" stroke-width="0.72" stroke-linecap="butt" stroke-linejoin="miter"
 d="M 19.9482 144.129 A 1.78191,1.78191 0 0,1 18.1663,145.911L 14.6025 145.911 "/>
<path
 fill="none" stroke="#000000" stroke-width="0.5" stroke-linecap="butt" stroke-linejoin="miter"
 d="M 30.9373 90.3557 L 32.099 86.5281 "/>
<path
 fill="none" stroke="#000000" stroke-width="0.5" stroke-linecap="butt" stroke-linejoin="miter"
 d="M 44.5199 103.744 L 40.5831 103.036 "/>
<text x="26.0307" y="83.8507" id="text1082">
  <tspan x="26.0307" y="83.8507" fill="#000000"  font-variant="normal" font-weight="normal" font-style="normal" font-family="Bitstream Vera Sans" font-size="6" id="tspan1083">pk_1</tspan>
</text>
<text x="26.0988" y="104.303" id="text1084">
  <tspan x="26.0988" y="104.303" fill="#000000"  font-variant="normal" font-weight="normal" font-style="normal" font-family="Bitstream Vera Sans" font-size="6" id="tspan1085">pk_1</tspan>
</text>
<text x="7.5" y="148.603" id="text1086">
  <tspan x="7.5" y="148.603" fill="#000000"  font-variant="normal" font-weight="normal" font-style="normal" font-family="Bitstream Vera Sans" font-size="7.5" id="tspan1087">5&apos;</tspan>
</text>
<text x="0" y="164.719" id="text1088">
  <tspan x="0" y="164.719" fill="#000000"  font-variant="normal" font-weight="normal" font-style="normal" font-family="Bitstream Vera Sans" font-size="12" id="tspan1089">pk_1</tspan>
</text>
<path
 fill="#d7efc5" stroke="none"
 d="M 8.5825 175.791 L 8.5825,175.791L 26.6575,175.791L 26.6575,181.176L 8.5825,181.176Z"/>
<path
 fill="none" stroke="#000000" stroke-width="1.44" stroke-linecap="butt" stroke-linejoin="miter"
 d="M 15.676 178.483 L 19.564 178.483 "/>
<path
 fill="#d7efc5" stroke="none"
 d="M 8.5825 183.351 L 8.5825,183.351L 26.6575,183.351L 26.6575,188.736L 8.5825,188.736Z"/>
<path
 fill="none" stroke="#000000" stroke-width="1.44" stroke-linecap="butt" stroke-linejoin="miter"
 d="M 15.676 186.043 L 19.564 186.043 "/>
<path
 fill="#d7efc5" stroke="none"
 d="M 8.5825 190.911 L 8.5825,190.911L 26.6575,190.911L 26.6575,196.296L 8.5825,196.296Z"/>
<path
 fill="none" stroke="#000000" stroke-width="1.44" stroke-linecap="butt" stroke-linejoin="miter"
 d="M 15.676 193.603 L 19.564 193.603 "/>
<path
 fill="#d7efc5" stroke="none"
 d="M 8.5825 198.471 L 8.5825,198.471L 26.6575,198.471L 26.6575,203.856L 8.5825,203.856Z"/>
<path
 fill="none" stroke="#000000" stroke-width="1.44" stroke-linecap="butt" stroke-linejoin="miter"
 d="M 15.676 201.163 L 19.564 201.163 "/>
<path
 fill="none" stroke="#000000" stroke-width="1.44" stroke-linecap="butt" stroke-linejoin="miter"
 d="M 15.676 208.723 L 19.564 208.723 "/>
<path
 fill="none" stroke="#5c5c5c" stroke-width="0.5" stroke-linecap="butt" stroke-linejoin="miter"
 d="M 7.75 174.703 L 7.75 212.503 "/>
<path
 fill="none" stroke="#5c5c5c" stroke-width="0.5" stroke-linecap="butt" stroke-linejoin="miter"
 d="M 27.49 212.503 L 27.49 174.703 "/>
<path
 fill="none" stroke="#5c5c5c" stroke-width="0.5" stroke-linecap="butt" stroke-linejoin="miter"
 d=""/>
<path
 fill="none" stroke="#5c5c5c" stroke-width="0.5" stroke-linecap="butt" stroke-linejoin="miter"
 d=""/>
<path
 fill="none" stroke="#5c5c5c" stroke-width="0.5" stroke-linecap="butt" stroke-linejoin="miter"
 d=""/>
<path
 fill="none" stroke="#5c5c5c" stroke-width="0.5" stroke-linecap="butt" stroke-linejoin="miter"
 d=""/>
<path
 fill="none" stroke="#5c5c5c" stroke-width="0.5" stroke-linecap="butt" stroke-linejoin="miter"
 d=""/>
<path
 fill="none" stroke="#5c5c5c" stroke-width="0.5" stroke-linecap="butt" stroke-linejoin="miter"
 d=""/>
<path
 fill="none" stroke="#5c5c5c" stroke-width="0.5" stroke-linecap="butt" stroke-linejoin="miter"
 d=""/>
<path
 fill="none" stroke="#5c5c5c" stroke-width="0.5" stroke-linecap="butt" stroke-linejoin="miter"
 d=""/>
<path
 fill="none" stroke="#5c5c5c" stroke-width="0.5" stroke-linecap="butt" stroke-linejoin="miter"
 d=""/>
<path
 fill="none" stroke="#5c5c5c" stroke-width="0.5" stroke-linecap="butt" stroke-linejoin="miter"
 d=""/>
<text x="8.99875" y="181.176" id="text1090">
  <tspan x="8.99875" y="181.176" fill="#000000"  font-variant="normal" font-weight="normal" font-style="normal" font-family="Bitstream Vera Sans" font-size="7.5" id="tspan1091">Y</tspan>
</text>
<path
 fill="#d90000" stroke="#000000" stroke-width="0.72" stroke-linecap="butt" stroke-linejoin="miter"
 d="M 14.0575 186.043 A 2.5575,2.5575 0 0,1 8.9425,186.043A 2.5575,2.5575 0 0,1 14.0575,186.043Z"/>
<path
 fill="#d90000" stroke="#000000" stroke-width="0.72" stroke-linecap="butt" stroke-linejoin="miter"
 d="M 14.0575 193.603 A 2.5575,2.5575 0 0,1 8.9425,193.603A 2.5575,2.5575 0 0,1 14.0575,193.603Z"/>
<text x="8.7925" y="203.856" id="text1092">
  <tspan x="8.7925" y="203.856" fill="#000000"  font-variant="normal" font-weight="normal" font-style="normal" font-family="Bitstream Vera Sans" font-size="7.5" id="tspan1093">R</tspan>
</text>
<text x="8.5825" y="211.416" id="text1094">
  <tspan x="8.5825" y="211.416" fill="#807b88"  font-variant="normal" font-weight="normal" font-style="normal" font-family="Bitstream Vera Sans" font-size="7.5" id="tspan1095">G</tspan>
</text>
<text x="21.0325" y="211.416" id="text1096">
  <tspan x="21.0325" y="211.416" fill="#000000"  font-variant="normal" font-weight="normal" font-style="normal" font-family="Bitstream Vera Sans" font-size="7.5" id="tspan1097">C</tspan>
</text>
<text x="21.2388" y="203.856" id="text1098">
  <tspan x="21.2388" y="203.856" fill="#000000"  font-variant="normal" font-weight="normal" font-style="normal" font-family="Bitstream Vera Sans" font-size="7.5" id="tspan1099">Y</tspan>
</text>
<path
 fill="#d90000" stroke="#000000" stroke-width="0.72" stroke-linecap="butt" stroke-linejoin="miter"
 d="M 26.2975 193.603 A 2.5575,2.5575 0 0,1 21.1825,193.603A 2.5575,2.5575 0 0,1 26.2975,193.603Z"/>
<path
 fill="#d90000" stroke="#000000" stroke-width="0.72" stroke-linecap="butt" stroke-linejoin="miter"
 d="M 26.2975 186.043 A 2.5575,2.5575 0 0,1 21.1825,186.043A 2.5575,2.5575 0 0,1 26.2975,186.043Z"/>
<text x="21.0325" y="181.176" id="text1100">
  <tspan x="21.0325" y="181.176" fill="#000000"  font-variant="normal" font-weight="normal" font-style="normal" font-family="Bitstream Vera Sans" font-size="7.5" id="tspan1101">R</tspan>
</text>
</svg>
