<svg
   xmlns:svg="http://www.w3.org/2000/svg"
   xmlns="http://www.w3.org/2000/svg"
   xmlns:xlink="http://www.w3.org/1999/xlink"
   version="1.0"
   width="171.832"
   height="243.307"
   id="svg2403"
   xml:space="preserve">
<text x="0" y="8.616" id="text1000">
  <tspan x="0" y="8.616" fill="#000000"  font-variant="normal" font-weight="normal" font-style="normal" font-family="Bitstream Vera Sans" font-size="12" id="tspan1001">pk_1</tspan>
</text>
<path
 fill="#d7efc5" stroke="none"
 d="M 8.5825 19.6875 L 8.5825,19.6875L 26.6575,19.6875L 26.6575,25.0725L 8.5825,25.0725Z"/>
<path
 fill="none" stroke="#000000" stroke-width="1.44" stroke-linecap="butt" stroke-linejoin="miter"
 d="M 15.676 22.38 L 19.564 22.38 "/>
<path
 fill="#d7efc5" stroke="none"
 d="M 8.5825 27.2475 L 8.5825,27.2475L 26.6575,27.2475L 26.6575,32.6325L 8.5825,32.6325Z"/>
<path
 fill="none" stroke="#000000" stroke-width="1.44" stroke-linecap="butt" stroke-linejoin="miter"
 d="M 15.676 29.94 L 19.564 29.94 "/>
<path
 fill="#d7efc5" stroke="none"
 d="M 8.5825 34.8075 L 8.5825,34.8075L 26.6575,34.8075L 26.6575,40.1925L 8.5825,40.1925Z"/>
<path
 fill="none" stroke="#000000" stroke-width="1.44" stroke-linecap="butt" stroke-linejoin="miter"
 d="M 15.676 37.5 L 19.564 37.5 "/>
<path
 fill="none" stroke="#5c5c5c" stroke-width="0.5" stroke-linecap="butt" stroke-linejoin="miter"
 d="M 7.75 18.6 L 7.75 41.28 "/>
<path
 fill="none" stroke="#5c5c5c" stroke-width="0.5" stroke-linecap="butt" stroke-linejoin="miter"
 d="M 27.49 41.28 L 27.49 18.6 "/>
<path
 fill="none" stroke="#5c5c5c" stroke-width="0.5" stroke-linecap="butt" stroke-linejoin="miter"
 d=""/>
<path
 fill="none" stroke="#5c5c5c" stroke-width="0.5" stroke-linecap="butt" stroke-linejoin="miter"
 d=""/>
<path
 fill="none" stroke="#5c5c5c" stroke-width="0.5" stroke-linecap="butt" stroke-linejoin="miter"
 d=""/>
<path
 fill="none" stroke="#5c5c5c" stroke-width="0.5" stroke-linecap="butt" stroke-linejoin="miter"
 d=""/>
<path
 fill="none" stroke="#5c5c5c" stroke-width="0.5" stroke-linecap="butt" stroke-linejoin="miter"
 d=""/>
<path
 fill="none" stroke="#5c5c5c" stroke-width="0.5" stroke-linecap="butt" stroke-linejoin="miter"
 d=""/>
<path
 fill="#d90000" stroke="#000000" stroke-width="0.72" stroke-linecap="butt" stroke-linejoin="miter"
 d="M 14.0575 22.38 A 2.5575,2.5575 0 0,1 8.9425,22.38A 2.5575,2.5575 0 0,1 14.0575,22.38Z"/>
<path
 fill="#d90000" stroke="#000000" stroke-width="0.72" stroke-linecap="butt" stroke-linejoin="miter"
 d="M 14.0575 29.94 A 2.5575,2.5575 0 0,1 8.9425,29.94A 2.5575,2.5575 0 0,1 14.0575,29.94Z"/>
<text x="8.5825" y="40.1925" id="text1002">
  <tspan x="8.5825" y="40.1925" fill="#807b88"  font-variant="normal" font-weight="normal" font-style="normal" font-family="Bitstream Vera Sans" font-size="7.5" id="tspan1003">G</tspan>
</text>
<text x="21.0325" y="40.1925" id="text1004">
  <tspan x="21.0325" y="40.1925" fill="#807b88"  font-variant="normal" font-weight="normal" font-style="normal" font-family="Bitstream Vera Sans" font-size="7.5" id="tspan1005">C</tspan>
</text>
<path
 fill="#d90000" stroke="#000000" stroke-width="0.72" stroke-linecap="butt" stroke-linejoin="miter"
 d="M 26.2975 29.94 A 2.5575,2.5575 0 0,1 21.1825,29.94A 2.5575,2.5575 0 0,1 26.2975,29.94Z"/>
<path
 fill="#d90000" stroke="#000000" stroke-width="0.72" stroke-linecap="butt" stroke-linejoin="miter"
 d="M 26.2975 22.38 A 2.5575,2.5575 0 0,1 21.1825,22.38A 2.5575,2.5575 0 0,1 26.2975,22.38Z"/>
<text x="136.592" y="8.616" id="text1006">
  <tspan x="136.592" y="8.616" fill="#000000"  font-variant="normal" font-weight="normal" font-style="normal" font-family="Bitstream Vera Sans" font-size="12" id="tspan1007">pk_2</tspan>
</text>
<path
 fill="#d7efc5" stroke="none"
 d="M 145.175 19.6875 L 145.175,19.6875L 163.25,19.6875L 163.25,25.0725L 145.175,25.0725Z"/>
<path
 fill="none" stroke="#000000" stroke-width="1.44" stroke-linecap="butt" stroke-linejoin="miter"
 d="M 152.268 22.38 L 156.156 22.38 "/>
<path
 fill="#d7efc5" stroke="none"
 d="M 145.175 27.2475 L 145.175,27.2475L 163.25,27.2475L 163.25,32.6325L 145.175,32.6325Z"/>
<path
 fill="none" stroke="#000000" stroke-width="1.44" stroke-linecap="butt" stroke-linejoin="miter"
 d="M 152.268 29.94 L 156.156 29.94 "/>
<path
 fill="#d7efc5" stroke="none"
 d="M 145.175 34.8075 L 145.175,34.8075L 163.25,34.8075L 163.25,40.1925L 145.175,40.1925Z"/>
<path
 fill="none" stroke="#000000" stroke-width="1.44" stroke-linecap="butt" stroke-linejoin="miter"
 d="M 152.268 37.5 L 156.156 37.5 "/>
<path
 fill="none" stroke="#5c5c5c" stroke-width="0.5" stroke-linecap="butt" stroke-linejoin="miter"
 d="M 144.342 18.6 L 144.342 41.28 "/>
<path
 fill="none" stroke="#5c5c5c" stroke-width="0.5" stroke-linecap="butt" stroke-linejoin="miter"
 d="M 164.082 41.28 L 164.082 18.6 "/>
<path
 fill="none" stroke="#5c5c5c" stroke-width="0.5" stroke-linecap="butt" stroke-linejoin="miter"
 d=""/>
<path
 fill="none" stroke="#5c5c5c" stroke-width="0.5" stroke-linecap="butt" stroke-linejoin="miter"
 d=""/>
<path
 fill="none" stroke="#5c5c5c" stroke-width="0.5" stroke-linecap="butt" stroke-linejoin="miter"
 d=""/>
<path
 fill="none" stroke="#5c5c5c" stroke-width="0.5" stroke-linecap="butt" stroke-linejoin="miter"
 d=""/>
<path
 fill="none" stroke="#5c5c5c" stroke-width="0.5" stroke-linecap="butt" stroke-linejoin="miter"
 d=""/>
<path
 fill="none" stroke="#5c5c5c" stroke-width="0.5" stroke-linecap="butt" stroke-linejoin="miter"
 d=""/>
<path
 fill="#d90000" stroke="#000000" stroke-width="0.72" stroke-linecap="butt" stroke-linejoin="miter"
 d="M 150.65 22.38 A 2.5575,2.5575 0 0,1 145.535,22.38A 2.5575,2.5575 0 0,1 150.65,22.38Z"/>
<text x="145.591" y="32.6325" id="text1008">
  <tspan x="145.591" y="32.6325" fill="#807b88"  font-variant="normal" font-weight="normal" font-style="normal" font-family="Bitstream Vera Sans" font-size="7.5" id="tspan1009">Y</tspan>
</text>
<text x="145.385" y="40.1925" id="text1010">
  <tspan x="145.385" y="40.1925" fill="#807b88"  font-variant="normal" font-weight="normal" font-style="normal" font-family="Bitstream Vera Sans" font-size="7.5" id="tspan1011">R</tspan>
</text>
<text x="157.831" y="40.1925" id="text1012">
  <tspan x="157.831" y="40.1925" fill="#807b88"  font-variant="normal" font-weight="normal" font-style="normal" font-family="Bitstream Vera Sans" font-size="7.5" id="tspan1013">Y</tspan>
</text>
<text x="157.625" y="32.6325" id="text1014">
  <tspan x="157.625" y="32.6325" fill="#807b88"  font-variant="normal" font-weight="normal" font-style="normal" font-family="Bitstream Vera Sans" font-size="7.5" id="tspan1015">R</tspan>
</text>
<path
 fill="#d90000" stroke="#000000" stroke-width="0.72" stroke-linecap="butt" stroke-linejoin="miter"
 d="M 162.89 22.38 A 2.5575,2.5575 0 0,1 157.775,22.38A 2.5575,2.5575 0 0,1 162.89,22.38Z"/>
<text x="0" y="57.396" id="text1016">
  <tspan x="0" y="57.396" fill="#000000"  font-variant="normal" font-weight="normal" font-style="normal" font-family="Bitstream Vera Sans" font-size="12" id="tspan1017">rnamrf</tspan>
</text>
<path
 fill="#d7efc5" stroke="none"
 d="M 38.6986 178.377 L 38.6986,178.377L 56.7736,178.377L 56.7736,183.762L 38.6986,183.762Z"/>
<path
 fill="none" stroke="#000000" stroke-width="1.44" stroke-linecap="butt" stroke-linejoin="miter"
 d="M 45.7921 181.07 L 49.6801 181.07 "/>
<path
 fill="#d7efc5" stroke="none"
 d="M 38.6986 170.817 L 38.6986,170.817L 56.7736,170.817L 56.7736,176.202L 38.6986,176.202Z"/>
<path
 fill="none" stroke="#000000" stroke-width="1.44" stroke-linecap="butt" stroke-linejoin="miter"
 d="M 45.7921 173.51 L 49.6801 173.51 "/>
<path
 fill="#d7efc5" stroke="none"
 d="M 38.6986 163.257 L 38.6986,163.257L 56.7736,163.257L 56.7736,168.642L 38.6986,168.642Z"/>
<path
 fill="none" stroke="#000000" stroke-width="1.44" stroke-linecap="butt" stroke-linejoin="miter"
 d="M 45.7921 165.95 L 49.6801 165.95 "/>
<path
 fill="#d7efc5" stroke="none"
 d="M 38.6986 155.697 L 38.6986,155.697L 56.7736,155.697L 56.7736,161.082L 38.6986,161.082Z"/>
<path
 fill="none" stroke="#000000" stroke-width="1.44" stroke-linecap="butt" stroke-linejoin="miter"
 d="M 45.7921 158.39 L 49.6801 158.39 "/>
<path
 fill="#d7efc5" stroke="none"
 d="M 38.6986 130.988 L 38.6986,130.988L 56.7736,130.988L 56.7736,136.373L 38.6986,136.373Z"/>
<path
 fill="none" stroke="#000000" stroke-width="1.44" stroke-linecap="butt" stroke-linejoin="miter"
 d="M 45.7921 133.68 L 49.6801 133.68 "/>
<path
 fill="#d7efc5" stroke="none"
 d="M 38.6986 123.428 L 38.6986,123.428L 56.7736,123.428L 56.7736,128.813L 38.6986,128.813Z"/>
<path
 fill="none" stroke="#000000" stroke-width="1.44" stroke-linecap="butt" stroke-linejoin="miter"
 d="M 45.7921 126.12 L 49.6801 126.12 "/>
<path
 fill="#d7efc5" stroke="none"
 d="M 38.6986 115.868 L 38.6986,115.868L 56.7736,115.868L 56.7736,121.253L 38.6986,121.253Z"/>
<path
 fill="none" stroke="#000000" stroke-width="1.44" stroke-linecap="butt" stroke-linejoin="miter"
 d="M 45.7921 118.56 L 49.6801 118.56 "/>
<path
 fill="#d7efc5" stroke="none"
 d="M 38.6986 108.308 L 38.6986,108.308L 56.7736,108.308L 56.7736,113.693L 38.6986,113.693Z"/>
<path
 fill="none" stroke="#000000" stroke-width="1.44" stroke-linecap="butt" stroke-linejoin="miter"
 d="M 45.7921 111 L 49.6801 111 "/>
<path
 fill="#d7efc5" stroke="none"
 d="M 38.6986 100.748 L 38.6986,100.748L 56.7736,100.748L 56.7736,106.133L 38.6986,106.133Z"/>
<path
 fill="none" stroke="#000000" stroke-width="1.44" stroke-linecap="butt" stroke-linejoin="miter"
 d="M 45.7921 103.44 L 49.6801 103.44 "/>
<path
 fill="#d7efc5" stroke="none"
 d="M 38.6986 93.1875 L 38.6986,93.1875L 56.7736,93.1875L 56.7736,98.5725L 38.6986,98.5725Z"/>
<path
 fill="none" stroke="#000000" stroke-width="1.44" stroke-linecap="butt" stroke-linejoin="miter"
 d="M 45.7921 95.88 L 49.6801 95.88 "/>
<path
 fill="#d7efc5" stroke="none"
 d="M 38.6986 85.6275 L 38.6986,85.6275L 56.7736,85.6275L 56.7736,91.0125L 38.6986,91.0125Z"/>
<path
 fill="none" stroke="#000000" stroke-width="1.44" stroke-linecap="butt" stroke-linejoin="miter"
 d="M 45.7921 88.32 L 49.6801 88.32 "/>
<path
 fill="#d7efc5" stroke="none"
 d="M 38.6986 78.0675 L 38.6986,78.0675L 56.7736,78.0675L 56.7736,83.4525L 38.6986,83.4525Z"/>
<path
 fill="none" stroke="#000000" stroke-width="1.44" stroke-linecap="butt" stroke-linejoin="miter"
 d="M 45.7921 80.76 L 49.6801 80.76 "/>
<path
 fill="#d7efc5" stroke="none"
 d="M 67.465 189.069 L 67.465,189.069L 67.465,206.694L 61.63,206.694L 61.63,189.069Z"/>
<path
 fill="none" stroke="#000000" stroke-width="1.44" stroke-linecap="butt" stroke-linejoin="miter"
 d="M 64.5475 195.937 L 64.5475 199.825 "/>
<path
 fill="#d7efc5" stroke="none"
 d="M 75.025 189.069 L 75.025,189.069L 75.025,206.694L 69.19,206.694L 69.19,189.069Z"/>
<path
 fill="none" stroke="#000000" stroke-width="1.44" stroke-linecap="butt" stroke-linejoin="miter"
 d="M 72.1075 195.937 L 72.1075 199.825 "/>
<path
 fill="none" stroke="#5c5c5c" stroke-width="0.5" stroke-linecap="butt" stroke-linejoin="miter"
 d=""/>
<path
 fill="none" stroke="#5c5c5c" stroke-width="0.5" stroke-linecap="butt" stroke-linejoin="miter"
 d=""/>
<path
 fill="none" stroke="#5c5c5c" stroke-width="0.5" stroke-linecap="butt" stroke-linejoin="miter"
 d=""/>
<path
 fill="none" stroke="#5c5c5c" stroke-width="0.5" stroke-linecap="butt" stroke-linejoin="miter"
 d=""/>
<path
 fill="none" stroke="#5c5c5c" stroke-width="0.5" stroke-linecap="butt" stroke-linejoin="miter"
 d=""/>
<path
 fill="none" stroke="#5c5c5c" stroke-width="0.5" stroke-linecap="butt" stroke-linejoin="miter"
 d="M 22.8712 150.929 A 16.4686,16.4686 0 0,1 37.5754,129.598"/>
<path
 fill="none" stroke="#5c5c5c" stroke-width="0.5" stroke-linecap="butt" stroke-linejoin="miter"
 d=""/>
<path
 fill="none" stroke="#5c5c5c" stroke-width="0.5" stroke-linecap="butt" stroke-linejoin="miter"
 d=""/>
<path
 fill="none" stroke="#5c5c5c" stroke-width="0.5" stroke-linecap="butt" stroke-linejoin="miter"
 d=""/>
<path
 fill="none" stroke="#5c5c5c" stroke-width="0.5" stroke-linecap="butt" stroke-linejoin="miter"
 d=""/>
<path
 fill="none" stroke="#5c5c5c" stroke-width="0.5" stroke-linecap="butt" stroke-linejoin="miter"
 d=""/>
<path
 fill="none" stroke="#5c5c5c" stroke-width="0.5" stroke-linecap="butt" stroke-linejoin="miter"
 d=""/>
<path
 fill="none" stroke="#5c5c5c" stroke-width="0.5" stroke-linecap="butt" stroke-linejoin="miter"
 d=""/>
<path
 fill="none" stroke="#5c5c5c" stroke-width="0.5" stroke-linecap="butt" stroke-linejoin="miter"
 d=""/>
<path
 fill="none" stroke="#5c5c5c" stroke-width="0.5" stroke-linecap="butt" stroke-linejoin="miter"
 d=""/>
<path
 fill="none" stroke="#5c5c5c" stroke-width="0.5" stroke-linecap="butt" stroke-linejoin="miter"
 d=""/>
<path
 fill="none" stroke="#5c5c5c" stroke-width="0.5" stroke-linecap="butt" stroke-linejoin="miter"
 d=""/>
<path
 fill="none" stroke="#5c5c5c" stroke-width="0.5" stroke-linecap="butt" stroke-linejoin="miter"
 d=""/>
<path
 fill="none" stroke="#5c5c5c" stroke-width="0.5" stroke-linecap="butt" stroke-linejoin="miter"
 d=""/>
<path
 fill="none" stroke="#5c5c5c" stroke-width="0.5" stroke-linecap="butt" stroke-linejoin="miter"
 d=""/>
<path
 fill="none" stroke="#5c5c5c" stroke-width="0.5" stroke-linecap="butt" stroke-linejoin="miter"
 d=""/>
<path
 fill="none" stroke="#5c5c5c" stroke-width="0.5" stroke-linecap="butt" stroke-linejoin="miter"
 d=""/>
<path
 fill="none" stroke="#5c5c5c" stroke-width="0.5" stroke-linecap="butt" stroke-linejoin="miter"
 d=""/>
<path
 fill="none" stroke="#5c5c5c" stroke-width="0.5" stroke-linecap="butt" stroke-linejoin="miter"
 d=""/>
<path
 fill="none" stroke="#5c5c5c" stroke-width="0.5" stroke-linecap="butt" stroke-linejoin="miter"
 d=""/>
<path
 fill="none" stroke="#5c5c5c" stroke-width="0.5" stroke-linecap="butt" stroke-linejoin="miter"
 d=""/>
<path
 fill="none" stroke="#5c5c5c" stroke-width="0.5" stroke-linecap="butt" stroke-linejoin="miter"
 d=""/>
<path
 fill="none" stroke="#5c5c5c" stroke-width="0.5" stroke-linecap="butt" stroke-linejoin="miter"
 d=""/>
<path
 fill="none" stroke="#5c5c5c" stroke-width="0.5" stroke-linecap="butt" stroke-linejoin="miter"
 d=""/>
<path
 fill="none" stroke="#5c5c5c" stroke-width="0.5" stroke-linecap="butt" stroke-linejoin="miter"
 d=""/>
<path
 fill="none" stroke="#5c5c5c" stroke-width="0.5" stroke-linecap="butt" stroke-linejoin="miter"
 d=""/>
<path
 fill="none" stroke="#5c5c5c" stroke-width="0.5" stroke-linecap="butt" stroke-linejoin="miter"
 d=""/>
<path
 fill="none" stroke="#5c5c5c" stroke-width="0.5" stroke-linecap="butt" stroke-linejoin="miter"
 d=""/>
<path
 fill="none" stroke="#5c5c5c" stroke-width="0.5" stroke-linecap="butt" stroke-linejoin="miter"
 d=""/>
<path
 fill="none" stroke="#5c5c5c" stroke-width="0.5" stroke-linecap="butt" stroke-linejoin="miter"
 d=""/>
<path
 fill="none" stroke="#5c5c5c" stroke-width="0.5" stroke-linecap="butt" stroke-linejoin="miter"
 d=""/>
<path
 fill="none" stroke="#5c5c5c" stroke-width="0.5" stroke-linecap="butt" stroke-linejoin="miter"
 d=""/>
<path
 fill="none" stroke="#5c5c5c" stroke-width="0.5" stroke-linecap="butt" stroke-linejoin="miter"
 d=""/>
<path
 fill="none" stroke="#5c5c5c" stroke-width="0.5" stroke-linecap="butt" stroke-linejoin="miter"
 d="M 101.414 176.247 A 23.8853,23.8853 0 0,1 115.175,197.881"/>
<path
 fill="none" stroke="#5c5c5c" stroke-width="0.5" stroke-linecap="butt" stroke-linejoin="miter"
 d=""/>
<path
 fill="none" stroke="#5c5c5c" stroke-width="0.5" stroke-linecap="butt" stroke-linejoin="miter"
 d="M 108.679 214.256 A 23.8853,23.8853 0 0,1 83.8286,220.571"/>
<path
 fill="none" stroke="#5c5c5c" stroke-width="0.5" stroke-linecap="butt" stroke-linejoin="miter"
 d=""/>
<path
 fill="none" stroke="#5c5c5c" stroke-width="0.5" stroke-linecap="butt" stroke-linejoin="miter"
 d=""/>
<path
 fill="none" stroke="#5c5c5c" stroke-width="0.5" stroke-linecap="butt" stroke-linejoin="miter"
 d=""/>
<path
 fill="none" stroke="#5c5c5c" stroke-width="0.5" stroke-linecap="butt" stroke-linejoin="miter"
 d=""/>
<path
 fill="none" stroke="#5c5c5c" stroke-width="0.5" stroke-linecap="butt" stroke-linejoin="miter"
 d="M 62.9518 213.127 L 62.9518 235.807 "/>
<path
 fill="none" stroke="#5c5c5c" stroke-width="0.5" stroke-linecap="butt" stroke-linejoin="miter"
 d=""/>
<path
 fill="none" stroke="#5c5c5c" stroke-width="0.5" stroke-linecap="butt" stroke-linejoin="miter"
 d=""/>
<path
 fill="none" stroke="#5c5c5c" stroke-width="0.5" stroke-linecap="butt" stroke-linejoin="miter"
 d=""/>
<path
 fill="none" stroke="#5c5c5c" stroke-width="0.5" stroke-linecap="butt" stroke-linejoin="miter"
 d=""/>
<path
 fill="none" stroke="#5c5c5c" stroke-width="0.5" stroke-linecap="butt" stroke-linejoin="miter"
 d=""/>
<path
 fill="none" stroke="#5c5c5c" stroke-width="0.5" stroke-linecap="butt" stroke-linejoin="miter"
 d=""/>
<path
 fill="none" stroke="#5c5c5c" stroke-width="0.5" stroke-linecap="butt" stroke-linejoin="miter"
 d=""/>
<path
 fill="none" stroke="#5c5c5c" stroke-width="0.5" stroke-linecap="butt" stroke-linejoin="miter"
 d=""/>
<path
 fill="none" stroke="#5c5c5c" stroke-width="0.5" stroke-linecap="butt" stroke-linejoin="miter"
 d=""/>
<path
 fill="none" stroke="#5c5c5c" stroke-width="0.5" stroke-linecap="butt" stroke-linejoin="miter"
 d=""/>
<path
 fill="none" stroke="#5c5c5c" stroke-width="0.5" stroke-linecap="butt" stroke-linejoin="miter"
 d=""/>
<path
 fill="none" stroke="#5c5c5c" stroke-width="0.5" stroke-linecap="butt" stroke-linejoin="miter"
 d=""/>
<path
 fill="none" stroke="#5c5c5c" stroke-width="0.5" stroke-linecap="butt" stroke-linejoin="miter"
 d=""/>
<path
 fill="none" stroke="#5c5c5c" stroke-width="0.5" stroke-linecap="butt" stroke-linejoin="miter"
 d=""/>
<path
 fill="none" stroke="#5c5c5c" stroke-width="0.5" stroke-linecap="butt" stroke-linejoin="miter"
 d=""/>
<path
 fill="none" stroke="#5c5c5c" stroke-width="0.5" stroke-linecap="butt" stroke-linejoin="miter"
 d=""/>
<path
 fill="none" stroke="#5c5c5c" stroke-width="0.5" stroke-linecap="butt" stroke-linejoin="miter"
 d=""/>
<path
 fill="none" stroke="#5c5c5c" stroke-width="0.5" stroke-linecap="butt" stroke-linejoin="miter"
 d=""/>
<path
 fill="none" stroke="#5c5c5c" stroke-width="0.5" stroke-linecap="butt" stroke-linejoin="miter"
 d=""/>
<path
 fill="none" stroke="#5c5c5c" stroke-width="0.5" stroke-linecap="butt" stroke-linejoin="miter"
 d=""/>
<path
 fill="none" stroke="#5c5c5c" stroke-width="0.5" stroke-linecap="butt" stroke-linejoin="miter"
 d=""/>
<path
 fill="none" stroke="#5c5c5c" stroke-width="0.5" stroke-linecap="butt" stroke-linejoin="miter"
 d=""/>
<path
 fill="none" stroke="#5c5c5c" stroke-width="0.5" stroke-linecap="butt" stroke-linejoin="miter"
 d=""/>
<path
 fill="none" stroke="#5c5c5c" stroke-width="0.5" stroke-linecap="butt" stroke-linejoin="miter"
 d=""/>
<path
 fill="none" stroke="#5c5c5c" stroke-width="0.5" stroke-linecap="butt" stroke-linejoin="miter"
 d=""/>
<path
 fill="none" stroke="#5c5c5c" stroke-width="0.5" stroke-linecap="butt" stroke-linejoin="miter"
 d=""/>
<path
 fill="none" stroke="#5c5c5c" stroke-width="0.5" stroke-linecap="butt" stroke-linejoin="miter"
 d=""/>
<path
 fill="none" stroke="#5c5c5c" stroke-width="0.5" stroke-linecap="butt" stroke-linejoin="miter"
 d=""/>
<path
 fill="none" stroke="#5c5c5c" stroke-width="0.5" stroke-linecap="butt" stroke-linejoin="miter"
 d=""/>
<path
 fill="none" stroke="#5c5c5c" stroke-width="0.5" stroke-linecap="butt" stroke-linejoin="miter"
 d=""/>
<path
 fill="none" stroke="#5c5c5c" stroke-width="0.5" stroke-linecap="butt" stroke-linejoin="miter"
 d=""/>
<path
 fill="none" stroke="#5c5c5c" stroke-width="0.5" stroke-linecap="butt" stroke-linejoin="miter"
 d=""/>
<path
 fill="none" stroke="#5c5c5c" stroke-width="0.5" stroke-linecap="butt" stroke-linejoin="miter"
 d=""/>
<path
 fill="none" stroke="#5c5c5c" stroke-width="0.5" stroke-linecap="butt" stroke-linejoin="miter"
 d=""/>
<path
 fill="none" stroke="#5c5c5c" stroke-width="0.5" stroke-linecap="butt" stroke-linejoin="miter"
 d=""/>
<path
 fill="none" stroke="#5c5c5c" stroke-width="0.5" stroke-linecap="butt" stroke-linejoin="miter"
 d=""/>
<path
 fill="none" stroke="#5c5c5c" stroke-width="0.5" stroke-linecap="butt" stroke-linejoin="miter"
 d=""/>
<path
 fill="none" stroke="#5c5c5c" stroke-width="0.5" stroke-linecap="butt" stroke-linejoin="miter"
 d=""/>
<path
 fill="none" stroke="#5c5c5c" stroke-width="0.5" stroke-linecap="butt" stroke-linejoin="miter"
 d=""/>
<path
 fill="none" stroke="#5c5c5c" stroke-width="0.5" stroke-linecap="butt" stroke-linejoin="miter"
 d=""/>
<path
 fill="none" stroke="#5c5c5c" stroke-width="0.5" stroke-linecap="butt" stroke-linejoin="miter"
 d=""/>
<path
 fill="none" stroke="#5c5c5c" stroke-width="0.5" stroke-linecap="butt" stroke-linejoin="miter"
 d=""/>
<path
 fill="none" stroke="#5c5c5c" stroke-width="0.5" stroke-linecap="butt" stroke-linejoin="miter"
 d=""/>
<path
 fill="none" stroke="#5c5c5c" stroke-width="0.5" stroke-linecap="butt" stroke-linejoin="miter"
 d=""/>
<path
 fill="none" stroke="#5c5c5c" stroke-width="0.5" stroke-linecap="butt" stroke-linejoin="miter"
 d=""/>
<path
 fill="none" stroke="#5c5c5c" stroke-width="0.5" stroke-linecap="butt" stroke-linejoin="miter"
 d=""/>
<path
 fill="none" stroke="#5c5c5c" stroke-width="0.5" stroke-linecap="butt" stroke-linejoin="miter"
 d=""/>
<path
 fill="none" stroke="#5c5c5c" stroke-width="0.5" stroke-linecap="butt" stroke-linejoin="miter"
 d=""/>
<path
 fill="none" stroke="#5c5c5c" stroke-width="0.5" stroke-linecap="butt" stroke-linejoin="miter"
 d=""/>
<path
 fill="none" stroke="#5c5c5c" stroke-width="0.5" stroke-linecap="butt" stroke-linejoin="miter"
 d=""/>
<path
 fill="none" stroke="#5c5c5c" stroke-width="0.5" stroke-linecap="butt" stroke-linejoin="miter"
 d=""/>
<path
 fill="none" stroke="#5c5c5c" stroke-width="0.5" stroke-linecap="butt" stroke-linejoin="miter"
 d=""/>
<path
 fill="none" stroke="#5c5c5c" stroke-width="0.5" stroke-linecap="butt" stroke-linejoin="miter"
 d=""/>
<path
 fill="none" stroke="#5c5c5c" stroke-width="0.5" stroke-linecap="butt" stroke-linejoin="miter"
 d=""/>
<path
 fill="none" stroke="#5c5c5c" stroke-width="0.5" stroke-linecap="butt" stroke-linejoin="miter"
 d=""/>
<path
 fill="none" stroke="#5c5c5c" stroke-width="0.5" stroke-linecap="butt" stroke-linejoin="miter"
 d=""/>
<path
 fill="none" stroke="#5c5c5c" stroke-width="0.5" stroke-linecap="butt" stroke-linejoin="miter"
 d=""/>
<path
 fill="none" stroke="#5c5c5c" stroke-width="0.5" stroke-linecap="butt" stroke-linejoin="miter"
 d=""/>
<path
 fill="#807b88" stroke="#000000" stroke-width="0.72" stroke-linecap="butt" stroke-linejoin="miter"
 d="M 44.1736 181.07 A 2.5575,2.5575 0 0,1 39.0586,181.07A 2.5575,2.5575 0 0,1 44.1736,181.07Z"/>
<text x="38.6986" y="176.202" id="text1018">
  <tspan x="38.6986" y="176.202" fill="#807b88"  font-variant="normal" font-weight="normal" font-style="normal" font-family="Bitstream Vera Sans" font-size="7.5" id="tspan1019">G</tspan>
</text>
<text x="39.1148" y="168.642" id="text1020">
  <tspan x="39.1148" y="168.642" fill="#807b88"  font-variant="normal" font-weight="normal" font-style="normal" font-family="Bitstream Vera Sans" font-size="7.5" id="tspan1021">Y</tspan>
</text>
<path
 fill="#807b88" stroke="#000000" stroke-width="0.72" stroke-linecap="butt" stroke-linejoin="miter"
 d="M 44.1736 158.39 A 2.5575,2.5575 0 0,1 39.0586,158.39A 2.5575,2.5575 0 0,1 44.1736,158.39Z"/>
<text x="31.1531" y="160.614" id="text1022">
  <tspan x="31.1531" y="160.614" fill="#d90000"  font-variant="normal" font-weight="normal" font-style="normal" font-family="Bitstream Vera Sans" font-size="7.5" id="tspan1023">G</tspan>
</text>
<text x="25.6227" y="155.946" id="text1024">
  <tspan x="25.6227" y="155.946" fill="#d90000"  font-variant="normal" font-weight="normal" font-style="normal" font-family="Bitstream Vera Sans" font-size="7.5" id="tspan1025">A</tspan>
</text>
<path
 fill="#d90000" stroke="#000000" stroke-width="0.72" stroke-linecap="butt" stroke-linejoin="miter"
 d="M 28.4346 146.035 A 2.5575,2.5575 0 0,1 23.3196,146.035A 2.5575,2.5575 0 0,1 28.4346,146.035Z"/>
<path
 fill="#d90000" stroke="#000000" stroke-width="0.72" stroke-linecap="butt" stroke-linejoin="miter"
 d="M 30.6814 138.816 A 2.5575,2.5575 0 0,1 25.5664,138.816A 2.5575,2.5575 0 0,1 30.6814,138.816Z"/>
<text x="31.1531" y="136.841" id="text1026">
  <tspan x="31.1531" y="136.841" fill="#807b88"  font-variant="normal" font-weight="normal" font-style="normal" font-family="Bitstream Vera Sans" font-size="7.5" id="tspan1027">G</tspan>
</text>
<path
 fill="#d90000" stroke="#000000" stroke-width="0.72" stroke-linecap="butt" stroke-linejoin="miter"
 d="M 44.1736 133.68 A 2.5575,2.5575 0 0,1 39.0586,133.68A 2.5575,2.5575 0 0,1 44.1736,133.68Z"/>
<path
 fill="#000000" stroke="#000000" stroke-width="0.72" stroke-linecap="butt" stroke-linejoin="miter"
 d="M 44.1736 126.12 A 2.5575,2.5575 0 0,1 39.0586,126.12A 2.5575,2.5575 0 0,1 44.1736,126.12Z"/>
<path
 fill="#d90000" stroke="#000000" stroke-width="0.72" stroke-linecap="butt" stroke-linejoin="miter"
 d="M 44.1736 118.56 A 2.5575,2.5575 0 0,1 39.0586,118.56A 2.5575,2.5575 0 0,1 44.1736,118.56Z"/>
<path
 fill="#d90000" stroke="#000000" stroke-width="0.72" stroke-linecap="butt" stroke-linejoin="miter"
 d="M 44.1736 111 A 2.5575,2.5575 0 0,1 39.0586,111A 2.5575,2.5575 0 0,1 44.1736,111Z"/>
<path
 fill="#d90000" stroke="#000000" stroke-width="0.72" stroke-linecap="butt" stroke-linejoin="miter"
 d="M 44.1736 103.44 A 2.5575,2.5575 0 0,1 39.0586,103.44A 2.5575,2.5575 0 0,1 44.1736,103.44Z"/>
<path
 fill="#000000" stroke="#000000" stroke-width="0.72" stroke-linecap="butt" stroke-linejoin="miter"
 d="M 44.1736 95.88 A 2.5575,2.5575 0 0,1 39.0586,95.88A 2.5575,2.5575 0 0,1 44.1736,95.88Z"/>
<path
 fill="#807b88" stroke="#000000" stroke-width="0.72" stroke-linecap="butt" stroke-linejoin="miter"
 d="M 44.1736 88.32 A 2.5575,2.5575 0 0,1 39.0586,88.32A 2.5575,2.5575 0 0,1 44.1736,88.32Z"/>
<path
 fill="#ffffff" stroke="#000000" stroke-width="0.72" stroke-linecap="butt" stroke-linejoin="miter"
 d="M 44.1736 80.76 A 2.5575,2.5575 0 0,1 39.0586,80.76A 2.5575,2.5575 0 0,1 44.1736,80.76Z"/>
<path
 fill="#000000" stroke="#000000" stroke-width="0.72" stroke-linecap="butt" stroke-linejoin="miter"
 d="M 42.0009 73.5189 A 2.5575,2.5575 0 0,1 36.8859,73.5189A 2.5575,2.5575 0 0,1 42.0009,73.5189Z"/>
<path
 fill="#d90000" stroke="#000000" stroke-width="0.72" stroke-linecap="butt" stroke-linejoin="miter"
 d="M 46.5136 67.4535 A 2.5575,2.5575 0 0,1 41.3986,67.4535A 2.5575,2.5575 0 0,1 46.5136,67.4535Z"/>
<path
 fill="#d90000" stroke="#000000" stroke-width="0.72" stroke-linecap="butt" stroke-linejoin="miter"
 d="M 54.0736 67.4535 A 2.5575,2.5575 0 0,1 48.9586,67.4535A 2.5575,2.5575 0 0,1 54.0736,67.4535Z"/>
<path
 fill="#000000" stroke="#000000" stroke-width="0.72" stroke-linecap="butt" stroke-linejoin="miter"
 d="M 58.5862 73.5189 A 2.5575,2.5575 0 0,1 53.4712,73.5189A 2.5575,2.5575 0 0,1 58.5862,73.5189Z"/>
<path
 fill="#807b88" stroke="#000000" stroke-width="0.72" stroke-linecap="butt" stroke-linejoin="miter"
 d="M 56.4136 80.76 A 2.5575,2.5575 0 0,1 51.2986,80.76A 2.5575,2.5575 0 0,1 56.4136,80.76Z"/>
<path
 fill="#807b88" stroke="#000000" stroke-width="0.72" stroke-linecap="butt" stroke-linejoin="miter"
 d="M 56.4136 88.32 A 2.5575,2.5575 0 0,1 51.2986,88.32A 2.5575,2.5575 0 0,1 56.4136,88.32Z"/>
<path
 fill="#000000" stroke="#000000" stroke-width="0.72" stroke-linecap="butt" stroke-linejoin="miter"
 d="M 56.4136 95.88 A 2.5575,2.5575 0 0,1 51.2986,95.88A 2.5575,2.5575 0 0,1 56.4136,95.88Z"/>
<path
 fill="#d90000" stroke="#000000" stroke-width="0.72" stroke-linecap="butt" stroke-linejoin="miter"
 d="M 56.4136 103.44 A 2.5575,2.5575 0 0,1 51.2986,103.44A 2.5575,2.5575 0 0,1 56.4136,103.44Z"/>
<path
 fill="#d90000" stroke="#000000" stroke-width="0.72" stroke-linecap="butt" stroke-linejoin="miter"
 d="M 56.4136 111 A 2.5575,2.5575 0 0,1 51.2986,111A 2.5575,2.5575 0 0,1 56.4136,111Z"/>
<path
 fill="#d90000" stroke="#000000" stroke-width="0.72" stroke-linecap="butt" stroke-linejoin="miter"
 d="M 56.4136 118.56 A 2.5575,2.5575 0 0,1 51.2986,118.56A 2.5575,2.5575 0 0,1 56.4136,118.56Z"/>
<path
 fill="#000000" stroke="#000000" stroke-width="0.72" stroke-linecap="butt" stroke-linejoin="miter"
 d="M 56.4136 126.12 A 2.5575,2.5575 0 0,1 51.2986,126.12A 2.5575,2.5575 0 0,1 56.4136,126.12Z"/>
<path
 fill="#d90000" stroke="#000000" stroke-width="0.72" stroke-linecap="butt" stroke-linejoin="miter"
 d="M 56.4136 133.68 A 2.5575,2.5575 0 0,1 51.2986,133.68A 2.5575,2.5575 0 0,1 56.4136,133.68Z"/>
<text x="56.7434" y="141.457" id="text1028">
  <tspan x="56.7434" y="141.457" fill="#d90000"  font-variant="normal" font-weight="normal" font-style="normal" font-family="Bitstream Vera Sans" font-size="7.5" id="tspan1029">U</tspan>
</text>
<text x="59.0223" y="148.727" id="text1030">
  <tspan x="59.0223" y="148.727" fill="#d90000"  font-variant="normal" font-weight="normal" font-style="normal" font-family="Bitstream Vera Sans" font-size="7.5" id="tspan1031">A</tspan>
</text>
<text x="56.9497" y="155.998" id="text1032">
  <tspan x="56.9497" y="155.998" fill="#d90000"  font-variant="normal" font-weight="normal" font-style="normal" font-family="Bitstream Vera Sans" font-size="7.5" id="tspan1033">A</tspan>
</text>
<path
 fill="#807b88" stroke="#000000" stroke-width="0.72" stroke-linecap="butt" stroke-linejoin="miter"
 d="M 56.4136 158.39 A 2.5575,2.5575 0 0,1 51.2986,158.39A 2.5575,2.5575 0 0,1 56.4136,158.39Z"/>
<text x="51.1486" y="168.642" id="text1034">
  <tspan x="51.1486" y="168.642" fill="#807b88"  font-variant="normal" font-weight="normal" font-style="normal" font-family="Bitstream Vera Sans" font-size="7.5" id="tspan1035">R</tspan>
</text>
<text x="51.1486" y="176.202" id="text1036">
  <tspan x="51.1486" y="176.202" fill="#807b88"  font-variant="normal" font-weight="normal" font-style="normal" font-family="Bitstream Vera Sans" font-size="7.5" id="tspan1037">C</tspan>
</text>
<path
 fill="#807b88" stroke="#000000" stroke-width="0.72" stroke-linecap="butt" stroke-linejoin="miter"
 d="M 56.4136 181.07 A 2.5575,2.5575 0 0,1 51.2986,181.07A 2.5575,2.5575 0 0,1 56.4136,181.07Z"/>
<text x="61.84" y="194.454" id="text1038">
  <tspan x="61.84" y="194.454" fill="#000000"  font-variant="normal" font-weight="normal" font-style="normal" font-family="Bitstream Vera Sans" font-size="7.5" id="tspan1039">R</tspan>
</text>
<text x="69.4" y="194.454" id="text1040">
  <tspan x="69.4" y="194.454" fill="#807b88"  font-variant="normal" font-weight="normal" font-style="normal" font-family="Bitstream Vera Sans" font-size="7.5" id="tspan1041">C</tspan>
</text>
<text x="73.0091" y="187.811" id="text1042">
  <tspan x="73.0091" y="187.811" fill="#807b88"  font-variant="normal" font-weight="normal" font-style="normal" font-family="Bitstream Vera Sans" font-size="7.5" id="tspan1043">R</tspan>
</text>
<text x="78.8136" y="182.967" id="text1044">
  <tspan x="78.8136" y="182.967" fill="#807b88"  font-variant="normal" font-weight="normal" font-style="normal" font-family="Bitstream Vera Sans" font-size="7.5" id="tspan1045">R</tspan>
</text>
<path
 fill="#d90000" stroke="#000000" stroke-width="0.72" stroke-linecap="butt" stroke-linejoin="miter"
 d="M 91.2602 177.913 A 2.5575,2.5575 0 0,1 86.1452,177.913A 2.5575,2.5575 0 0,1 91.2602,177.913Z"/>
<path
 fill="#ffffff" stroke="#000000" stroke-width="0.72" stroke-linecap="butt" stroke-linejoin="miter"
 d="M 98.8066 178.366 A 2.5575,2.5575 0 0,1 93.6916,178.366A 2.5575,2.5575 0 0,1 98.8066,178.366Z"/>
<path
 fill="#d90000" stroke="#000000" stroke-width="0.72" stroke-linecap="butt" stroke-linejoin="miter"
 d="M 105.654 181.57 A 2.5575,2.5575 0 0,1 100.539,181.57A 2.5575,2.5575 0 0,1 105.654,181.57Z"/>
<text x="105.778" y="189.766" id="text1046">
  <tspan x="105.778" y="189.766" fill="#807b88"  font-variant="normal" font-weight="normal" font-style="normal" font-family="Bitstream Vera Sans" font-size="7.5" id="tspan1047">Y</tspan>
</text>
<text x="108.36" y="196.794" id="text1048">
  <tspan x="108.36" y="196.794" fill="#807b88"  font-variant="normal" font-weight="normal" font-style="normal" font-family="Bitstream Vera Sans" font-size="7.5" id="tspan1049">R</tspan>
</text>
<text x="108.15" y="204.354" id="text1050">
  <tspan x="108.15" y="204.354" fill="#d90000"  font-variant="normal" font-weight="normal" font-style="normal" font-family="Bitstream Vera Sans" font-size="7.5" id="tspan1051">G</tspan>
</text>
<text x="105.572" y="211.381" id="text1052">
  <tspan x="105.572" y="211.381" fill="#d90000"  font-variant="normal" font-weight="normal" font-style="normal" font-family="Bitstream Vera Sans" font-size="7.5" id="tspan1053">U</tspan>
</text>
<text x="100.389" y="216.884" id="text1054">
  <tspan x="100.389" y="216.884" fill="#807b88"  font-variant="normal" font-weight="normal" font-style="normal" font-family="Bitstream Vera Sans" font-size="7.5" id="tspan1055">C</tspan>
</text>
<path
 fill="#d90000" stroke="#000000" stroke-width="0.72" stroke-linecap="butt" stroke-linejoin="miter"
 d="M 98.8066 217.396 A 2.5575,2.5575 0 0,1 93.6916,217.396A 2.5575,2.5575 0 0,1 98.8066,217.396Z"/>
<path
 fill="#d90000" stroke="#000000" stroke-width="0.72" stroke-linecap="butt" stroke-linejoin="miter"
 d="M 91.2602 217.849 A 2.5575,2.5575 0 0,1 86.1452,217.849A 2.5575,2.5575 0 0,1 91.2602,217.849Z"/>
<text x="79.0198" y="218.18" id="text1056">
  <tspan x="79.0198" y="218.18" fill="#d90000"  font-variant="normal" font-weight="normal" font-style="normal" font-family="Bitstream Vera Sans" font-size="7.5" id="tspan1057">A</tspan>
</text>
<text x="73.2154" y="213.336" id="text1058">
  <tspan x="73.2154" y="213.336" fill="#d90000"  font-variant="normal" font-weight="normal" font-style="normal" font-family="Bitstream Vera Sans" font-size="7.5" id="tspan1059">A</tspan>
</text>
<text x="69.19" y="206.694" id="text1060">
  <tspan x="69.19" y="206.694" fill="#807b88"  font-variant="normal" font-weight="normal" font-style="normal" font-family="Bitstream Vera Sans" font-size="7.5" id="tspan1061">G</tspan>
</text>
<text x="62.0463" y="206.694" id="text1062">
  <tspan x="62.0463" y="206.694" fill="#000000"  font-variant="normal" font-weight="normal" font-style="normal" font-family="Bitstream Vera Sans" font-size="7.5" id="tspan1063">Y</tspan>
</text>
<text x="56.4943" y="212.039" id="text1064">
  <tspan x="56.4943" y="212.039" fill="#d90000"  font-variant="normal" font-weight="normal" font-style="normal" font-family="Bitstream Vera Sans" font-size="7.5" id="tspan1065">C</tspan>
</text>
<text x="56.7006" y="219.599" id="text1066">
  <tspan x="56.7006" y="219.599" fill="#807b88"  font-variant="normal" font-weight="normal" font-style="normal" font-family="Bitstream Vera Sans" font-size="7.5" id="tspan1067">Y</tspan>
</text>
<text x="56.4943" y="227.159" id="text1068">
  <tspan x="56.4943" y="227.159" fill="#807b88"  font-variant="normal" font-weight="normal" font-style="normal" font-family="Bitstream Vera Sans" font-size="7.5" id="tspan1069">R</tspan>
</text>
<path
 fill="#d90000" stroke="#000000" stroke-width="0.72" stroke-linecap="butt" stroke-linejoin="miter"
 d="M 61.7593 232.027 A 2.5575,2.5575 0 0,1 56.6443,232.027A 2.5575,2.5575 0 0,1 61.7593,232.027Z"/>
<path
 fill="none" stroke="#000000" stroke-width="0.72" stroke-linecap="butt" stroke-linejoin="miter"
 d="M 41.6161 184.633 A 1.78191,1.78191 0 0,1 39.8342,186.415L 36.2704 186.415 "/>
<path
 fill="none" stroke="#000000" stroke-width="0.5" stroke-linecap="butt" stroke-linejoin="miter"
 d="M 25.0364 136.688 L 21.743 134.418 "/>
<path
 fill="none" stroke="#000000" stroke-width="0.5" stroke-linecap="butt" stroke-linejoin="miter"
 d="M 111.444 185.061 L 114.819 182.914 "/>
<path
 fill="none" stroke="#000000" stroke-width="0.5" stroke-linecap="butt" stroke-linejoin="miter"
 d="M 97.1727 221.031 L 98.1578 224.907 "/>
<path
 fill="none" stroke="#000000" stroke-width="0.5" stroke-linecap="butt" stroke-linejoin="miter"
 d="M 62.9518 224.467 L 66.9518 224.467 "/>
<text x="7.5" y="132.325" id="text1070">
  <tspan x="7.5" y="132.325" fill="#000000"  font-variant="normal" font-weight="normal" font-style="normal" font-family="Bitstream Vera Sans" font-size="6" id="tspan1071">pk_1</tspan>
</text>
<text x="116.084" y="180.867" id="text1072">
  <tspan x="116.084" y="180.867" fill="#000000"  font-variant="normal" font-weight="normal" font-style="normal" font-family="Bitstream Vera Sans" font-size="6" id="tspan1073">pk_2</tspan>
</text>
<text x="92.0232" y="230.669" id="text1074">
  <tspan x="92.0232" y="230.669" fill="#000000"  font-variant="normal" font-weight="normal" font-style="normal" font-family="Bitstream Vera Sans" font-size="6" id="tspan1075">pk_1</tspan>
</text>
<text x="68.4518" y="226" id="text1076">
  <tspan x="68.4518" y="226" fill="#000000"  font-variant="normal" font-weight="normal" font-style="normal" font-family="Bitstream Vera Sans" font-size="6" id="tspan1077">pk_2</tspan>
</text>
<text x="29.1679" y="189.108" id="text1078">
  <tspan x="29.1679" y="189.108" fill="#000000"  font-variant="normal" font-weight="normal" font-style="normal" font-family="Bitstream Vera Sans" font-size="7.5" id="tspan1079">5&apos;</tspan>
</text>
</svg>
