<svg
   xmlns:svg="http://www.w3.org/2000/svg"
   xmlns="http://www.w3.org/2000/svg"
   xmlns:xlink="http://www.w3.org/1999/xlink"
   version="1.0"
   width="186.673"
   height="201.494"
   id="svg2403"
   xml:space="preserve">
<text x="0" y="8.616" id="text1000">
  <tspan x="0" y="8.616" fill="#000000"  font-variant="normal" font-weight="normal" font-style="normal" font-family="Bitstream Vera Sans" font-size="12" id="tspan1001">pk_1</tspan>
</text>
<path
 fill="#d7efc5" stroke="none"
 d="M 8.5825 19.6875 L 8.5825,19.6875L 26.6575,19.6875L 26.6575,25.0725L 8.5825,25.0725Z"/>
<path
 fill="none" stroke="#000000" stroke-width="1.44" stroke-linecap="butt" stroke-linejoin="miter"
 d="M 15.676 22.38 L 19.564 22.38 "/>
<path
 fill="#d7efc5" stroke="none"
 d="M 8.5825 27.2475 L 8.5825,27.2475L 26.6575,27.2475L 26.6575,32.6325L 8.5825,32.6325Z"/>
<path
 fill="none" stroke="#000000" stroke-width="1.44" stroke-linecap="butt" stroke-linejoin="miter"
 d="M 15.676 29.94 L 19.564 29.94 "/>
<path
 fill="#d7efc5" stroke="none"
 d="M 8.5825 34.8075 L 8.5825,34.8075L 26.6575,34.8075L 26.6575,40.1925L 8.5825,40.1925Z"/>
<path
 fill="none" stroke="#000000" stroke-width="1.44" stroke-linecap="butt" stroke-linejoin="miter"
 d="M 15.676 37.5 L 19.564 37.5 "/>
<path
 fill="#d7efc5" stroke="none"
 d="M 8.5825 42.3675 L 8.5825,42.3675L 26.6575,42.3675L 26.6575,47.7525L 8.5825,47.7525Z"/>
<path
 fill="none" stroke="#000000" stroke-width="1.44" stroke-linecap="butt" stroke-linejoin="miter"
 d="M 15.676 45.06 L 19.564 45.06 "/>
<path
 fill="#d7efc5" stroke="none"
 d="M 8.5825 49.9275 L 8.5825,49.9275L 26.6575,49.9275L 26.6575,55.3125L 8.5825,55.3125Z"/>
<path
 fill="none" stroke="#000000" stroke-width="1.44" stroke-linecap="butt" stroke-linejoin="miter"
 d="M 15.676 52.62 L 19.564 52.62 "/>
<path
 fill="#d7efc5" stroke="none"
 d="M 8.5825 57.4875 L 8.5825,57.4875L 26.6575,57.4875L 26.6575,62.8725L 8.5825,62.8725Z"/>
<path
 fill="none" stroke="#000000" stroke-width="1.44" stroke-linecap="butt" stroke-linejoin="miter"
 d="M 15.676 60.18 L 19.564 60.18 "/>
<path
 fill="none" stroke="#5c5c5c" stroke-width="0.5" stroke-linecap="butt" stroke-linejoin="miter"
 d="M 7.75 18.6 L 7.75 63.96 "/>
<path
 fill="none" stroke="#5c5c5c" stroke-width="0.5" stroke-linecap="butt" stroke-linejoin="miter"
 d="M 27.49 63.96 L 27.49 18.6 "/>
<path
 fill="none" stroke="#5c5c5c" stroke-width="0.5" stroke-linecap="butt" stroke-linejoin="miter"
 d=""/>
<path
 fill="none" stroke="#5c5c5c" stroke-width="0.5" stroke-linecap="butt" stroke-linejoin="miter"
 d=""/>
<path
 fill="none" stroke="#5c5c5c" stroke-width="0.5" stroke-linecap="butt" stroke-linejoin="miter"
 d=""/>
<path
 fill="none" stroke="#5c5c5c" stroke-width="0.5" stroke-linecap="butt" stroke-linejoin="miter"
 d=""/>
<path
 fill="none" stroke="#5c5c5c" stroke-width="0.5" stroke-linecap="butt" stroke-linejoin="miter"
 d=""/>
<path
 fill="none" stroke="#5c5c5c" stroke-width="0.5" stroke-linecap="butt" stroke-linejoin="miter"
 d=""/>
<path
 fill="none" stroke="#5c5c5c" stroke-width="0.5" stroke-linecap="butt" stroke-linejoin="miter"
 d=""/>
<path
 fill="none" stroke="#5c5c5c" stroke-width="0.5" stroke-linecap="butt" stroke-linejoin="miter"
 d=""/>
<path
 fill="none" stroke="#5c5c5c" stroke-width="0.5" stroke-linecap="butt" stroke-linejoin="miter"
 d=""/>
<path
 fill="none" stroke="#5c5c5c" stroke-width="0.5" stroke-linecap="butt" stroke-linejoin="miter"
 d=""/>
<path
 fill="none" stroke="#5c5c5c" stroke-width="0.5" stroke-linecap="butt" stroke-linejoin="miter"
 d=""/>
<path
 fill="none" stroke="#5c5c5c" stroke-width="0.5" stroke-linecap="butt" stroke-linejoin="miter"
 d=""/>
<text x="8.7925" y="25.0725" id="text1002">
  <tspan x="8.7925" y="25.0725" fill="#807b88"  font-variant="normal" font-weight="normal" font-style="normal" font-family="Bitstream Vera Sans" font-size="7.5" id="tspan1003">C</tspan>
</text>
<text x="8.7925" y="32.6325" id="text1004">
  <tspan x="8.7925" y="32.6325" fill="#807b88"  font-variant="normal" font-weight="normal" font-style="normal" font-family="Bitstream Vera Sans" font-size="7.5" id="tspan1005">C</tspan>
</text>
<text x="8.99875" y="40.1925" id="text1006">
  <tspan x="8.99875" y="40.1925" fill="#000000"  font-variant="normal" font-weight="normal" font-style="normal" font-family="Bitstream Vera Sans" font-size="7.5" id="tspan1007">Y</tspan>
</text>
<text x="8.99875" y="47.7525" id="text1008">
  <tspan x="8.99875" y="47.7525" fill="#807b88"  font-variant="normal" font-weight="normal" font-style="normal" font-family="Bitstream Vera Sans" font-size="7.5" id="tspan1009">Y</tspan>
</text>
<path
 fill="#000000" stroke="#000000" stroke-width="0.72" stroke-linecap="butt" stroke-linejoin="miter"
 d="M 14.0575 52.62 A 2.5575,2.5575 0 0,1 8.9425,52.62A 2.5575,2.5575 0 0,1 14.0575,52.62Z"/>
<path
 fill="#ffffff" stroke="#000000" stroke-width="0.72" stroke-linecap="butt" stroke-linejoin="miter"
 d="M 14.0575 60.18 A 2.5575,2.5575 0 0,1 8.9425,60.18A 2.5575,2.5575 0 0,1 14.0575,60.18Z"/>
<path
 fill="#807b88" stroke="#000000" stroke-width="0.72" stroke-linecap="butt" stroke-linejoin="miter"
 d="M 26.2975 60.18 A 2.5575,2.5575 0 0,1 21.1825,60.18A 2.5575,2.5575 0 0,1 26.2975,60.18Z"/>
<path
 fill="#d90000" stroke="#000000" stroke-width="0.72" stroke-linecap="butt" stroke-linejoin="miter"
 d="M 26.2975 52.62 A 2.5575,2.5575 0 0,1 21.1825,52.62A 2.5575,2.5575 0 0,1 26.2975,52.62Z"/>
<text x="21.0325" y="47.7525" id="text1010">
  <tspan x="21.0325" y="47.7525" fill="#807b88"  font-variant="normal" font-weight="normal" font-style="normal" font-family="Bitstream Vera Sans" font-size="7.5" id="tspan1011">R</tspan>
</text>
<text x="21.0325" y="40.1925" id="text1012">
  <tspan x="21.0325" y="40.1925" fill="#000000"  font-variant="normal" font-weight="normal" font-style="normal" font-family="Bitstream Vera Sans" font-size="7.5" id="tspan1013">R</tspan>
</text>
<text x="20.8225" y="32.6325" id="text1014">
  <tspan x="20.8225" y="32.6325" fill="#807b88"  font-variant="normal" font-weight="normal" font-style="normal" font-family="Bitstream Vera Sans" font-size="7.5" id="tspan1015">G</tspan>
</text>
<text x="21.0325" y="25.0725" id="text1016">
  <tspan x="21.0325" y="25.0725" fill="#807b88"  font-variant="normal" font-weight="normal" font-style="normal" font-family="Bitstream Vera Sans" font-size="7.5" id="tspan1017">R</tspan>
</text>
<text x="0" y="80.076" id="text1018">
  <tspan x="0" y="80.076" fill="#000000"  font-variant="normal" font-weight="normal" font-style="normal" font-family="Bitstream Vera Sans" font-size="12" id="tspan1019">rnamrf</tspan>
</text>
<path
 fill="#d7efc5" stroke="none"
 d="M 56.6094 183.263 L 56.6094,183.263L 74.6844,183.263L 74.6844,188.648L 56.6094,188.648Z"/>
<path
 fill="none" stroke="#000000" stroke-width="1.44" stroke-linecap="butt" stroke-linejoin="miter"
 d="M 63.7029 185.956 L 67.5909 185.956 "/>
<path
 fill="#d7efc5" stroke="none"
 d="M 56.6094 175.703 L 56.6094,175.703L 74.6844,175.703L 74.6844,181.088L 56.6094,181.088Z"/>
<path
 fill="none" stroke="#000000" stroke-width="1.44" stroke-linecap="butt" stroke-linejoin="miter"
 d="M 63.7029 178.396 L 67.5909 178.396 "/>
<path
 fill="#d7efc5" stroke="none"
 d="M 56.6094 168.143 L 56.6094,168.143L 74.6844,168.143L 74.6844,173.528L 56.6094,173.528Z"/>
<path
 fill="none" stroke="#000000" stroke-width="1.44" stroke-linecap="butt" stroke-linejoin="miter"
 d="M 63.7029 170.836 L 67.5909 170.836 "/>
<path
 fill="#d7efc5" stroke="none"
 d="M 56.6094 160.583 L 56.6094,160.583L 74.6844,160.583L 74.6844,165.968L 56.6094,165.968Z"/>
<path
 fill="none" stroke="#000000" stroke-width="1.44" stroke-linecap="butt" stroke-linejoin="miter"
 d="M 63.7029 163.276 L 67.5909 163.276 "/>
<path
 fill="#d7efc5" stroke="none"
 d="M 56.6094 153.023 L 56.6094,153.023L 74.6844,153.023L 74.6844,158.408L 56.6094,158.408Z"/>
<path
 fill="none" stroke="#000000" stroke-width="1.44" stroke-linecap="butt" stroke-linejoin="miter"
 d="M 63.7029 155.716 L 67.5909 155.716 "/>
<path
 fill="#d7efc5" stroke="none"
 d="M 56.6094 145.463 L 56.6094,145.463L 74.6844,145.463L 74.6844,150.848L 56.6094,150.848Z"/>
<path
 fill="none" stroke="#000000" stroke-width="1.44" stroke-linecap="butt" stroke-linejoin="miter"
 d="M 63.7029 148.156 L 67.5909 148.156 "/>
<path
 fill="#d7efc5" stroke="none"
 d="M 56.6094 137.903 L 56.6094,137.903L 74.6844,137.903L 74.6844,143.288L 56.6094,143.288Z"/>
<path
 fill="none" stroke="#000000" stroke-width="1.44" stroke-linecap="butt" stroke-linejoin="miter"
 d="M 63.7029 140.596 L 67.5909 140.596 "/>
<path
 fill="none" stroke="#000000" stroke-width="1.44" stroke-linecap="butt" stroke-linejoin="miter"
 d="M 63.7029 133.036 L 67.5909 133.036 "/>
<path
 fill="#d7efc5" stroke="none"
 d="M 41.8373 119.201 L 41.8373,119.201L 44.6286,100.967L 50.8659,101.922L 48.0746,120.156Z"/>
<path
 fill="none" stroke="#000000" stroke-width="1.44" stroke-linecap="butt" stroke-linejoin="miter"
 d="M 46.0574 112.483 L 46.6458 108.64 "/>
<path
 fill="#d7efc5" stroke="none"
 d="M 34.3643 118.057 L 34.3643,118.057L 37.1557,99.8234L 43.393,100.778L 40.6017,119.012Z"/>
<path
 fill="none" stroke="#000000" stroke-width="1.44" stroke-linecap="butt" stroke-linejoin="miter"
 d="M 38.5845 111.339 L 39.1728 107.496 "/>
<path
 fill="#d7efc5" stroke="none"
 d="M 26.8914 116.913 L 26.8914,116.913L 29.6827,98.6794L 35.92,99.6343L 33.1287,117.868Z"/>
<path
 fill="none" stroke="#000000" stroke-width="1.44" stroke-linecap="butt" stroke-linejoin="miter"
 d="M 31.1115 110.195 L 31.6999 106.352 "/>
<path
 fill="#d7efc5" stroke="none"
 d="M 19.4184 115.769 L 19.4184,115.769L 22.2098,97.5354L 28.4471,98.4903L 25.6558,116.724Z"/>
<path
 fill="none" stroke="#000000" stroke-width="1.44" stroke-linecap="butt" stroke-linejoin="miter"
 d="M 23.6386 109.051 L 24.227 105.208 "/>
<path
 fill="#d7efc5" stroke="none"
 d="M 86.6653 100.967 L 86.6653,100.967L 89.4566,119.201L 83.2193,120.156L 80.428,101.922Z"/>
<path
 fill="none" stroke="#000000" stroke-width="1.44" stroke-linecap="butt" stroke-linejoin="miter"
 d="M 84.6481 108.64 L 85.2365 112.483 "/>
<path
 fill="#d7efc5" stroke="none"
 d="M 94.1383 99.8235 L 94.1383,99.8235L 96.9296,118.057L 90.6922,119.012L 87.9009,100.778Z"/>
<path
 fill="none" stroke="#000000" stroke-width="1.44" stroke-linecap="butt" stroke-linejoin="miter"
 d="M 92.1211 107.496 L 92.7094 111.339 "/>
<path
 fill="#d7efc5" stroke="none"
 d="M 101.611 98.6795 L 101.611,98.6795L 104.403,116.913L 98.1652,117.868L 95.3739,99.6343Z"/>
<path
 fill="none" stroke="#000000" stroke-width="1.44" stroke-linecap="butt" stroke-linejoin="miter"
 d="M 99.594 106.352 L 100.182 110.195 "/>
<path
 fill="#d7efc5" stroke="none"
 d="M 109.084 97.5354 L 109.084,97.5354L 111.875,115.769L 105.638,116.724L 102.847,98.4903Z"/>
<path
 fill="none" stroke="#000000" stroke-width="1.44" stroke-linecap="butt" stroke-linejoin="miter"
 d="M 107.067 105.208 L 107.655 109.051 "/>
<path
 fill="#d7efc5" stroke="none"
 d="M 116.557 96.3914 L 116.557,96.3914L 119.348,114.625L 113.111,115.58L 110.32,97.3463Z"/>
<path
 fill="none" stroke="#000000" stroke-width="1.44" stroke-linecap="butt" stroke-linejoin="miter"
 d="M 114.54 104.064 L 115.128 107.907 "/>
<path
 fill="none" stroke="#5c5c5c" stroke-width="0.5" stroke-linecap="butt" stroke-linejoin="miter"
 d=""/>
<path
 fill="none" stroke="#5c5c5c" stroke-width="0.5" stroke-linecap="butt" stroke-linejoin="miter"
 d=""/>
<path
 fill="none" stroke="#5c5c5c" stroke-width="0.5" stroke-linecap="butt" stroke-linejoin="miter"
 d=""/>
<path
 fill="none" stroke="#5c5c5c" stroke-width="0.5" stroke-linecap="butt" stroke-linejoin="miter"
 d=""/>
<path
 fill="none" stroke="#5c5c5c" stroke-width="0.5" stroke-linecap="butt" stroke-linejoin="miter"
 d=""/>
<path
 fill="none" stroke="#5c5c5c" stroke-width="0.5" stroke-linecap="butt" stroke-linejoin="miter"
 d=""/>
<path
 fill="none" stroke="#5c5c5c" stroke-width="0.5" stroke-linecap="butt" stroke-linejoin="miter"
 d=""/>
<path
 fill="none" stroke="#5c5c5c" stroke-width="0.5" stroke-linecap="butt" stroke-linejoin="miter"
 d=""/>
<path
 fill="none" stroke="#5c5c5c" stroke-width="0.5" stroke-linecap="butt" stroke-linejoin="miter"
 d=""/>
<path
 fill="none" stroke="#5c5c5c" stroke-width="0.5" stroke-linecap="butt" stroke-linejoin="miter"
 d=""/>
<path
 fill="none" stroke="#5c5c5c" stroke-width="0.5" stroke-linecap="butt" stroke-linejoin="miter"
 d=""/>
<path
 fill="none" stroke="#5c5c5c" stroke-width="0.5" stroke-linecap="butt" stroke-linejoin="miter"
 d=""/>
<path
 fill="none" stroke="#5c5c5c" stroke-width="0.5" stroke-linecap="butt" stroke-linejoin="miter"
 d=""/>
<path
 fill="none" stroke="#5c5c5c" stroke-width="0.5" stroke-linecap="butt" stroke-linejoin="miter"
 d=""/>
<path
 fill="none" stroke="#5c5c5c" stroke-width="0.5" stroke-linecap="butt" stroke-linejoin="miter"
 d=""/>
<path
 fill="none" stroke="#5c5c5c" stroke-width="0.5" stroke-linecap="butt" stroke-linejoin="miter"
 d=""/>
<path
 fill="none" stroke="#5c5c5c" stroke-width="0.5" stroke-linecap="butt" stroke-linejoin="miter"
 d=""/>
<path
 fill="none" stroke="#5c5c5c" stroke-width="0.5" stroke-linecap="butt" stroke-linejoin="miter"
 d=""/>
<path
 fill="none" stroke="#5c5c5c" stroke-width="0.5" stroke-linecap="butt" stroke-linejoin="miter"
 d=""/>
<path
 fill="none" stroke="#5c5c5c" stroke-width="0.5" stroke-linecap="butt" stroke-linejoin="miter"
 d=""/>
<path
 fill="none" stroke="#5c5c5c" stroke-width="0.5" stroke-linecap="butt" stroke-linejoin="miter"
 d=""/>
<path
 fill="none" stroke="#5c5c5c" stroke-width="0.5" stroke-linecap="butt" stroke-linejoin="miter"
 d=""/>
<path
 fill="none" stroke="#5c5c5c" stroke-width="0.5" stroke-linecap="butt" stroke-linejoin="miter"
 d=""/>
<path
 fill="none" stroke="#5c5c5c" stroke-width="0.5" stroke-linecap="butt" stroke-linejoin="miter"
 d=""/>
<path
 fill="none" stroke="#5c5c5c" stroke-width="0.5" stroke-linecap="butt" stroke-linejoin="miter"
 d=""/>
<path
 fill="none" stroke="#5c5c5c" stroke-width="0.5" stroke-linecap="butt" stroke-linejoin="miter"
 d=""/>
<path
 fill="none" stroke="#5c5c5c" stroke-width="0.5" stroke-linecap="butt" stroke-linejoin="miter"
 d=""/>
<path
 fill="none" stroke="#5c5c5c" stroke-width="0.5" stroke-linecap="butt" stroke-linejoin="miter"
 d=""/>
<path
 fill="none" stroke="#5c5c5c" stroke-width="0.5" stroke-linecap="butt" stroke-linejoin="miter"
 d=""/>
<path
 fill="none" stroke="#5c5c5c" stroke-width="0.5" stroke-linecap="butt" stroke-linejoin="miter"
 d=""/>
<path
 fill="none" stroke="#5c5c5c" stroke-width="0.5" stroke-linecap="butt" stroke-linejoin="miter"
 d=""/>
<path
 fill="none" stroke="#5c5c5c" stroke-width="0.5" stroke-linecap="butt" stroke-linejoin="miter"
 d=""/>
<path
 fill="none" stroke="#5c5c5c" stroke-width="0.5" stroke-linecap="butt" stroke-linejoin="miter"
 d=""/>
<path
 fill="none" stroke="#5c5c5c" stroke-width="0.5" stroke-linecap="butt" stroke-linejoin="miter"
 d=""/>
<path
 fill="none" stroke="#5c5c5c" stroke-width="0.5" stroke-linecap="butt" stroke-linejoin="miter"
 d="M 137.774 89.3423 A 17.9432,17.9432 0 1,1 115.885,117.731"/>
<path
 fill="none" stroke="#5c5c5c" stroke-width="0.5" stroke-linecap="butt" stroke-linejoin="miter"
 d=""/>
<path
 fill="none" stroke="#5c5c5c" stroke-width="0.5" stroke-linecap="butt" stroke-linejoin="miter"
 d=""/>
<path
 fill="none" stroke="#5c5c5c" stroke-width="0.5" stroke-linecap="butt" stroke-linejoin="miter"
 d=""/>
<path
 fill="none" stroke="#5c5c5c" stroke-width="0.5" stroke-linecap="butt" stroke-linejoin="miter"
 d=""/>
<path
 fill="none" stroke="#5c5c5c" stroke-width="0.5" stroke-linecap="butt" stroke-linejoin="miter"
 d=""/>
<path
 fill="none" stroke="#5c5c5c" stroke-width="0.5" stroke-linecap="butt" stroke-linejoin="miter"
 d=""/>
<path
 fill="none" stroke="#5c5c5c" stroke-width="0.5" stroke-linecap="butt" stroke-linejoin="miter"
 d=""/>
<path
 fill="none" stroke="#5c5c5c" stroke-width="0.5" stroke-linecap="butt" stroke-linejoin="miter"
 d=""/>
<path
 fill="none" stroke="#5c5c5c" stroke-width="0.5" stroke-linecap="butt" stroke-linejoin="miter"
 d=""/>
<path
 fill="none" stroke="#5c5c5c" stroke-width="0.5" stroke-linecap="butt" stroke-linejoin="miter"
 d=""/>
<path
 fill="none" stroke="#5c5c5c" stroke-width="0.5" stroke-linecap="butt" stroke-linejoin="miter"
 d=""/>
<path
 fill="none" stroke="#5c5c5c" stroke-width="0.5" stroke-linecap="butt" stroke-linejoin="miter"
 d=""/>
<path
 fill="none" stroke="#5c5c5c" stroke-width="0.5" stroke-linecap="butt" stroke-linejoin="miter"
 d=""/>
<path
 fill="none" stroke="#5c5c5c" stroke-width="0.5" stroke-linecap="butt" stroke-linejoin="miter"
 d=""/>
<path
 fill="none" stroke="#5c5c5c" stroke-width="0.5" stroke-linecap="butt" stroke-linejoin="miter"
 d=""/>
<path
 fill="none" stroke="#5c5c5c" stroke-width="0.5" stroke-linecap="butt" stroke-linejoin="miter"
 d=""/>
<path
 fill="none" stroke="#5c5c5c" stroke-width="0.5" stroke-linecap="butt" stroke-linejoin="miter"
 d=""/>
<path
 fill="none" stroke="#5c5c5c" stroke-width="0.5" stroke-linecap="butt" stroke-linejoin="miter"
 d=""/>
<path
 fill="none" stroke="#5c5c5c" stroke-width="0.5" stroke-linecap="butt" stroke-linejoin="miter"
 d=""/>
<path
 fill="none" stroke="#5c5c5c" stroke-width="0.5" stroke-linecap="butt" stroke-linejoin="miter"
 d=""/>
<path
 fill="none" stroke="#5c5c5c" stroke-width="0.5" stroke-linecap="butt" stroke-linejoin="miter"
 d=""/>
<path
 fill="none" stroke="#5c5c5c" stroke-width="0.5" stroke-linecap="butt" stroke-linejoin="miter"
 d=""/>
<path
 fill="none" stroke="#5c5c5c" stroke-width="0.5" stroke-linecap="butt" stroke-linejoin="miter"
 d="M 133.813 187.551 L 179.173 187.551 "/>
<path
 fill="none" stroke="#5c5c5c" stroke-width="0.5" stroke-linecap="butt" stroke-linejoin="miter"
 d=""/>
<path
 fill="none" stroke="#5c5c5c" stroke-width="0.5" stroke-linecap="butt" stroke-linejoin="miter"
 d=""/>
<path
 fill="none" stroke="#5c5c5c" stroke-width="0.5" stroke-linecap="butt" stroke-linejoin="miter"
 d=""/>
<path
 fill="none" stroke="#5c5c5c" stroke-width="0.5" stroke-linecap="butt" stroke-linejoin="miter"
 d=""/>
<path
 fill="none" stroke="#5c5c5c" stroke-width="0.5" stroke-linecap="butt" stroke-linejoin="miter"
 d=""/>
<path
 fill="none" stroke="#5c5c5c" stroke-width="0.5" stroke-linecap="butt" stroke-linejoin="miter"
 d=""/>
<path
 fill="none" stroke="#5c5c5c" stroke-width="0.5" stroke-linecap="butt" stroke-linejoin="miter"
 d=""/>
<path
 fill="none" stroke="#5c5c5c" stroke-width="0.5" stroke-linecap="butt" stroke-linejoin="miter"
 d=""/>
<path
 fill="none" stroke="#5c5c5c" stroke-width="0.5" stroke-linecap="butt" stroke-linejoin="miter"
 d=""/>
<path
 fill="none" stroke="#5c5c5c" stroke-width="0.5" stroke-linecap="butt" stroke-linejoin="miter"
 d=""/>
<path
 fill="none" stroke="#5c5c5c" stroke-width="0.5" stroke-linecap="butt" stroke-linejoin="miter"
 d=""/>
<path
 fill="none" stroke="#5c5c5c" stroke-width="0.5" stroke-linecap="butt" stroke-linejoin="miter"
 d=""/>
<path
 fill="none" stroke="#5c5c5c" stroke-width="0.5" stroke-linecap="butt" stroke-linejoin="miter"
 d=""/>
<path
 fill="none" stroke="#5c5c5c" stroke-width="0.5" stroke-linecap="butt" stroke-linejoin="miter"
 d=""/>
<path
 fill="none" stroke="#5c5c5c" stroke-width="0.5" stroke-linecap="butt" stroke-linejoin="miter"
 d=""/>
<path
 fill="none" stroke="#5c5c5c" stroke-width="0.5" stroke-linecap="butt" stroke-linejoin="miter"
 d=""/>
<path
 fill="none" stroke="#5c5c5c" stroke-width="0.5" stroke-linecap="butt" stroke-linejoin="miter"
 d=""/>
<path
 fill="none" stroke="#5c5c5c" stroke-width="0.5" stroke-linecap="butt" stroke-linejoin="miter"
 d=""/>
<path
 fill="none" stroke="#5c5c5c" stroke-width="0.5" stroke-linecap="butt" stroke-linejoin="miter"
 d=""/>
<path
 fill="none" stroke="#5c5c5c" stroke-width="0.5" stroke-linecap="butt" stroke-linejoin="miter"
 d=""/>
<path
 fill="none" stroke="#5c5c5c" stroke-width="0.5" stroke-linecap="butt" stroke-linejoin="miter"
 d=""/>
<path
 fill="none" stroke="#5c5c5c" stroke-width="0.5" stroke-linecap="butt" stroke-linejoin="miter"
 d=""/>
<path
 fill="none" stroke="#5c5c5c" stroke-width="0.5" stroke-linecap="butt" stroke-linejoin="miter"
 d=""/>
<path
 fill="none" stroke="#5c5c5c" stroke-width="0.5" stroke-linecap="butt" stroke-linejoin="miter"
 d=""/>
<path
 fill="none" stroke="#5c5c5c" stroke-width="0.5" stroke-linecap="butt" stroke-linejoin="miter"
 d=""/>
<path
 fill="none" stroke="#5c5c5c" stroke-width="0.5" stroke-linecap="butt" stroke-linejoin="miter"
 d=""/>
<path
 fill="none" stroke="#5c5c5c" stroke-width="0.5" stroke-linecap="butt" stroke-linejoin="miter"
 d=""/>
<path
 fill="none" stroke="#5c5c5c" stroke-width="0.5" stroke-linecap="butt" stroke-linejoin="miter"
 d=""/>
<path
 fill="none" stroke="#5c5c5c" stroke-width="0.5" stroke-linecap="butt" stroke-linejoin="miter"
 d=""/>
<path
 fill="none" stroke="#5c5c5c" stroke-width="0.5" stroke-linecap="butt" stroke-linejoin="miter"
 d=""/>
<path
 fill="none" stroke="#5c5c5c" stroke-width="0.5" stroke-linecap="butt" stroke-linejoin="miter"
 d=""/>
<path
 fill="none" stroke="#5c5c5c" stroke-width="0.5" stroke-linecap="butt" stroke-linejoin="miter"
 d=""/>
<path
 fill="none" stroke="#5c5c5c" stroke-width="0.5" stroke-linecap="butt" stroke-linejoin="miter"
 d=""/>
<path
 fill="none" stroke="#5c5c5c" stroke-width="0.5" stroke-linecap="butt" stroke-linejoin="miter"
 d=""/>
<path
 fill="none" stroke="#5c5c5c" stroke-width="0.5" stroke-linecap="butt" stroke-linejoin="miter"
 d=""/>
<path
 fill="none" stroke="#5c5c5c" stroke-width="0.5" stroke-linecap="butt" stroke-linejoin="miter"
 d=""/>
<path
 fill="none" stroke="#5c5c5c" stroke-width="0.5" stroke-linecap="butt" stroke-linejoin="miter"
 d=""/>
<path
 fill="none" stroke="#5c5c5c" stroke-width="0.5" stroke-linecap="butt" stroke-linejoin="miter"
 d=""/>
<path
 fill="none" stroke="#5c5c5c" stroke-width="0.5" stroke-linecap="butt" stroke-linejoin="miter"
 d=""/>
<path
 fill="none" stroke="#5c5c5c" stroke-width="0.5" stroke-linecap="butt" stroke-linejoin="miter"
 d=""/>
<path
 fill="none" stroke="#5c5c5c" stroke-width="0.5" stroke-linecap="butt" stroke-linejoin="miter"
 d=""/>
<path
 fill="none" stroke="#5c5c5c" stroke-width="0.5" stroke-linecap="butt" stroke-linejoin="miter"
 d=""/>
<path
 fill="none" stroke="#5c5c5c" stroke-width="0.5" stroke-linecap="butt" stroke-linejoin="miter"
 d=""/>
<path
 fill="none" stroke="#5c5c5c" stroke-width="0.5" stroke-linecap="butt" stroke-linejoin="miter"
 d=""/>
<path
 fill="none" stroke="#5c5c5c" stroke-width="0.5" stroke-linecap="butt" stroke-linejoin="miter"
 d=""/>
<path
 fill="none" stroke="#5c5c5c" stroke-width="0.5" stroke-linecap="butt" stroke-linejoin="miter"
 d=""/>
<path
 fill="none" stroke="#5c5c5c" stroke-width="0.5" stroke-linecap="butt" stroke-linejoin="miter"
 d=""/>
<path
 fill="none" stroke="#5c5c5c" stroke-width="0.5" stroke-linecap="butt" stroke-linejoin="miter"
 d=""/>
<path
 fill="none" stroke="#5c5c5c" stroke-width="0.5" stroke-linecap="butt" stroke-linejoin="miter"
 d=""/>
<path
 fill="none" stroke="#5c5c5c" stroke-width="0.5" stroke-linecap="butt" stroke-linejoin="miter"
 d=""/>
<path
 fill="none" stroke="#5c5c5c" stroke-width="0.5" stroke-linecap="butt" stroke-linejoin="miter"
 d=""/>
<path
 fill="none" stroke="#5c5c5c" stroke-width="0.5" stroke-linecap="butt" stroke-linejoin="miter"
 d=""/>
<path
 fill="none" stroke="#5c5c5c" stroke-width="0.5" stroke-linecap="butt" stroke-linejoin="miter"
 d=""/>
<path
 fill="none" stroke="#5c5c5c" stroke-width="0.5" stroke-linecap="butt" stroke-linejoin="miter"
 d=""/>
<path
 fill="none" stroke="#5c5c5c" stroke-width="0.5" stroke-linecap="butt" stroke-linejoin="miter"
 d=""/>
<path
 fill="none" stroke="#5c5c5c" stroke-width="0.5" stroke-linecap="butt" stroke-linejoin="miter"
 d=""/>
<path
 fill="none" stroke="#5c5c5c" stroke-width="0.5" stroke-linecap="butt" stroke-linejoin="miter"
 d=""/>
<path
 fill="none" stroke="#5c5c5c" stroke-width="0.5" stroke-linecap="butt" stroke-linejoin="miter"
 d=""/>
<path
 fill="none" stroke="#5c5c5c" stroke-width="0.5" stroke-linecap="butt" stroke-linejoin="miter"
 d=""/>
<path
 fill="none" stroke="#5c5c5c" stroke-width="0.5" stroke-linecap="butt" stroke-linejoin="miter"
 d=""/>
<path
 fill="none" stroke="#5c5c5c" stroke-width="0.5" stroke-linecap="butt" stroke-linejoin="miter"
 d=""/>
<path
 fill="none" stroke="#5c5c5c" stroke-width="0.5" stroke-linecap="butt" stroke-linejoin="miter"
 d=""/>
<path
 fill="none" stroke="#5c5c5c" stroke-width="0.5" stroke-linecap="butt" stroke-linejoin="miter"
 d=""/>
<path
 fill="none" stroke="#5c5c5c" stroke-width="0.5" stroke-linecap="butt" stroke-linejoin="miter"
 d=""/>
<path
 fill="none" stroke="#5c5c5c" stroke-width="0.5" stroke-linecap="butt" stroke-linejoin="miter"
 d=""/>
<path
 fill="none" stroke="#5c5c5c" stroke-width="0.5" stroke-linecap="butt" stroke-linejoin="miter"
 d=""/>
<path
 fill="none" stroke="#5c5c5c" stroke-width="0.5" stroke-linecap="butt" stroke-linejoin="miter"
 d=""/>
<path
 fill="none" stroke="#5c5c5c" stroke-width="0.5" stroke-linecap="butt" stroke-linejoin="miter"
 d=""/>
<path
 fill="none" stroke="#5c5c5c" stroke-width="0.5" stroke-linecap="butt" stroke-linejoin="miter"
 d=""/>
<path
 fill="none" stroke="#5c5c5c" stroke-width="0.5" stroke-linecap="butt" stroke-linejoin="miter"
 d=""/>
<path
 fill="#d90000" stroke="#000000" stroke-width="0.72" stroke-linecap="butt" stroke-linejoin="miter"
 d="M 62.0844 185.956 A 2.5575,2.5575 0 0,1 56.9694,185.956A 2.5575,2.5575 0 0,1 62.0844,185.956Z"/>
<path
 fill="#d90000" stroke="#000000" stroke-width="0.72" stroke-linecap="butt" stroke-linejoin="miter"
 d="M 62.0844 178.396 A 2.5575,2.5575 0 0,1 56.9694,178.396A 2.5575,2.5575 0 0,1 62.0844,178.396Z"/>
<path
 fill="#d90000" stroke="#000000" stroke-width="0.72" stroke-linecap="butt" stroke-linejoin="miter"
 d="M 62.0844 170.836 A 2.5575,2.5575 0 0,1 56.9694,170.836A 2.5575,2.5575 0 0,1 62.0844,170.836Z"/>
<path
 fill="#d90000" stroke="#000000" stroke-width="0.72" stroke-linecap="butt" stroke-linejoin="miter"
 d="M 62.0844 163.276 A 2.5575,2.5575 0 0,1 56.9694,163.276A 2.5575,2.5575 0 0,1 62.0844,163.276Z"/>
<path
 fill="#d90000" stroke="#000000" stroke-width="0.72" stroke-linecap="butt" stroke-linejoin="miter"
 d="M 62.0844 155.716 A 2.5575,2.5575 0 0,1 56.9694,155.716A 2.5575,2.5575 0 0,1 62.0844,155.716Z"/>
<text x="56.6094" y="150.848" id="text1020">
  <tspan x="56.6094" y="150.848" fill="#807b88"  font-variant="normal" font-weight="normal" font-style="normal" font-family="Bitstream Vera Sans" font-size="7.5" id="tspan1021">G</tspan>
</text>
<path
 fill="#d90000" stroke="#000000" stroke-width="0.72" stroke-linecap="butt" stroke-linejoin="miter"
 d="M 62.0844 140.596 A 2.5575,2.5575 0 0,1 56.9694,140.596A 2.5575,2.5575 0 0,1 62.0844,140.596Z"/>
<text x="56.8194" y="135.728" id="text1022">
  <tspan x="56.8194" y="135.728" fill="#807b88"  font-variant="normal" font-weight="normal" font-style="normal" font-family="Bitstream Vera Sans" font-size="7.5" id="tspan1023">C</tspan>
</text>
<text x="50.1478" y="132.173" id="text1024">
  <tspan x="50.1478" y="132.173" fill="#d90000"  font-variant="normal" font-weight="normal" font-style="normal" font-family="Bitstream Vera Sans" font-size="7.5" id="tspan1025">U</tspan>
</text>
<text x="45.4294" y="126.437" id="text1026">
  <tspan x="45.4294" y="126.437" fill="#d90000"  font-variant="normal" font-weight="normal" font-style="normal" font-family="Bitstream Vera Sans" font-size="7.5" id="tspan1027">A</tspan>
</text>
<text x="42.508" y="119.304" id="text1028">
  <tspan x="42.508" y="119.304" fill="#807b88"  font-variant="normal" font-weight="normal" font-style="normal" font-family="Bitstream Vera Sans" font-size="7.5" id="tspan1029">G</tspan>
</text>
<path
 fill="#d90000" stroke="#000000" stroke-width="0.72" stroke-linecap="butt" stroke-linejoin="miter"
 d="M 40.51 115.467 A 2.5575,2.5575 0 0,1 35.395,115.467A 2.5575,2.5575 0 0,1 40.51,115.467Z"/>
<path
 fill="#000000" stroke="#000000" stroke-width="0.72" stroke-linecap="butt" stroke-linejoin="miter"
 d="M 33.0371 114.323 A 2.5575,2.5575 0 0,1 27.9221,114.323A 2.5575,2.5575 0 0,1 33.0371,114.323Z"/>
<path
 fill="#ffffff" stroke="#000000" stroke-width="0.72" stroke-linecap="butt" stroke-linejoin="miter"
 d="M 25.5642 113.179 A 2.5575,2.5575 0 0,1 20.4492,113.179A 2.5575,2.5575 0 0,1 25.5642,113.179Z"/>
<path
 fill="#d90000" stroke="#000000" stroke-width="0.72" stroke-linecap="butt" stroke-linejoin="miter"
 d="M 18.0777 114.231 A 2.5575,2.5575 0 0,1 12.9627,114.231A 2.5575,2.5575 0 0,1 18.0777,114.231Z"/>
<text x="7.5" y="111.545" id="text1030">
  <tspan x="7.5" y="111.545" fill="#807b88"  font-variant="normal" font-weight="normal" font-style="normal" font-family="Bitstream Vera Sans" font-size="7.5" id="tspan1031">R</tspan>
</text>
<path
 fill="#d90000" stroke="#000000" stroke-width="0.72" stroke-linecap="butt" stroke-linejoin="miter"
 d="M 13.909 101.38 A 2.5575,2.5575 0 0,1 8.79401,101.38A 2.5575,2.5575 0 0,1 13.909,101.38Z"/>
<path
 fill="#d90000" stroke="#000000" stroke-width="0.72" stroke-linecap="butt" stroke-linejoin="miter"
 d="M 20.5875 97.8367 A 2.5575,2.5575 0 0,1 15.4725,97.8367A 2.5575,2.5575 0 0,1 20.5875,97.8367Z"/>
<path
 fill="#807b88" stroke="#000000" stroke-width="0.72" stroke-linecap="butt" stroke-linejoin="miter"
 d="M 27.4164 101.08 A 2.5575,2.5575 0 0,1 22.3014,101.08A 2.5575,2.5575 0 0,1 27.4164,101.08Z"/>
<path
 fill="#d90000" stroke="#000000" stroke-width="0.72" stroke-linecap="butt" stroke-linejoin="miter"
 d="M 34.8893 102.224 A 2.5575,2.5575 0 0,1 29.7743,102.224A 2.5575,2.5575 0 0,1 34.8893,102.224Z"/>
<path
 fill="#d90000" stroke="#000000" stroke-width="0.72" stroke-linecap="butt" stroke-linejoin="miter"
 d="M 42.3623 103.368 A 2.5575,2.5575 0 0,1 37.2473,103.368A 2.5575,2.5575 0 0,1 42.3623,103.368Z"/>
<text x="44.5702" y="107.205" id="text1032">
  <tspan x="44.5702" y="107.205" fill="#807b88"  font-variant="normal" font-weight="normal" font-style="normal" font-family="Bitstream Vera Sans" font-size="7.5" id="tspan1033">C</tspan>
</text>
<text x="48.8845" y="101.148" id="text1034">
  <tspan x="48.8845" y="101.148" fill="#000000"  font-variant="normal" font-weight="normal" font-style="normal" font-family="Bitstream Vera Sans" font-size="7.5" id="tspan1035">G</tspan>
</text>
<text x="55.7159" y="97.1479" id="text1036">
  <tspan x="55.7159" y="97.1479" fill="#d90000"  font-variant="normal" font-weight="normal" font-style="normal" font-family="Bitstream Vera Sans" font-size="7.5" id="tspan1037">A</tspan>
</text>
<text x="63.1457" y="95.751" id="text1038">
  <tspan x="63.1457" y="95.751" fill="#000000"  font-variant="normal" font-weight="normal" font-style="normal" font-family="Bitstream Vera Sans" font-size="7.5" id="tspan1039">A</tspan>
</text>
<text x="70.5755" y="97.1479" id="text1040">
  <tspan x="70.5755" y="97.1479" fill="#807b88"  font-variant="normal" font-weight="normal" font-style="normal" font-family="Bitstream Vera Sans" font-size="7.5" id="tspan1041">A</tspan>
</text>
<text x="76.9906" y="101.148" id="text1042">
  <tspan x="76.9906" y="101.148" fill="#807b88"  font-variant="normal" font-weight="normal" font-style="normal" font-family="Bitstream Vera Sans" font-size="7.5" id="tspan1043">A</tspan>
</text>
<text x="81.3087" y="107.205" id="text1044">
  <tspan x="81.3087" y="107.205" fill="#807b88"  font-variant="normal" font-weight="normal" font-style="normal" font-family="Bitstream Vera Sans" font-size="7.5" id="tspan1045">R</tspan>
</text>
<text x="88.7816" y="106.061" id="text1046">
  <tspan x="88.7816" y="106.061" fill="#807b88"  font-variant="normal" font-weight="normal" font-style="normal" font-family="Bitstream Vera Sans" font-size="7.5" id="tspan1047">C</tspan>
</text>
<path
 fill="#d90000" stroke="#000000" stroke-width="0.72" stroke-linecap="butt" stroke-linejoin="miter"
 d="M 101.52 102.224 A 2.5575,2.5575 0 0,1 96.4046,102.224A 2.5575,2.5575 0 0,1 101.52,102.224Z"/>
<text x="103.518" y="103.773" id="text1048">
  <tspan x="103.518" y="103.773" fill="#807b88"  font-variant="normal" font-weight="normal" font-style="normal" font-family="Bitstream Vera Sans" font-size="7.5" id="tspan1049">G</tspan>
</text>
<path
 fill="#807b88" stroke="#000000" stroke-width="0.72" stroke-linecap="butt" stroke-linejoin="miter"
 d="M 116.465 99.9361 A 2.5575,2.5575 0 0,1 111.35,99.9361A 2.5575,2.5575 0 0,1 116.465,99.9361Z"/>
<path
 fill="#ffffff" stroke="#000000" stroke-width="0.72" stroke-linecap="butt" stroke-linejoin="miter"
 d="M 120.504 93.5449 A 2.5575,2.5575 0 0,1 115.389,93.5449A 2.5575,2.5575 0 0,1 120.504,93.5449Z"/>
<path
 fill="#000000" stroke="#000000" stroke-width="0.72" stroke-linecap="butt" stroke-linejoin="miter"
 d="M 127.25 90.1335 A 2.5575,2.5575 0 0,1 122.135,90.1335A 2.5575,2.5575 0 0,1 127.25,90.1335Z"/>
<path
 fill="#d90000" stroke="#000000" stroke-width="0.72" stroke-linecap="butt" stroke-linejoin="miter"
 d="M 134.791 90.6698 A 2.5575,2.5575 0 0,1 129.676,90.6698A 2.5575,2.5575 0 0,1 134.791,90.6698Z"/>
<text x="135.722" y="97.6941" id="text1050">
  <tspan x="135.722" y="97.6941" fill="#807b88"  font-variant="normal" font-weight="normal" font-style="normal" font-family="Bitstream Vera Sans" font-size="7.5" id="tspan1051">C</tspan>
</text>
<text x="138.815" y="104.593" id="text1052">
  <tspan x="138.815" y="104.593" fill="#807b88"  font-variant="normal" font-weight="normal" font-style="normal" font-family="Bitstream Vera Sans" font-size="7.5" id="tspan1053">C</tspan>
</text>
<text x="138.134" y="112.1" id="text1054">
  <tspan x="138.134" y="112.1" fill="#000000"  font-variant="normal" font-weight="normal" font-style="normal" font-family="Bitstream Vera Sans" font-size="7.5" id="tspan1055">Y</tspan>
</text>
<text x="133.517" y="118.087" id="text1056">
  <tspan x="133.517" y="118.087" fill="#807b88"  font-variant="normal" font-weight="normal" font-style="normal" font-family="Bitstream Vera Sans" font-size="7.5" id="tspan1057">Y</tspan>
</text>
<path
 fill="#000000" stroke="#000000" stroke-width="0.72" stroke-linecap="butt" stroke-linejoin="miter"
 d="M 131.541 118.162 A 2.5575,2.5575 0 0,1 126.426,118.162A 2.5575,2.5575 0 0,1 131.541,118.162Z"/>
<path
 fill="#ffffff" stroke="#000000" stroke-width="0.72" stroke-linecap="butt" stroke-linejoin="miter"
 d="M 124.083 116.926 A 2.5575,2.5575 0 0,1 118.968,116.926A 2.5575,2.5575 0 0,1 124.083,116.926Z"/>
<path
 fill="#807b88" stroke="#000000" stroke-width="0.72" stroke-linecap="butt" stroke-linejoin="miter"
 d="M 118.318 112.035 A 2.5575,2.5575 0 0,1 113.203,112.035A 2.5575,2.5575 0 0,1 118.318,112.035Z"/>
<text x="105.58" y="115.872" id="text1058">
  <tspan x="105.58" y="115.872" fill="#807b88"  font-variant="normal" font-weight="normal" font-style="normal" font-family="Bitstream Vera Sans" font-size="7.5" id="tspan1059">C</tspan>
</text>
<path
 fill="#d90000" stroke="#000000" stroke-width="0.72" stroke-linecap="butt" stroke-linejoin="miter"
 d="M 103.372 114.323 A 2.5575,2.5575 0 0,1 98.2568,114.323A 2.5575,2.5575 0 0,1 103.372,114.323Z"/>
<text x="90.4238" y="118.16" id="text1060">
  <tspan x="90.4238" y="118.16" fill="#807b88"  font-variant="normal" font-weight="normal" font-style="normal" font-family="Bitstream Vera Sans" font-size="7.5" id="tspan1061">G</tspan>
</text>
<text x="83.3672" y="119.304" id="text1062">
  <tspan x="83.3672" y="119.304" fill="#807b88"  font-variant="normal" font-weight="normal" font-style="normal" font-family="Bitstream Vera Sans" font-size="7.5" id="tspan1063">Y</tspan>
</text>
<text x="80.6558" y="126.437" id="text1064">
  <tspan x="80.6558" y="126.437" fill="#807b88"  font-variant="normal" font-weight="normal" font-style="normal" font-family="Bitstream Vera Sans" font-size="7.5" id="tspan1065">C</tspan>
</text>
<text x="75.7311" y="132.173" id="text1066">
  <tspan x="75.7311" y="132.173" fill="#000000"  font-variant="normal" font-weight="normal" font-style="normal" font-family="Bitstream Vera Sans" font-size="7.5" id="tspan1067">U</tspan>
</text>
<text x="68.8494" y="135.728" id="text1068">
  <tspan x="68.8494" y="135.728" fill="#807b88"  font-variant="normal" font-weight="normal" font-style="normal" font-family="Bitstream Vera Sans" font-size="7.5" id="tspan1069">G</tspan>
</text>
<path
 fill="#d90000" stroke="#000000" stroke-width="0.72" stroke-linecap="butt" stroke-linejoin="miter"
 d="M 74.3244 140.596 A 2.5575,2.5575 0 0,1 69.2094,140.596A 2.5575,2.5575 0 0,1 74.3244,140.596Z"/>
<text x="69.0594" y="150.848" id="text1070">
  <tspan x="69.0594" y="150.848" fill="#807b88"  font-variant="normal" font-weight="normal" font-style="normal" font-family="Bitstream Vera Sans" font-size="7.5" id="tspan1071">C</tspan>
</text>
<path
 fill="#d90000" stroke="#000000" stroke-width="0.72" stroke-linecap="butt" stroke-linejoin="miter"
 d="M 74.3244 155.716 A 2.5575,2.5575 0 0,1 69.2094,155.716A 2.5575,2.5575 0 0,1 74.3244,155.716Z"/>
<path
 fill="#d90000" stroke="#000000" stroke-width="0.72" stroke-linecap="butt" stroke-linejoin="miter"
 d="M 74.3244 163.276 A 2.5575,2.5575 0 0,1 69.2094,163.276A 2.5575,2.5575 0 0,1 74.3244,163.276Z"/>
<path
 fill="#d90000" stroke="#000000" stroke-width="0.72" stroke-linecap="butt" stroke-linejoin="miter"
 d="M 74.3244 170.836 A 2.5575,2.5575 0 0,1 69.2094,170.836A 2.5575,2.5575 0 0,1 74.3244,170.836Z"/>
<path
 fill="#d90000" stroke="#000000" stroke-width="0.72" stroke-linecap="butt" stroke-linejoin="miter"
 d="M 74.3244 178.396 A 2.5575,2.5575 0 0,1 69.2094,178.396A 2.5575,2.5575 0 0,1 74.3244,178.396Z"/>
<path
 fill="#d90000" stroke="#000000" stroke-width="0.72" stroke-linecap="butt" stroke-linejoin="miter"
 d="M 74.3244 185.956 A 2.5575,2.5575 0 0,1 69.2094,185.956A 2.5575,2.5575 0 0,1 74.3244,185.956Z"/>
<path
 fill="#d90000" stroke="#000000" stroke-width="0.72" stroke-linecap="butt" stroke-linejoin="miter"
 d="M 79.6702 191.301 A 2.5575,2.5575 0 0,1 74.5552,191.301A 2.5575,2.5575 0 0,1 79.6702,191.301Z"/>
<text x="82.1714" y="193.994" id="text1072">
  <tspan x="82.1714" y="193.994" fill="#807b88"  font-variant="normal" font-weight="normal" font-style="normal" font-family="Bitstream Vera Sans" font-size="7.5" id="tspan1073">Y</tspan>
</text>
<text x="89.7314" y="193.994" id="text1074">
  <tspan x="89.7314" y="193.994" fill="#807b88"  font-variant="normal" font-weight="normal" font-style="normal" font-family="Bitstream Vera Sans" font-size="7.5" id="tspan1075">Y</tspan>
</text>
<text x="97.2914" y="193.994" id="text1076">
  <tspan x="97.2914" y="193.994" fill="#807b88"  font-variant="normal" font-weight="normal" font-style="normal" font-family="Bitstream Vera Sans" font-size="7.5" id="tspan1077">Y</tspan>
</text>
<path
 fill="#d90000" stroke="#000000" stroke-width="0.72" stroke-linecap="butt" stroke-linejoin="miter"
 d="M 109.91 191.301 A 2.5575,2.5575 0 0,1 104.795,191.301A 2.5575,2.5575 0 0,1 109.91,191.301Z"/>
<path
 fill="#d90000" stroke="#000000" stroke-width="0.72" stroke-linecap="butt" stroke-linejoin="miter"
 d="M 117.47 191.301 A 2.5575,2.5575 0 0,1 112.355,191.301A 2.5575,2.5575 0 0,1 117.47,191.301Z"/>
<path
 fill="#000000" stroke="#000000" stroke-width="0.72" stroke-linecap="butt" stroke-linejoin="miter"
 d="M 125.03 191.301 A 2.5575,2.5575 0 0,1 119.915,191.301A 2.5575,2.5575 0 0,1 125.03,191.301Z"/>
<path
 fill="#ffffff" stroke="#000000" stroke-width="0.72" stroke-linecap="butt" stroke-linejoin="miter"
 d="M 132.59 191.301 A 2.5575,2.5575 0 0,1 127.475,191.301A 2.5575,2.5575 0 0,1 132.59,191.301Z"/>
<path
 fill="#807b88" stroke="#000000" stroke-width="0.72" stroke-linecap="butt" stroke-linejoin="miter"
 d="M 140.15 191.301 A 2.5575,2.5575 0 0,1 135.035,191.301A 2.5575,2.5575 0 0,1 140.15,191.301Z"/>
<path
 fill="#d90000" stroke="#000000" stroke-width="0.72" stroke-linecap="butt" stroke-linejoin="miter"
 d="M 147.71 191.301 A 2.5575,2.5575 0 0,1 142.595,191.301A 2.5575,2.5575 0 0,1 147.71,191.301Z"/>
<text x="150.005" y="193.994" id="text1078">
  <tspan x="150.005" y="193.994" fill="#807b88"  font-variant="normal" font-weight="normal" font-style="normal" font-family="Bitstream Vera Sans" font-size="7.5" id="tspan1079">R</tspan>
</text>
<text x="157.565" y="193.994" id="text1080">
  <tspan x="157.565" y="193.994" fill="#000000"  font-variant="normal" font-weight="normal" font-style="normal" font-family="Bitstream Vera Sans" font-size="7.5" id="tspan1081">R</tspan>
</text>
<text x="164.915" y="193.994" id="text1082">
  <tspan x="164.915" y="193.994" fill="#807b88"  font-variant="normal" font-weight="normal" font-style="normal" font-family="Bitstream Vera Sans" font-size="7.5" id="tspan1083">G</tspan>
</text>
<text x="172.685" y="193.994" id="text1084">
  <tspan x="172.685" y="193.994" fill="#807b88"  font-variant="normal" font-weight="normal" font-style="normal" font-family="Bitstream Vera Sans" font-size="7.5" id="tspan1085">R</tspan>
</text>
<path
 fill="none" stroke="#000000" stroke-width="0.72" stroke-linecap="butt" stroke-linejoin="miter"
 d="M 59.5269 189.52 A 1.78191,1.78191 0 0,1 57.745,191.301L 54.1812 191.301 "/>
<path
 fill="none" stroke="#000000" stroke-width="0.5" stroke-linecap="butt" stroke-linejoin="miter"
 d="M 144.107 110.824 L 147.811 112.334 "/>
<path
 fill="none" stroke="#000000" stroke-width="0.5" stroke-linecap="butt" stroke-linejoin="miter"
 d="M 152.713 187.551 L 152.713 183.551 "/>
<text x="149.2" y="117.209" id="text1086">
  <tspan x="149.2" y="117.209" fill="#000000"  font-variant="normal" font-weight="normal" font-style="normal" font-family="Bitstream Vera Sans" font-size="6" id="tspan1087">pk_1</tspan>
</text>
<text x="146.209" y="180.809" id="text1088">
  <tspan x="146.209" y="180.809" fill="#000000"  font-variant="normal" font-weight="normal" font-style="normal" font-family="Bitstream Vera Sans" font-size="6" id="tspan1089">pk_1</tspan>
</text>
<text x="47.0787" y="193.994" id="text1090">
  <tspan x="47.0787" y="193.994" fill="#000000"  font-variant="normal" font-weight="normal" font-style="normal" font-family="Bitstream Vera Sans" font-size="7.5" id="tspan1091">5&apos;</tspan>
</text>
</svg>
