<svg
   xmlns:svg="http://www.w3.org/2000/svg"
   xmlns="http://www.w3.org/2000/svg"
   xmlns:xlink="http://www.w3.org/1999/xlink"
   version="1.0"
   width="171.832"
   height="253.351"
   id="svg2403"
   xml:space="preserve">
<text x="0" y="8.616" id="text1000">
  <tspan x="0" y="8.616" fill="#000000"  font-variant="normal" font-weight="normal" font-style="normal" font-family="Bitstream Vera Sans" font-size="12" id="tspan1001">input</tspan>
</text>
<path
 fill="#d7efc5" stroke="none"
 d="M 38.6986 139.641 L 38.6986,139.641L 56.7736,139.641L 56.7736,145.026L 38.6986,145.026Z"/>
<path
 fill="none" stroke="#000000" stroke-width="1.44" stroke-linecap="butt" stroke-linejoin="miter"
 d="M 45.7921 142.334 L 49.6801 142.334 "/>
<path
 fill="#d7efc5" stroke="none"
 d="M 38.6986 132.081 L 38.6986,132.081L 56.7736,132.081L 56.7736,137.466L 38.6986,137.466Z"/>
<path
 fill="none" stroke="#000000" stroke-width="1.44" stroke-linecap="butt" stroke-linejoin="miter"
 d="M 45.7921 134.774 L 49.6801 134.774 "/>
<path
 fill="#d7efc5" stroke="none"
 d="M 38.6986 124.521 L 38.6986,124.521L 56.7736,124.521L 56.7736,129.906L 38.6986,129.906Z"/>
<path
 fill="none" stroke="#000000" stroke-width="1.44" stroke-linecap="butt" stroke-linejoin="miter"
 d="M 45.7921 127.214 L 49.6801 127.214 "/>
<path
 fill="none" stroke="#000000" stroke-width="1.44" stroke-linecap="butt" stroke-linejoin="miter"
 d="M 45.7921 119.654 L 49.6801 119.654 "/>
<path
 fill="#d7efc5" stroke="none"
 d="M 38.6986 92.2515 L 38.6986,92.2515L 56.7736,92.2515L 56.7736,97.6365L 38.6986,97.6365Z"/>
<path
 fill="none" stroke="#000000" stroke-width="1.44" stroke-linecap="butt" stroke-linejoin="miter"
 d="M 45.7921 94.944 L 49.6801 94.944 "/>
<path
 fill="#d7efc5" stroke="none"
 d="M 38.6986 84.6915 L 38.6986,84.6915L 56.7736,84.6915L 56.7736,90.0765L 38.6986,90.0765Z"/>
<path
 fill="none" stroke="#000000" stroke-width="1.44" stroke-linecap="butt" stroke-linejoin="miter"
 d="M 45.7921 87.384 L 49.6801 87.384 "/>
<path
 fill="#d7efc5" stroke="none"
 d="M 38.6986 77.1315 L 38.6986,77.1315L 56.7736,77.1315L 56.7736,82.5165L 38.6986,82.5165Z"/>
<path
 fill="none" stroke="#000000" stroke-width="1.44" stroke-linecap="butt" stroke-linejoin="miter"
 d="M 45.7921 79.824 L 49.6801 79.824 "/>
<path
 fill="#d7efc5" stroke="none"
 d="M 38.6986 69.5715 L 38.6986,69.5715L 56.7736,69.5715L 56.7736,74.9565L 38.6986,74.9565Z"/>
<path
 fill="none" stroke="#000000" stroke-width="1.44" stroke-linecap="butt" stroke-linejoin="miter"
 d="M 45.7921 72.264 L 49.6801 72.264 "/>
<path
 fill="#d7efc5" stroke="none"
 d="M 38.6986 62.0115 L 38.6986,62.0115L 56.7736,62.0115L 56.7736,67.3965L 38.6986,67.3965Z"/>
<path
 fill="none" stroke="#000000" stroke-width="1.44" stroke-linecap="butt" stroke-linejoin="miter"
 d="M 45.7921 64.704 L 49.6801 64.704 "/>
<path
 fill="#d7efc5" stroke="none"
 d="M 38.6986 54.4515 L 38.6986,54.4515L 56.7736,54.4515L 56.7736,59.8365L 38.6986,59.8365Z"/>
<path
 fill="none" stroke="#000000" stroke-width="1.44" stroke-linecap="butt" stroke-linejoin="miter"
 d="M 45.7921 57.144 L 49.6801 57.144 "/>
<path
 fill="#d7efc5" stroke="none"
 d="M 38.6986 46.8915 L 38.6986,46.8915L 56.7736,46.8915L 56.7736,52.2765L 38.6986,52.2765Z"/>
<path
 fill="none" stroke="#000000" stroke-width="1.44" stroke-linecap="butt" stroke-linejoin="miter"
 d="M 45.7921 49.584 L 49.6801 49.584 "/>
<path
 fill="#d7efc5" stroke="none"
 d="M 38.6986 39.3315 L 38.6986,39.3315L 56.7736,39.3315L 56.7736,44.7165L 38.6986,44.7165Z"/>
<path
 fill="none" stroke="#000000" stroke-width="1.44" stroke-linecap="butt" stroke-linejoin="miter"
 d="M 45.7921 42.024 L 49.6801 42.024 "/>
<path
 fill="#d7efc5" stroke="none"
 d="M 38.6986 31.7715 L 38.6986,31.7715L 56.7736,31.7715L 56.7736,37.1565L 38.6986,37.1565Z"/>
<path
 fill="none" stroke="#000000" stroke-width="1.44" stroke-linecap="butt" stroke-linejoin="miter"
 d="M 45.7921 34.464 L 49.6801 34.464 "/>
<path
 fill="#d7efc5" stroke="none"
 d="M 67.465 150.333 L 67.465,150.333L 67.465,167.958L 61.63,167.958L 61.63,150.333Z"/>
<path
 fill="none" stroke="#000000" stroke-width="1.44" stroke-linecap="butt" stroke-linejoin="miter"
 d="M 64.5475 157.201 L 64.5475 161.089 "/>
<path
 fill="#d7efc5" stroke="none"
 d="M 75.025 150.333 L 75.025,150.333L 75.025,167.958L 69.19,167.958L 69.19,150.333Z"/>
<path
 fill="none" stroke="#000000" stroke-width="1.44" stroke-linecap="butt" stroke-linejoin="miter"
 d="M 72.1075 157.201 L 72.1075 161.089 "/>
<path
 fill="none" stroke="#5c5c5c" stroke-width="0.5" stroke-linecap="butt" stroke-linejoin="miter"
 d=""/>
<path
 fill="none" stroke="#5c5c5c" stroke-width="0.5" stroke-linecap="butt" stroke-linejoin="miter"
 d=""/>
<path
 fill="none" stroke="#5c5c5c" stroke-width="0.5" stroke-linecap="butt" stroke-linejoin="miter"
 d=""/>
<path
 fill="none" stroke="#5c5c5c" stroke-width="0.5" stroke-linecap="butt" stroke-linejoin="miter"
 d=""/>
<path
 fill="none" stroke="#5c5c5c" stroke-width="0.5" stroke-linecap="butt" stroke-linejoin="miter"
 d=""/>
<path
 fill="none" stroke="#5c5c5c" stroke-width="0.5" stroke-linecap="butt" stroke-linejoin="miter"
 d="M 22.8712 112.193 A 16.4686,16.4686 0 0,1 37.5754,90.8618"/>
<path
 fill="none" stroke="#5c5c5c" stroke-width="0.5" stroke-linecap="butt" stroke-linejoin="miter"
 d=""/>
<path
 fill="none" stroke="#5c5c5c" stroke-width="0.5" stroke-linecap="butt" stroke-linejoin="miter"
 d=""/>
<path
 fill="none" stroke="#5c5c5c" stroke-width="0.5" stroke-linecap="butt" stroke-linejoin="miter"
 d=""/>
<path
 fill="none" stroke="#5c5c5c" stroke-width="0.5" stroke-linecap="butt" stroke-linejoin="miter"
 d=""/>
<path
 fill="none" stroke="#5c5c5c" stroke-width="0.5" stroke-linecap="butt" stroke-linejoin="miter"
 d=""/>
<path
 fill="none" stroke="#5c5c5c" stroke-width="0.5" stroke-linecap="butt" stroke-linejoin="miter"
 d=""/>
<path
 fill="none" stroke="#5c5c5c" stroke-width="0.5" stroke-linecap="butt" stroke-linejoin="miter"
 d=""/>
<path
 fill="none" stroke="#5c5c5c" stroke-width="0.5" stroke-linecap="butt" stroke-linejoin="miter"
 d=""/>
<path
 fill="none" stroke="#5c5c5c" stroke-width="0.5" stroke-linecap="butt" stroke-linejoin="miter"
 d=""/>
<path
 fill="none" stroke="#5c5c5c" stroke-width="0.5" stroke-linecap="butt" stroke-linejoin="miter"
 d=""/>
<path
 fill="none" stroke="#5c5c5c" stroke-width="0.5" stroke-linecap="butt" stroke-linejoin="miter"
 d=""/>
<path
 fill="none" stroke="#5c5c5c" stroke-width="0.5" stroke-linecap="butt" stroke-linejoin="miter"
 d=""/>
<path
 fill="none" stroke="#5c5c5c" stroke-width="0.5" stroke-linecap="butt" stroke-linejoin="miter"
 d=""/>
<path
 fill="none" stroke="#5c5c5c" stroke-width="0.5" stroke-linecap="butt" stroke-linejoin="miter"
 d=""/>
<path
 fill="none" stroke="#5c5c5c" stroke-width="0.5" stroke-linecap="butt" stroke-linejoin="miter"
 d=""/>
<path
 fill="none" stroke="#5c5c5c" stroke-width="0.5" stroke-linecap="butt" stroke-linejoin="miter"
 d=""/>
<path
 fill="none" stroke="#5c5c5c" stroke-width="0.5" stroke-linecap="butt" stroke-linejoin="miter"
 d=""/>
<path
 fill="none" stroke="#5c5c5c" stroke-width="0.5" stroke-linecap="butt" stroke-linejoin="miter"
 d=""/>
<path
 fill="none" stroke="#5c5c5c" stroke-width="0.5" stroke-linecap="butt" stroke-linejoin="miter"
 d=""/>
<path
 fill="none" stroke="#5c5c5c" stroke-width="0.5" stroke-linecap="butt" stroke-linejoin="miter"
 d=""/>
<path
 fill="none" stroke="#5c5c5c" stroke-width="0.5" stroke-linecap="butt" stroke-linejoin="miter"
 d=""/>
<path
 fill="none" stroke="#5c5c5c" stroke-width="0.5" stroke-linecap="butt" stroke-linejoin="miter"
 d=""/>
<path
 fill="none" stroke="#5c5c5c" stroke-width="0.5" stroke-linecap="butt" stroke-linejoin="miter"
 d=""/>
<path
 fill="none" stroke="#5c5c5c" stroke-width="0.5" stroke-linecap="butt" stroke-linejoin="miter"
 d=""/>
<path
 fill="none" stroke="#5c5c5c" stroke-width="0.5" stroke-linecap="butt" stroke-linejoin="miter"
 d=""/>
<path
 fill="none" stroke="#5c5c5c" stroke-width="0.5" stroke-linecap="butt" stroke-linejoin="miter"
 d=""/>
<path
 fill="none" stroke="#5c5c5c" stroke-width="0.5" stroke-linecap="butt" stroke-linejoin="miter"
 d=""/>
<path
 fill="none" stroke="#5c5c5c" stroke-width="0.5" stroke-linecap="butt" stroke-linejoin="miter"
 d=""/>
<path
 fill="none" stroke="#5c5c5c" stroke-width="0.5" stroke-linecap="butt" stroke-linejoin="miter"
 d=""/>
<path
 fill="none" stroke="#5c5c5c" stroke-width="0.5" stroke-linecap="butt" stroke-linejoin="miter"
 d=""/>
<path
 fill="none" stroke="#5c5c5c" stroke-width="0.5" stroke-linecap="butt" stroke-linejoin="miter"
 d=""/>
<path
 fill="none" stroke="#5c5c5c" stroke-width="0.5" stroke-linecap="butt" stroke-linejoin="miter"
 d=""/>
<path
 fill="none" stroke="#5c5c5c" stroke-width="0.5" stroke-linecap="butt" stroke-linejoin="miter"
 d=""/>
<path
 fill="none" stroke="#5c5c5c" stroke-width="0.5" stroke-linecap="butt" stroke-linejoin="miter"
 d=""/>
<path
 fill="none" stroke="#5c5c5c" stroke-width="0.5" stroke-linecap="butt" stroke-linejoin="miter"
 d="M 101.414 137.511 A 23.8853,23.8853 0 0,1 115.175,159.145"/>
<path
 fill="none" stroke="#5c5c5c" stroke-width="0.5" stroke-linecap="butt" stroke-linejoin="miter"
 d=""/>
<path
 fill="none" stroke="#5c5c5c" stroke-width="0.5" stroke-linecap="butt" stroke-linejoin="miter"
 d="M 108.679 175.52 A 23.8853,23.8853 0 0,1 83.8286,181.835"/>
<path
 fill="none" stroke="#5c5c5c" stroke-width="0.5" stroke-linecap="butt" stroke-linejoin="miter"
 d=""/>
<path
 fill="none" stroke="#5c5c5c" stroke-width="0.5" stroke-linecap="butt" stroke-linejoin="miter"
 d=""/>
<path
 fill="none" stroke="#5c5c5c" stroke-width="0.5" stroke-linecap="butt" stroke-linejoin="miter"
 d=""/>
<path
 fill="none" stroke="#5c5c5c" stroke-width="0.5" stroke-linecap="butt" stroke-linejoin="miter"
 d=""/>
<path
 fill="none" stroke="#5c5c5c" stroke-width="0.5" stroke-linecap="butt" stroke-linejoin="miter"
 d="M 62.9518 174.391 L 62.9518 197.071 "/>
<path
 fill="none" stroke="#5c5c5c" stroke-width="0.5" stroke-linecap="butt" stroke-linejoin="miter"
 d=""/>
<path
 fill="none" stroke="#5c5c5c" stroke-width="0.5" stroke-linecap="butt" stroke-linejoin="miter"
 d=""/>
<path
 fill="none" stroke="#5c5c5c" stroke-width="0.5" stroke-linecap="butt" stroke-linejoin="miter"
 d=""/>
<path
 fill="none" stroke="#5c5c5c" stroke-width="0.5" stroke-linecap="butt" stroke-linejoin="miter"
 d=""/>
<path
 fill="none" stroke="#5c5c5c" stroke-width="0.5" stroke-linecap="butt" stroke-linejoin="miter"
 d=""/>
<path
 fill="none" stroke="#5c5c5c" stroke-width="0.5" stroke-linecap="butt" stroke-linejoin="miter"
 d=""/>
<path
 fill="none" stroke="#5c5c5c" stroke-width="0.5" stroke-linecap="butt" stroke-linejoin="miter"
 d=""/>
<path
 fill="none" stroke="#5c5c5c" stroke-width="0.5" stroke-linecap="butt" stroke-linejoin="miter"
 d=""/>
<path
 fill="none" stroke="#5c5c5c" stroke-width="0.5" stroke-linecap="butt" stroke-linejoin="miter"
 d=""/>
<path
 fill="none" stroke="#5c5c5c" stroke-width="0.5" stroke-linecap="butt" stroke-linejoin="miter"
 d=""/>
<path
 fill="none" stroke="#5c5c5c" stroke-width="0.5" stroke-linecap="butt" stroke-linejoin="miter"
 d=""/>
<path
 fill="none" stroke="#5c5c5c" stroke-width="0.5" stroke-linecap="butt" stroke-linejoin="miter"
 d=""/>
<path
 fill="none" stroke="#5c5c5c" stroke-width="0.5" stroke-linecap="butt" stroke-linejoin="miter"
 d=""/>
<path
 fill="none" stroke="#5c5c5c" stroke-width="0.5" stroke-linecap="butt" stroke-linejoin="miter"
 d=""/>
<path
 fill="none" stroke="#5c5c5c" stroke-width="0.5" stroke-linecap="butt" stroke-linejoin="miter"
 d=""/>
<path
 fill="none" stroke="#5c5c5c" stroke-width="0.5" stroke-linecap="butt" stroke-linejoin="miter"
 d=""/>
<path
 fill="none" stroke="#5c5c5c" stroke-width="0.5" stroke-linecap="butt" stroke-linejoin="miter"
 d=""/>
<path
 fill="none" stroke="#5c5c5c" stroke-width="0.5" stroke-linecap="butt" stroke-linejoin="miter"
 d=""/>
<path
 fill="none" stroke="#5c5c5c" stroke-width="0.5" stroke-linecap="butt" stroke-linejoin="miter"
 d=""/>
<path
 fill="none" stroke="#5c5c5c" stroke-width="0.5" stroke-linecap="butt" stroke-linejoin="miter"
 d=""/>
<path
 fill="none" stroke="#5c5c5c" stroke-width="0.5" stroke-linecap="butt" stroke-linejoin="miter"
 d=""/>
<path
 fill="none" stroke="#5c5c5c" stroke-width="0.5" stroke-linecap="butt" stroke-linejoin="miter"
 d=""/>
<path
 fill="none" stroke="#5c5c5c" stroke-width="0.5" stroke-linecap="butt" stroke-linejoin="miter"
 d=""/>
<path
 fill="none" stroke="#5c5c5c" stroke-width="0.5" stroke-linecap="butt" stroke-linejoin="miter"
 d=""/>
<path
 fill="none" stroke="#5c5c5c" stroke-width="0.5" stroke-linecap="butt" stroke-linejoin="miter"
 d=""/>
<path
 fill="none" stroke="#5c5c5c" stroke-width="0.5" stroke-linecap="butt" stroke-linejoin="miter"
 d=""/>
<path
 fill="none" stroke="#5c5c5c" stroke-width="0.5" stroke-linecap="butt" stroke-linejoin="miter"
 d=""/>
<path
 fill="none" stroke="#5c5c5c" stroke-width="0.5" stroke-linecap="butt" stroke-linejoin="miter"
 d=""/>
<path
 fill="none" stroke="#5c5c5c" stroke-width="0.5" stroke-linecap="butt" stroke-linejoin="miter"
 d=""/>
<path
 fill="none" stroke="#5c5c5c" stroke-width="0.5" stroke-linecap="butt" stroke-linejoin="miter"
 d=""/>
<path
 fill="none" stroke="#5c5c5c" stroke-width="0.5" stroke-linecap="butt" stroke-linejoin="miter"
 d=""/>
<path
 fill="none" stroke="#5c5c5c" stroke-width="0.5" stroke-linecap="butt" stroke-linejoin="miter"
 d=""/>
<path
 fill="none" stroke="#5c5c5c" stroke-width="0.5" stroke-linecap="butt" stroke-linejoin="miter"
 d=""/>
<path
 fill="none" stroke="#5c5c5c" stroke-width="0.5" stroke-linecap="butt" stroke-linejoin="miter"
 d=""/>
<path
 fill="none" stroke="#5c5c5c" stroke-width="0.5" stroke-linecap="butt" stroke-linejoin="miter"
 d=""/>
<path
 fill="none" stroke="#5c5c5c" stroke-width="0.5" stroke-linecap="butt" stroke-linejoin="miter"
 d=""/>
<path
 fill="none" stroke="#5c5c5c" stroke-width="0.5" stroke-linecap="butt" stroke-linejoin="miter"
 d=""/>
<path
 fill="none" stroke="#5c5c5c" stroke-width="0.5" stroke-linecap="butt" stroke-linejoin="miter"
 d=""/>
<path
 fill="none" stroke="#5c5c5c" stroke-width="0.5" stroke-linecap="butt" stroke-linejoin="miter"
 d=""/>
<path
 fill="none" stroke="#5c5c5c" stroke-width="0.5" stroke-linecap="butt" stroke-linejoin="miter"
 d=""/>
<path
 fill="none" stroke="#5c5c5c" stroke-width="0.5" stroke-linecap="butt" stroke-linejoin="miter"
 d=""/>
<path
 fill="none" stroke="#5c5c5c" stroke-width="0.5" stroke-linecap="butt" stroke-linejoin="miter"
 d=""/>
<path
 fill="none" stroke="#5c5c5c" stroke-width="0.5" stroke-linecap="butt" stroke-linejoin="miter"
 d=""/>
<path
 fill="none" stroke="#5c5c5c" stroke-width="0.5" stroke-linecap="butt" stroke-linejoin="miter"
 d=""/>
<path
 fill="none" stroke="#5c5c5c" stroke-width="0.5" stroke-linecap="butt" stroke-linejoin="miter"
 d=""/>
<path
 fill="none" stroke="#5c5c5c" stroke-width="0.5" stroke-linecap="butt" stroke-linejoin="miter"
 d=""/>
<path
 fill="none" stroke="#5c5c5c" stroke-width="0.5" stroke-linecap="butt" stroke-linejoin="miter"
 d=""/>
<path
 fill="none" stroke="#5c5c5c" stroke-width="0.5" stroke-linecap="butt" stroke-linejoin="miter"
 d=""/>
<path
 fill="none" stroke="#5c5c5c" stroke-width="0.5" stroke-linecap="butt" stroke-linejoin="miter"
 d=""/>
<path
 fill="none" stroke="#5c5c5c" stroke-width="0.5" stroke-linecap="butt" stroke-linejoin="miter"
 d=""/>
<path
 fill="none" stroke="#5c5c5c" stroke-width="0.5" stroke-linecap="butt" stroke-linejoin="miter"
 d=""/>
<path
 fill="none" stroke="#5c5c5c" stroke-width="0.5" stroke-linecap="butt" stroke-linejoin="miter"
 d=""/>
<path
 fill="none" stroke="#5c5c5c" stroke-width="0.5" stroke-linecap="butt" stroke-linejoin="miter"
 d=""/>
<path
 fill="none" stroke="#5c5c5c" stroke-width="0.5" stroke-linecap="butt" stroke-linejoin="miter"
 d=""/>
<path
 fill="none" stroke="#5c5c5c" stroke-width="0.5" stroke-linecap="butt" stroke-linejoin="miter"
 d=""/>
<path
 fill="none" stroke="#5c5c5c" stroke-width="0.5" stroke-linecap="butt" stroke-linejoin="miter"
 d=""/>
<path
 fill="none" stroke="#5c5c5c" stroke-width="0.5" stroke-linecap="butt" stroke-linejoin="miter"
 d=""/>
<path
 fill="none" stroke="#5c5c5c" stroke-width="0.5" stroke-linecap="butt" stroke-linejoin="miter"
 d=""/>
<path
 fill="none" stroke="#5c5c5c" stroke-width="0.5" stroke-linecap="butt" stroke-linejoin="miter"
 d=""/>
<path
 fill="none" stroke="#5c5c5c" stroke-width="0.5" stroke-linecap="butt" stroke-linejoin="miter"
 d=""/>
<path
 fill="#d90000" stroke="#000000" stroke-width="0.72" stroke-linecap="butt" stroke-linejoin="miter"
 d="M 44.1736 142.334 A 2.5575,2.5575 0 0,1 39.0586,142.334A 2.5575,2.5575 0 0,1 44.1736,142.334Z"/>
<text x="38.9086" y="137.466" id="text1002">
  <tspan x="38.9086" y="137.466" fill="#807b88"  font-variant="normal" font-weight="normal" font-style="normal" font-family="Bitstream Vera Sans" font-size="7.5" id="tspan1003">R</tspan>
</text>
<text x="39.1148" y="129.906" id="text1004">
  <tspan x="39.1148" y="129.906" fill="#807b88"  font-variant="normal" font-weight="normal" font-style="normal" font-family="Bitstream Vera Sans" font-size="7.5" id="tspan1005">Y</tspan>
</text>
<path
 fill="#ffffff" stroke="#000000" stroke-width="0.72" stroke-linecap="butt" stroke-linejoin="miter"
 d="M 44.1736 119.654 A 2.5575,2.5575 0 0,1 39.0586,119.654A 2.5575,2.5575 0 0,1 44.1736,119.654Z"/>
<text x="31.1531" y="121.878" id="text1006">
  <tspan x="31.1531" y="121.878" fill="#d90000"  font-variant="normal" font-weight="normal" font-style="normal" font-family="Bitstream Vera Sans" font-size="7.5" id="tspan1007">G</tspan>
</text>
<text x="25.6227" y="117.21" id="text1008">
  <tspan x="25.6227" y="117.21" fill="#d90000"  font-variant="normal" font-weight="normal" font-style="normal" font-family="Bitstream Vera Sans" font-size="7.5" id="tspan1009">A</tspan>
</text>
<path
 fill="#d90000" stroke="#000000" stroke-width="0.72" stroke-linecap="butt" stroke-linejoin="miter"
 d="M 28.4346 107.299 A 2.5575,2.5575 0 0,1 23.3196,107.299A 2.5575,2.5575 0 0,1 28.4346,107.299Z"/>
<path
 fill="#d90000" stroke="#000000" stroke-width="0.72" stroke-linecap="butt" stroke-linejoin="miter"
 d="M 30.6814 100.08 A 2.5575,2.5575 0 0,1 25.5664,100.08A 2.5575,2.5575 0 0,1 30.6814,100.08Z"/>
<text x="31.1531" y="98.1049" id="text1010">
  <tspan x="31.1531" y="98.1049" fill="#807b88"  font-variant="normal" font-weight="normal" font-style="normal" font-family="Bitstream Vera Sans" font-size="7.5" id="tspan1011">G</tspan>
</text>
<path
 fill="#d90000" stroke="#000000" stroke-width="0.72" stroke-linecap="butt" stroke-linejoin="miter"
 d="M 44.1736 94.944 A 2.5575,2.5575 0 0,1 39.0586,94.944A 2.5575,2.5575 0 0,1 44.1736,94.944Z"/>
<path
 fill="#d90000" stroke="#000000" stroke-width="0.72" stroke-linecap="butt" stroke-linejoin="miter"
 d="M 44.1736 87.384 A 2.5575,2.5575 0 0,1 39.0586,87.384A 2.5575,2.5575 0 0,1 44.1736,87.384Z"/>
<path
 fill="#d90000" stroke="#000000" stroke-width="0.72" stroke-linecap="butt" stroke-linejoin="miter"
 d="M 44.1736 79.824 A 2.5575,2.5575 0 0,1 39.0586,79.824A 2.5575,2.5575 0 0,1 44.1736,79.824Z"/>
<path
 fill="#d90000" stroke="#000000" stroke-width="0.72" stroke-linecap="butt" stroke-linejoin="miter"
 d="M 44.1736 72.264 A 2.5575,2.5575 0 0,1 39.0586,72.264A 2.5575,2.5575 0 0,1 44.1736,72.264Z"/>
<path
 fill="#d90000" stroke="#000000" stroke-width="0.72" stroke-linecap="butt" stroke-linejoin="miter"
 d="M 44.1736 64.704 A 2.5575,2.5575 0 0,1 39.0586,64.704A 2.5575,2.5575 0 0,1 44.1736,64.704Z"/>
<path
 fill="#000000" stroke="#000000" stroke-width="0.72" stroke-linecap="butt" stroke-linejoin="miter"
 d="M 44.1736 57.144 A 2.5575,2.5575 0 0,1 39.0586,57.144A 2.5575,2.5575 0 0,1 44.1736,57.144Z"/>
<path
 fill="#807b88" stroke="#000000" stroke-width="0.72" stroke-linecap="butt" stroke-linejoin="miter"
 d="M 44.1736 49.584 A 2.5575,2.5575 0 0,1 39.0586,49.584A 2.5575,2.5575 0 0,1 44.1736,49.584Z"/>
<path
 fill="#ffffff" stroke="#000000" stroke-width="0.72" stroke-linecap="butt" stroke-linejoin="miter"
 d="M 44.1736 42.024 A 2.5575,2.5575 0 0,1 39.0586,42.024A 2.5575,2.5575 0 0,1 44.1736,42.024Z"/>
<path
 fill="#ffffff" stroke="#666666" stroke-width="0.72" stroke-linecap="butt" stroke-linejoin="miter"
 d="M 44.1736 34.464 A 2.5575,2.5575 0 0,1 39.0586,34.464A 2.5575,2.5575 0 0,1 44.1736,34.464Z"/>
<path
 fill="#d90000" stroke="#000000" stroke-width="0.72" stroke-linecap="butt" stroke-linejoin="miter"
 d="M 42.0009 27.2229 A 2.5575,2.5575 0 0,1 36.8859,27.2229A 2.5575,2.5575 0 0,1 42.0009,27.2229Z"/>
<path
 fill="#d90000" stroke="#000000" stroke-width="0.72" stroke-linecap="butt" stroke-linejoin="miter"
 d="M 46.5136 21.1575 A 2.5575,2.5575 0 0,1 41.3986,21.1575A 2.5575,2.5575 0 0,1 46.5136,21.1575Z"/>
<path
 fill="#d90000" stroke="#000000" stroke-width="0.72" stroke-linecap="butt" stroke-linejoin="miter"
 d="M 54.0736 21.1575 A 2.5575,2.5575 0 0,1 48.9586,21.1575A 2.5575,2.5575 0 0,1 54.0736,21.1575Z"/>
<path
 fill="#000000" stroke="#000000" stroke-width="0.72" stroke-linecap="butt" stroke-linejoin="miter"
 d="M 58.5862 27.2229 A 2.5575,2.5575 0 0,1 53.4712,27.2229A 2.5575,2.5575 0 0,1 58.5862,27.2229Z"/>
<path
 fill="#ffffff" stroke="#666666" stroke-width="0.72" stroke-linecap="butt" stroke-linejoin="miter"
 d="M 56.4136 34.464 A 2.5575,2.5575 0 0,1 51.2986,34.464A 2.5575,2.5575 0 0,1 56.4136,34.464Z"/>
<path
 fill="#ffffff" stroke="#000000" stroke-width="0.72" stroke-linecap="butt" stroke-linejoin="miter"
 d="M 56.4136 42.024 A 2.5575,2.5575 0 0,1 51.2986,42.024A 2.5575,2.5575 0 0,1 56.4136,42.024Z"/>
<path
 fill="#807b88" stroke="#000000" stroke-width="0.72" stroke-linecap="butt" stroke-linejoin="miter"
 d="M 56.4136 49.584 A 2.5575,2.5575 0 0,1 51.2986,49.584A 2.5575,2.5575 0 0,1 56.4136,49.584Z"/>
<path
 fill="#000000" stroke="#000000" stroke-width="0.72" stroke-linecap="butt" stroke-linejoin="miter"
 d="M 56.4136 57.144 A 2.5575,2.5575 0 0,1 51.2986,57.144A 2.5575,2.5575 0 0,1 56.4136,57.144Z"/>
<path
 fill="#d90000" stroke="#000000" stroke-width="0.72" stroke-linecap="butt" stroke-linejoin="miter"
 d="M 56.4136 64.704 A 2.5575,2.5575 0 0,1 51.2986,64.704A 2.5575,2.5575 0 0,1 56.4136,64.704Z"/>
<path
 fill="#d90000" stroke="#000000" stroke-width="0.72" stroke-linecap="butt" stroke-linejoin="miter"
 d="M 56.4136 72.264 A 2.5575,2.5575 0 0,1 51.2986,72.264A 2.5575,2.5575 0 0,1 56.4136,72.264Z"/>
<path
 fill="#d90000" stroke="#000000" stroke-width="0.72" stroke-linecap="butt" stroke-linejoin="miter"
 d="M 56.4136 79.824 A 2.5575,2.5575 0 0,1 51.2986,79.824A 2.5575,2.5575 0 0,1 56.4136,79.824Z"/>
<path
 fill="#d90000" stroke="#000000" stroke-width="0.72" stroke-linecap="butt" stroke-linejoin="miter"
 d="M 56.4136 87.384 A 2.5575,2.5575 0 0,1 51.2986,87.384A 2.5575,2.5575 0 0,1 56.4136,87.384Z"/>
<path
 fill="#d90000" stroke="#000000" stroke-width="0.72" stroke-linecap="butt" stroke-linejoin="miter"
 d="M 56.4136 94.944 A 2.5575,2.5575 0 0,1 51.2986,94.944A 2.5575,2.5575 0 0,1 56.4136,94.944Z"/>
<text x="56.7434" y="102.721" id="text1012">
  <tspan x="56.7434" y="102.721" fill="#d90000"  font-variant="normal" font-weight="normal" font-style="normal" font-family="Bitstream Vera Sans" font-size="7.5" id="tspan1013">U</tspan>
</text>
<text x="59.0223" y="109.991" id="text1014">
  <tspan x="59.0223" y="109.991" fill="#d90000"  font-variant="normal" font-weight="normal" font-style="normal" font-family="Bitstream Vera Sans" font-size="7.5" id="tspan1015">A</tspan>
</text>
<text x="56.9497" y="117.262" id="text1016">
  <tspan x="56.9497" y="117.262" fill="#d90000"  font-variant="normal" font-weight="normal" font-style="normal" font-family="Bitstream Vera Sans" font-size="7.5" id="tspan1017">A</tspan>
</text>
<path
 fill="#ffffff" stroke="#000000" stroke-width="0.72" stroke-linecap="butt" stroke-linejoin="miter"
 d="M 56.4136 119.654 A 2.5575,2.5575 0 0,1 51.2986,119.654A 2.5575,2.5575 0 0,1 56.4136,119.654Z"/>
<text x="51.1486" y="129.906" id="text1018">
  <tspan x="51.1486" y="129.906" fill="#807b88"  font-variant="normal" font-weight="normal" font-style="normal" font-family="Bitstream Vera Sans" font-size="7.5" id="tspan1019">R</tspan>
</text>
<text x="51.3548" y="137.466" id="text1020">
  <tspan x="51.3548" y="137.466" fill="#807b88"  font-variant="normal" font-weight="normal" font-style="normal" font-family="Bitstream Vera Sans" font-size="7.5" id="tspan1021">Y</tspan>
</text>
<path
 fill="#000000" stroke="#000000" stroke-width="0.72" stroke-linecap="butt" stroke-linejoin="miter"
 d="M 56.4136 142.334 A 2.5575,2.5575 0 0,1 51.2986,142.334A 2.5575,2.5575 0 0,1 56.4136,142.334Z"/>
<text x="61.84" y="155.718" id="text1022">
  <tspan x="61.84" y="155.718" fill="#000000"  font-variant="normal" font-weight="normal" font-style="normal" font-family="Bitstream Vera Sans" font-size="7.5" id="tspan1023">R</tspan>
</text>
<text x="69.4" y="155.718" id="text1024">
  <tspan x="69.4" y="155.718" fill="#807b88"  font-variant="normal" font-weight="normal" font-style="normal" font-family="Bitstream Vera Sans" font-size="7.5" id="tspan1025">C</tspan>
</text>
<path
 fill="#d90000" stroke="#000000" stroke-width="0.72" stroke-linecap="butt" stroke-linejoin="miter"
 d="M 78.2741 146.382 A 2.5575,2.5575 0 0,1 73.1591,146.382A 2.5575,2.5575 0 0,1 78.2741,146.382Z"/>
<path
 fill="#d90000" stroke="#000000" stroke-width="0.72" stroke-linecap="butt" stroke-linejoin="miter"
 d="M 84.0786 141.538 A 2.5575,2.5575 0 0,1 78.9636,141.538A 2.5575,2.5575 0 0,1 84.0786,141.538Z"/>
<path
 fill="#d90000" stroke="#000000" stroke-width="0.72" stroke-linecap="butt" stroke-linejoin="miter"
 d="M 91.2602 139.177 A 2.5575,2.5575 0 0,1 86.1452,139.177A 2.5575,2.5575 0 0,1 91.2602,139.177Z"/>
<path
 fill="#ffffff" stroke="#000000" stroke-width="0.72" stroke-linecap="butt" stroke-linejoin="miter"
 d="M 98.8066 139.63 A 2.5575,2.5575 0 0,1 93.6916,139.63A 2.5575,2.5575 0 0,1 98.8066,139.63Z"/>
<path
 fill="#d90000" stroke="#000000" stroke-width="0.72" stroke-linecap="butt" stroke-linejoin="miter"
 d="M 105.654 142.834 A 2.5575,2.5575 0 0,1 100.539,142.834A 2.5575,2.5575 0 0,1 105.654,142.834Z"/>
<text x="105.778" y="151.03" id="text1026">
  <tspan x="105.778" y="151.03" fill="#807b88"  font-variant="normal" font-weight="normal" font-style="normal" font-family="Bitstream Vera Sans" font-size="7.5" id="tspan1027">Y</tspan>
</text>
<text x="108.36" y="158.058" id="text1028">
  <tspan x="108.36" y="158.058" fill="#807b88"  font-variant="normal" font-weight="normal" font-style="normal" font-family="Bitstream Vera Sans" font-size="7.5" id="tspan1029">R</tspan>
</text>
<text x="108.15" y="165.618" id="text1030">
  <tspan x="108.15" y="165.618" fill="#d90000"  font-variant="normal" font-weight="normal" font-style="normal" font-family="Bitstream Vera Sans" font-size="7.5" id="tspan1031">G</tspan>
</text>
<text x="105.572" y="172.645" id="text1032">
  <tspan x="105.572" y="172.645" fill="#d90000"  font-variant="normal" font-weight="normal" font-style="normal" font-family="Bitstream Vera Sans" font-size="7.5" id="tspan1033">U</tspan>
</text>
<text x="100.389" y="178.148" id="text1034">
  <tspan x="100.389" y="178.148" fill="#807b88"  font-variant="normal" font-weight="normal" font-style="normal" font-family="Bitstream Vera Sans" font-size="7.5" id="tspan1035">C</tspan>
</text>
<path
 fill="#d90000" stroke="#000000" stroke-width="0.72" stroke-linecap="butt" stroke-linejoin="miter"
 d="M 98.8066 178.66 A 2.5575,2.5575 0 0,1 93.6916,178.66A 2.5575,2.5575 0 0,1 98.8066,178.66Z"/>
<path
 fill="#d90000" stroke="#000000" stroke-width="0.72" stroke-linecap="butt" stroke-linejoin="miter"
 d="M 91.2602 179.113 A 2.5575,2.5575 0 0,1 86.1452,179.113A 2.5575,2.5575 0 0,1 91.2602,179.113Z"/>
<text x="79.0198" y="179.444" id="text1036">
  <tspan x="79.0198" y="179.444" fill="#d90000"  font-variant="normal" font-weight="normal" font-style="normal" font-family="Bitstream Vera Sans" font-size="7.5" id="tspan1037">A</tspan>
</text>
<text x="73.2154" y="174.6" id="text1038">
  <tspan x="73.2154" y="174.6" fill="#d90000"  font-variant="normal" font-weight="normal" font-style="normal" font-family="Bitstream Vera Sans" font-size="7.5" id="tspan1039">A</tspan>
</text>
<text x="69.19" y="167.958" id="text1040">
  <tspan x="69.19" y="167.958" fill="#807b88"  font-variant="normal" font-weight="normal" font-style="normal" font-family="Bitstream Vera Sans" font-size="7.5" id="tspan1041">G</tspan>
</text>
<text x="62.0463" y="167.958" id="text1042">
  <tspan x="62.0463" y="167.958" fill="#000000"  font-variant="normal" font-weight="normal" font-style="normal" font-family="Bitstream Vera Sans" font-size="7.5" id="tspan1043">Y</tspan>
</text>
<text x="56.4943" y="173.303" id="text1044">
  <tspan x="56.4943" y="173.303" fill="#d90000"  font-variant="normal" font-weight="normal" font-style="normal" font-family="Bitstream Vera Sans" font-size="7.5" id="tspan1045">C</tspan>
</text>
<text x="56.7006" y="180.863" id="text1046">
  <tspan x="56.7006" y="180.863" fill="#807b88"  font-variant="normal" font-weight="normal" font-style="normal" font-family="Bitstream Vera Sans" font-size="7.5" id="tspan1047">Y</tspan>
</text>
<text x="56.4943" y="188.423" id="text1048">
  <tspan x="56.4943" y="188.423" fill="#807b88"  font-variant="normal" font-weight="normal" font-style="normal" font-family="Bitstream Vera Sans" font-size="7.5" id="tspan1049">R</tspan>
</text>
<path
 fill="#d90000" stroke="#000000" stroke-width="0.72" stroke-linecap="butt" stroke-linejoin="miter"
 d="M 61.7593 193.291 A 2.5575,2.5575 0 0,1 56.6443,193.291A 2.5575,2.5575 0 0,1 61.7593,193.291Z"/>
<path
 fill="none" stroke="#000000" stroke-width="0.72" stroke-linecap="butt" stroke-linejoin="miter"
 d="M 41.6161 145.897 A 1.78191,1.78191 0 0,1 39.8342,147.679L 36.2704 147.679 "/>
<path
 fill="none" stroke="#000000" stroke-width="0.5" stroke-linecap="butt" stroke-linejoin="miter"
 d="M 25.0364 97.9521 L 21.743 95.6819 "/>
<path
 fill="none" stroke="#000000" stroke-width="0.5" stroke-linecap="butt" stroke-linejoin="miter"
 d="M 111.444 146.325 L 114.819 144.178 "/>
<path
 fill="none" stroke="#000000" stroke-width="0.5" stroke-linecap="butt" stroke-linejoin="miter"
 d="M 97.1727 182.295 L 98.1578 186.171 "/>
<path
 fill="none" stroke="#000000" stroke-width="0.5" stroke-linecap="butt" stroke-linejoin="miter"
 d="M 62.9518 185.731 L 66.9518 185.731 "/>
<text x="7.5" y="93.5886" id="text1050">
  <tspan x="7.5" y="93.5886" fill="#000000"  font-variant="normal" font-weight="normal" font-style="normal" font-family="Bitstream Vera Sans" font-size="6" id="tspan1051">pk_1</tspan>
</text>
<text x="116.084" y="142.131" id="text1052">
  <tspan x="116.084" y="142.131" fill="#000000"  font-variant="normal" font-weight="normal" font-style="normal" font-family="Bitstream Vera Sans" font-size="6" id="tspan1053">pk_2</tspan>
</text>
<text x="92.0232" y="191.933" id="text1054">
  <tspan x="92.0232" y="191.933" fill="#000000"  font-variant="normal" font-weight="normal" font-style="normal" font-family="Bitstream Vera Sans" font-size="6" id="tspan1055">pk_1</tspan>
</text>
<text x="68.4518" y="187.264" id="text1056">
  <tspan x="68.4518" y="187.264" fill="#000000"  font-variant="normal" font-weight="normal" font-style="normal" font-family="Bitstream Vera Sans" font-size="6" id="tspan1057">pk_2</tspan>
</text>
<text x="29.1679" y="150.372" id="text1058">
  <tspan x="29.1679" y="150.372" fill="#000000"  font-variant="normal" font-weight="normal" font-style="normal" font-family="Bitstream Vera Sans" font-size="7.5" id="tspan1059">5&apos;</tspan>
</text>
<text x="136.592" y="8.616" id="text1060">
  <tspan x="136.592" y="8.616" fill="#000000"  font-variant="normal" font-weight="normal" font-style="normal" font-family="Bitstream Vera Sans" font-size="12" id="tspan1061">pk_1</tspan>
</text>
<path
 fill="#d7efc5" stroke="none"
 d="M 145.175 19.6875 L 145.175,19.6875L 163.25,19.6875L 163.25,25.0725L 145.175,25.0725Z"/>
<path
 fill="none" stroke="#000000" stroke-width="1.44" stroke-linecap="butt" stroke-linejoin="miter"
 d="M 152.268 22.38 L 156.156 22.38 "/>
<path
 fill="#d7efc5" stroke="none"
 d="M 145.175 27.2475 L 145.175,27.2475L 163.25,27.2475L 163.25,32.6325L 145.175,32.6325Z"/>
<path
 fill="none" stroke="#000000" stroke-width="1.44" stroke-linecap="butt" stroke-linejoin="miter"
 d="M 152.268 29.94 L 156.156 29.94 "/>
<path
 fill="#d7efc5" stroke="none"
 d="M 145.175 34.8075 L 145.175,34.8075L 163.25,34.8075L 163.25,40.1925L 145.175,40.1925Z"/>
<path
 fill="none" stroke="#000000" stroke-width="1.44" stroke-linecap="butt" stroke-linejoin="miter"
 d="M 152.268 37.5 L 156.156 37.5 "/>
<path
 fill="none" stroke="#5c5c5c" stroke-width="0.5" stroke-linecap="butt" stroke-linejoin="miter"
 d="M 144.342 18.6 L 144.342 41.28 "/>
<path
 fill="none" stroke="#5c5c5c" stroke-width="0.5" stroke-linecap="butt" stroke-linejoin="miter"
 d="M 164.082 41.28 L 164.082 18.6 "/>
<path
 fill="none" stroke="#5c5c5c" stroke-width="0.5" stroke-linecap="butt" stroke-linejoin="miter"
 d=""/>
<path
 fill="none" stroke="#5c5c5c" stroke-width="0.5" stroke-linecap="butt" stroke-linejoin="miter"
 d=""/>
<path
 fill="none" stroke="#5c5c5c" stroke-width="0.5" stroke-linecap="butt" stroke-linejoin="miter"
 d=""/>
<path
 fill="none" stroke="#5c5c5c" stroke-width="0.5" stroke-linecap="butt" stroke-linejoin="miter"
 d=""/>
<path
 fill="none" stroke="#5c5c5c" stroke-width="0.5" stroke-linecap="butt" stroke-linejoin="miter"
 d=""/>
<path
 fill="none" stroke="#5c5c5c" stroke-width="0.5" stroke-linecap="butt" stroke-linejoin="miter"
 d=""/>
<path
 fill="#d90000" stroke="#000000" stroke-width="0.72" stroke-linecap="butt" stroke-linejoin="miter"
 d="M 150.65 22.38 A 2.5575,2.5575 0 0,1 145.535,22.38A 2.5575,2.5575 0 0,1 150.65,22.38Z"/>
<path
 fill="#d90000" stroke="#000000" stroke-width="0.72" stroke-linecap="butt" stroke-linejoin="miter"
 d="M 150.65 29.94 A 2.5575,2.5575 0 0,1 145.535,29.94A 2.5575,2.5575 0 0,1 150.65,29.94Z"/>
<text x="145.175" y="40.1925" id="text1062">
  <tspan x="145.175" y="40.1925" fill="#807b88"  font-variant="normal" font-weight="normal" font-style="normal" font-family="Bitstream Vera Sans" font-size="7.5" id="tspan1063">G</tspan>
</text>
<text x="157.625" y="40.1925" id="text1064">
  <tspan x="157.625" y="40.1925" fill="#807b88"  font-variant="normal" font-weight="normal" font-style="normal" font-family="Bitstream Vera Sans" font-size="7.5" id="tspan1065">C</tspan>
</text>
<path
 fill="#d90000" stroke="#000000" stroke-width="0.72" stroke-linecap="butt" stroke-linejoin="miter"
 d="M 162.89 29.94 A 2.5575,2.5575 0 0,1 157.775,29.94A 2.5575,2.5575 0 0,1 162.89,29.94Z"/>
<path
 fill="#d90000" stroke="#000000" stroke-width="0.72" stroke-linecap="butt" stroke-linejoin="miter"
 d="M 162.89 22.38 A 2.5575,2.5575 0 0,1 157.775,22.38A 2.5575,2.5575 0 0,1 162.89,22.38Z"/>
<text x="0" y="213.187" id="text1066">
  <tspan x="0" y="213.187" fill="#000000"  font-variant="normal" font-weight="normal" font-style="normal" font-family="Bitstream Vera Sans" font-size="12" id="tspan1067">pk_2</tspan>
</text>
<path
 fill="#d7efc5" stroke="none"
 d="M 8.5825 224.258 L 8.5825,224.258L 26.6575,224.258L 26.6575,229.643L 8.5825,229.643Z"/>
<path
 fill="none" stroke="#000000" stroke-width="1.44" stroke-linecap="butt" stroke-linejoin="miter"
 d="M 15.676 226.951 L 19.564 226.951 "/>
<path
 fill="#d7efc5" stroke="none"
 d="M 8.5825 231.818 L 8.5825,231.818L 26.6575,231.818L 26.6575,237.203L 8.5825,237.203Z"/>
<path
 fill="none" stroke="#000000" stroke-width="1.44" stroke-linecap="butt" stroke-linejoin="miter"
 d="M 15.676 234.511 L 19.564 234.511 "/>
<path
 fill="#d7efc5" stroke="none"
 d="M 8.5825 239.378 L 8.5825,239.378L 26.6575,239.378L 26.6575,244.763L 8.5825,244.763Z"/>
<path
 fill="none" stroke="#000000" stroke-width="1.44" stroke-linecap="butt" stroke-linejoin="miter"
 d="M 15.676 242.071 L 19.564 242.071 "/>
<path
 fill="none" stroke="#5c5c5c" stroke-width="0.5" stroke-linecap="butt" stroke-linejoin="miter"
 d="M 7.75 223.171 L 7.75 245.851 "/>
<path
 fill="none" stroke="#5c5c5c" stroke-width="0.5" stroke-linecap="butt" stroke-linejoin="miter"
 d="M 27.49 245.851 L 27.49 223.171 "/>
<path
 fill="none" stroke="#5c5c5c" stroke-width="0.5" stroke-linecap="butt" stroke-linejoin="miter"
 d=""/>
<path
 fill="none" stroke="#5c5c5c" stroke-width="0.5" stroke-linecap="butt" stroke-linejoin="miter"
 d=""/>
<path
 fill="none" stroke="#5c5c5c" stroke-width="0.5" stroke-linecap="butt" stroke-linejoin="miter"
 d=""/>
<path
 fill="none" stroke="#5c5c5c" stroke-width="0.5" stroke-linecap="butt" stroke-linejoin="miter"
 d=""/>
<path
 fill="none" stroke="#5c5c5c" stroke-width="0.5" stroke-linecap="butt" stroke-linejoin="miter"
 d=""/>
<path
 fill="none" stroke="#5c5c5c" stroke-width="0.5" stroke-linecap="butt" stroke-linejoin="miter"
 d=""/>
<path
 fill="#d90000" stroke="#000000" stroke-width="0.72" stroke-linecap="butt" stroke-linejoin="miter"
 d="M 14.0575 226.951 A 2.5575,2.5575 0 0,1 8.9425,226.951A 2.5575,2.5575 0 0,1 14.0575,226.951Z"/>
<text x="8.99875" y="237.203" id="text1068">
  <tspan x="8.99875" y="237.203" fill="#807b88"  font-variant="normal" font-weight="normal" font-style="normal" font-family="Bitstream Vera Sans" font-size="7.5" id="tspan1069">Y</tspan>
</text>
<text x="8.7925" y="244.763" id="text1070">
  <tspan x="8.7925" y="244.763" fill="#807b88"  font-variant="normal" font-weight="normal" font-style="normal" font-family="Bitstream Vera Sans" font-size="7.5" id="tspan1071">R</tspan>
</text>
<text x="21.2388" y="244.763" id="text1072">
  <tspan x="21.2388" y="244.763" fill="#807b88"  font-variant="normal" font-weight="normal" font-style="normal" font-family="Bitstream Vera Sans" font-size="7.5" id="tspan1073">Y</tspan>
</text>
<text x="21.0325" y="237.203" id="text1074">
  <tspan x="21.0325" y="237.203" fill="#807b88"  font-variant="normal" font-weight="normal" font-style="normal" font-family="Bitstream Vera Sans" font-size="7.5" id="tspan1075">R</tspan>
</text>
<path
 fill="#d90000" stroke="#000000" stroke-width="0.72" stroke-linecap="butt" stroke-linejoin="miter"
 d="M 26.2975 226.951 A 2.5575,2.5575 0 0,1 21.1825,226.951A 2.5575,2.5575 0 0,1 26.2975,226.951Z"/>
</svg>
